<?xml version="1.0" encoding="UTF-8" standalone="no"?>
<!-- Created with Inkscape (http://www.inkscape.org/) -->

<svg
   width="150mm"
   height="220mm"
   viewBox="0 0 150 220"
   version="1.1"
   id="svg1"
   inkscape:version="1.4.3 (1:1.4.3+202512261035+0d15f75042)"
   sodipodi:docname="title-page.svg"
   xml:space="preserve"
   inkscape:export-filename="title-page.jpg"
   inkscape:export-xdpi="288.64001"
   inkscape:export-ydpi="288.64001"
   xmlns:inkscape="http://www.inkscape.org/namespaces/inkscape"
   xmlns:sodipodi="http://sodipodi.sourceforge.net/DTD/sodipodi-0.dtd"
   xmlns="http://www.w3.org/2000/svg"
   xmlns:svg="http://www.w3.org/2000/svg"><sodipodi:namedview
     id="namedview1"
     pagecolor="#ffffff"
     bordercolor="#666666"
     borderopacity="1.0"
     inkscape:showpageshadow="2"
     inkscape:pageopacity="0.0"
     inkscape:pagecheckerboard="0"
     inkscape:deskcolor="#d1d1d1"
     inkscape:document-units="mm"
     inkscape:zoom="1.4142136"
     inkscape:cx="84.499258"
     inkscape:cy="456.43742"
     inkscape:window-width="2560"
     inkscape:window-height="1371"
     inkscape:window-x="0"
     inkscape:window-y="0"
     inkscape:window-maximized="1"
     inkscape:current-layer="g4"
     showguides="true"
     showgrid="false"
     inkscape:export-bgcolor="#ffffffff"><inkscape:grid
       id="grid10"
       units="in"
       originx="0"
       originy="0"
       spacingx="0.26458333"
       spacingy="0.26458333"
       empcolor="#0099e5"
       empopacity="0.30196078"
       color="#0099e5"
       opacity="0.14901961"
       empspacing="5"
       enabled="true"
       visible="false" /><sodipodi:guide
       position="16.460148,180"
       orientation="0,1"
       id="guide1"
       inkscape:locked="false"
       inkscape:label=""
       inkscape:color="rgb(0,134,229)" /><sodipodi:guide
       position="5.8457901,15"
       orientation="0,1"
       id="guide2"
       inkscape:locked="false"
       inkscape:label=""
       inkscape:color="rgb(0,134,229)" /><sodipodi:guide
       position="17,138.07754"
       orientation="-1,0"
       id="guide3"
       inkscape:locked="false"
       inkscape:label=""
       inkscape:color="rgb(0,134,229)" /><sodipodi:guide
       position="135,161.50337"
       orientation="-1,0"
       id="guide4"
       inkscape:locked="false"
       inkscape:label=""
       inkscape:color="rgb(0,134,229)" /></sodipodi:namedview><defs
     id="defs1"><rect
       x="120.13757"
       y="427.77307"
       width="295.83008"
       height="118.05426"
       id="rect9" /><rect
       x="110.97526"
       y="195.43431"
       width="362.52713"
       height="318.51941"
       id="rect7" /><rect
       x="62.400002"
       y="174.81059"
       width="399.17853"
       height="173.82851"
       id="rect6" /><rect
       x="56.249382"
       y="295.13565"
       width="414.57877"
       height="454.85611"
       id="rect1" /><rect
       x="201.3268"
       y="33.390785"
       width="532.28845"
       height="90.35154"
       id="rect3" /><rect
       x="153.69583"
       y="334.3989"
       width="534.74365"
       height="96.244034"
       id="rect5" /><rect
       x="120.13757"
       y="427.77307"
       width="295.83008"
       height="118.05426"
       id="rect9-7" /></defs><g
     inkscape:label="Layer 1"
     inkscape:groupmode="layer"
     id="layer1"><g
       id="g1"
       transform="matrix(0.41890549,0,0,0.41890549,7.6658434,104.00466)"><g
         id="g2"
         transform="translate(-5.80597,-51.360504)"><text
           xml:space="preserve"
           transform="matrix(0.63160627,0,0,0.63160627,-18.299697,-248.27715)"
           id="text6"
           style="font-size:66.6667px;line-height:1.25;font-family:'Helvetica Now Text';-inkscape-font-specification:'Helvetica Now Text, Normal';text-align:center;white-space:pre;shape-inside:url(#rect6);display:inline" /><text
           xml:space="preserve"
           style="font-size:42.1071px;line-height:1.25;font-family:'Helvetica Now Text';-inkscape-font-specification:'Helvetica Now Text, Normal';text-align:center;text-anchor:middle;stroke-width:0.631606"
           x="226.88365"
           y="-85.552605"
           id="text8"><tspan
             sodipodi:role="line"
             id="tspan7"
             style="stroke-width:0.631606"
             x="226.88365"
             y="-85.552605" /></text><rect
           style="fill:#000000;stroke:none;stroke-width:2.38717;stroke-linecap:round;stroke-linejoin:round"
           id="rect13"
           width="0"
           height="1.187863e-05"
           x="202.76248"
           y="187.53114" /><g
           id="g4"
           transform="translate(0,30.810339)"><text
             xml:space="preserve"
             transform="matrix(0.63160627,0,0,0.63160627,-16.155044,-180.35782)"
             id="text7"
             style="font-size:37.3333px;line-height:1.25;font-family:'Helvetica Now Text';-inkscape-font-specification:'Helvetica Now Text, Normal';text-align:center;white-space:pre;shape-inside:url(#rect7);display:inline"><tspan
               x="151.65973"
               y="232.7669"
               id="tspan3"><tspan
                 style="font-weight:500;font-family:Futura;-inkscape-font-specification:'Futura Medium'"
                 id="tspan1">JUDGMENT AND
</tspan></tspan><tspan
               x="129.01706"
               y="283.57436"
               id="tspan5"><tspan
                 style="font-weight:500;font-family:Futura;-inkscape-font-specification:'Futura Medium'"
                 id="tspan4">DECISION-MAKING</tspan></tspan></text><text
             xml:space="preserve"
             transform="matrix(0.63901008,0,0,0.63901008,-2.738921,-363.40005)"
             id="text9"
             style="font-size:28px;line-height:1.25;font-family:'Helvetica Now Text';-inkscape-font-specification:'Helvetica Now Text, Normal';text-align:center;white-space:pre;shape-inside:url(#rect9);display:inline"><tspan
               x="191.13577"
               y="455.77344"
               id="tspan8"><tspan
                 style="font-weight:500;font-stretch:condensed;font-family:Futura;-inkscape-font-specification:'Futura Medium Condensed'"
                 id="tspan6">The Psychology of</tspan></tspan></text><text
             xml:space="preserve"
             transform="matrix(0.63901008,0,0,0.63901008,-2.238427,-196.82026)"
             id="text9-5"
             style="font-size:13.1788px;line-height:1.25;font-family:'Helvetica Now Text';-inkscape-font-specification:'Helvetica Now Text, Normal';text-align:center;white-space:pre;shape-inside:url(#rect9-7);display:inline"><tspan
               x="239.7371"
               y="440.95224"
               id="tspan10"><tspan
                 style="font-weight:500;font-stretch:condensed;font-family:Futura;-inkscape-font-specification:'Futura Medium Condensed'"
                 id="tspan9">Zeroth edition</tspan></tspan></text><path
             style="fill:none;stroke:#000000;stroke-width:0.827006;stroke-linecap:round;stroke-linejoin:round;stroke-dasharray:none;stroke-opacity:1"
             d="M 119.39876,-60.787326 H 217.6305"
             id="path10"
             sodipodi:nodetypes="cc" /><g
             id="g3"
             transform="matrix(0.5,0,0,0.5,96.894027,113.21768)"
             style="fill:#000000"><path
               id="path1"
               d="m 161.97613,166.40669 h 0.50436 c 0.54343,0 0.6108,0.12236 0.6108,1.03357 v 3.31856 c 0,0.62569 -0.0674,0.85695 -0.76087,0.85695 h -0.43488 v 0.6668 h 3.80774 v -0.6668 h -0.19083 c -0.69241,0 -0.76087,-0.23126 -0.76087,-0.85695 v -2.23035 c 0,-1.27901 0.67969,-1.98527 1.67215,-1.98527 0.73519,0 1.19744,0.43488 1.19744,1.40037 v 2.81525 c 0,0.62569 -0.0675,0.85695 -0.76154,0.85695 h -0.19083 v 0.6668 h 3.72715 v -0.6668 h -0.35362 c -0.69418,0 -0.76155,-0.23126 -0.76155,-0.85695 v -3.20902 c 0,-1.46978 -1.03465,-2.06753 -2.36692,-2.06753 -1.10203,0 -1.87671,0.46217 -2.33888,1.56323 h -0.0274 v -1.50992 c -0.66681,0.0822 -1.87739,0.16379 -2.57148,0.16379 z m -1.07407,2.69318 v -0.31317 c 0,-2.28468 -0.91119,-3.30443 -3.10043,-3.30443 -2.28464,0 -3.26498,1.49581 -3.26498,3.50905 0,2.01258 0.98034,3.50837 3.26498,3.50837 2.27151,0 2.95179,-1.16946 2.96493,-2.33957 h -1.38759 c -0.0131,1.02044 -0.42108,1.55104 -1.41447,1.55104 -1.67283,0 -1.68596,-1.68691 -1.68596,-2.61129 z m -4.62352,-0.78853 c 0,-1.14314 0.33946,-2.08167 1.50996,-2.08167 1.16939,0 1.45463,0.9665 1.45463,2.08167 z m -5.1828,-0.46317 c 0,1.1836 -0.33946,1.75435 -1.07406,1.75435 -0.72046,0 -1.18262,-0.51581 -1.18262,-1.74021 0,-1.18361 0.40793,-1.63264 1.16948,-1.63264 0.65232,0 1.0872,0.38099 1.0872,1.6185 m 0.5714,5.5759 c 0,0.62602 -0.42107,1.27966 -1.71292,1.27966 -1.14312,0 -1.59215,-0.54509 -1.59215,-1.21123 0,-0.72043 0.40953,-1.31849 1.63266,-1.31849 1.18329,0 1.67241,0.55694 1.67241,1.25006 m 1.97212,-7.83325 -2.01221,0.17668 c -0.38098,-0.10855 -1.00661,-0.28523 -1.57741,-0.28523 -1.78231,0 -2.95238,1.01975 -2.95238,2.33958 0,1.2369 0.77628,1.84877 1.79611,2.17609 v 0.0263 c -0.93856,0.0822 -1.33294,0.42206 -1.33294,0.85695 0,0.46218 0.31311,0.69411 1.22439,0.87109 v 0.0263 c -0.95238,0.0954 -2.08068,0.59871 -2.08068,1.70073 0,1.10104 0.93748,1.97213 3.08729,1.97213 2.28465,0 3.53532,-0.74773 3.53532,-2.01258 0,-1.60534 -1.27804,-1.79614 -2.55666,-1.89055 -1.49683,-0.10856 -1.74189,-0.24507 -1.74189,-0.62602 0,-0.44903 0.61291,-0.51712 1.06194,-0.58555 l 0.32633,-0.0533 c 1.90467,-0.31349 2.50175,-1.33328 2.50175,-2.42116 0,-0.58489 -0.25828,-1.11514 -0.59708,-1.37343 v -0.0273 h 1.31812 z m -16.06183,0.81587 h 0.50327 c 0.5441,0 0.61156,0.12236 0.61156,1.03357 v 3.31856 c 0,0.62569 -0.0675,0.85695 -0.76121,0.85695 h -0.43522 v 0.6668 h 3.80808 v -0.6668 h -0.19049 c -0.69283,0 -0.76121,-0.23126 -0.76121,-0.85695 v -2.23035 c 0,-1.27901 0.6796,-1.98527 1.6724,-1.98527 0.7346,0 1.19644,0.43488 1.19644,1.40037 v 2.81525 c 0,0.62569 -0.0668,0.85695 -0.76088,0.85695 h -0.19049 v 0.6668 h 3.72715 v -0.6668 h -0.35463 c -0.69308,0 -0.76054,-0.23126 -0.76054,-0.85695 v -3.20902 c 0,-1.46978 -1.03457,-2.06753 -2.36683,-2.06753 -1.10237,0 -1.87714,0.46217 -2.33931,1.56323 h -0.0273 v -1.50992 c -0.66681,0.0822 -1.87705,0.16379 -2.57081,0.16379 z m -3.68504,-3.03238 c 0,0.58385 0.3526,1.01975 0.99179,1.01975 0.6402,0 0.9928,-0.4359 0.9928,-1.01975 0,-0.58555 -0.3526,-1.02043 -0.9928,-1.02043 -0.63919,0 -0.99179,0.43488 -0.99179,1.02043 m -0.92568,3.03238 h 0.5036 c 0.54411,0 0.6119,0.12236 0.6119,1.03357 v 3.31856 c 0,0.62569 -0.0678,0.85695 -0.76189,0.85695 h -0.43555 v 0.6668 h 3.97187 v -0.6668 h -0.35395 c -0.69317,0 -0.76121,-0.23126 -0.76121,-0.85695 v -5.22324 c -0.87078,0.0822 -2.08102,0.16379 -2.77477,0.16379 z m -9.13892,0 h 0.50301 c 0.54377,0 0.61215,0.12236 0.61215,1.03357 v 3.31856 c 0,0.62569 -0.0684,0.85695 -0.76155,0.85695 h -0.43556 v 0.6668 h 3.80809 v -0.6668 h -0.18982 c -0.6941,0 -0.76248,-0.23126 -0.76248,-0.85695 v -2.23035 c 0,-1.27901 0.68062,-1.98527 1.67342,-1.98527 0.73418,0 1.19677,0.43488 1.19677,1.40037 v 2.81525 c 0,0.62569 -0.0681,0.85695 -0.76155,0.85695 h -0.19117 v 0.6668 h 3.72749 v -0.6668 h -0.35361 c -0.69418,0 -0.76223,-0.23126 -0.76223,-0.85695 v -3.20902 c 0,-1.46978 -1.03364,-2.06753 -2.36658,-2.06753 -1.10136,0 -1.87705,0.46217 -2.33922,1.56323 h -0.0273 v -1.50992 c -0.66588,0.0822 -1.87704,0.16379 -2.56987,0.16379 z m -7.43948,2.58463 c 0,2.01258 0.97865,3.50837 3.26397,3.50837 2.28464,0 3.26431,-1.49579 3.26431,-3.50837 0,-2.01324 -0.97967,-3.50905 -3.26431,-3.50905 -2.28532,0 -3.26397,1.49581 -3.26397,3.50905 m 1.74053,0 c 0,-1.85042 0.4076,-2.72055 1.52344,-2.72055 1.11516,0 1.52276,0.87013 1.52276,2.72055 0,1.84974 -0.4076,2.71984 -1.52276,2.71984 -1.11584,0 -1.52344,-0.8701 -1.52344,-2.71984 m -8.476,-2.58463 h 0.58423 c 0.54409,0 0.61222,0.12236 0.61222,1.03357 v 3.31856 c 0,0.62569 -0.0681,0.85695 -0.7609,0.85695 h -0.43555 v 0.6668 h 4.33831 v -0.6668 h -0.72071 c -0.69375,0 -0.76188,-0.23126 -0.76188,-0.85695 v -2.23035 c 0,-1.14249 0.62537,-1.98527 1.25134,-1.98527 0.53029,0 0.68028,0.38056 0.69417,1.0599 h 1.30499 v -1.95737 c -0.31252,-0.11015 -0.69283,-0.16346 -1.08788,-0.16346 -1.10169,0 -1.87646,0.46217 -2.33964,1.56323 h -0.0269 v -1.50992 c -0.66613,0.0822 -1.87705,0.16379 -2.65175,0.16379 z m -3.16922,1.44148 c 0,1.1836 -0.34015,1.75435 -1.07438,1.75435 -0.72076,0 -1.18328,-0.51581 -1.18328,-1.74021 0,-1.18361 0.40857,-1.63264 1.16946,-1.63264 0.65331,0 1.0882,0.38099 1.0882,1.6185 m 0.57108,5.5759 c 0,0.62602 -0.42107,1.27966 -1.71389,1.27966 -1.14182,0 -1.59053,-0.54509 -1.59053,-1.21123 0,-0.72043 0.40758,-1.31849 1.63231,-1.31849 1.18294,0 1.67211,0.55694 1.67211,1.25006 m 1.97212,-7.83325 -2.01225,0.17668 c -0.38094,-0.10855 -1.00663,-0.28523 -1.57836,-0.28523 -1.78133,0 -2.95079,1.01975 -2.95079,2.33958 0,1.2369 0.7747,1.84877 1.79547,2.17609 v 0.0263 c -0.93918,0.0822 -1.33328,0.42206 -1.33328,0.85695 0,0.46218 0.31251,0.69411 1.22374,0.87109 v 0.0263 c -0.95201,0.0954 -2.08002,0.59871 -2.08002,1.70073 0,1.10104 0.93819,1.97213 3.0873,1.97213 2.28464,0 3.53601,-0.74773 3.53601,-2.01258 0,-1.60534 -1.279,-1.79614 -2.55735,-1.89055 -1.49578,-0.10856 -1.74086,-0.24507 -1.74086,-0.62602 0,-0.44903 0.61186,-0.51712 1.0609,-0.58555 l 0.32633,-0.0533 c 1.9037,-0.31349 2.50241,-1.33328 2.50241,-2.42116 0,-0.58489 -0.25824,-1.11514 -0.59871,-1.37343 v -0.0273 h 1.31946 v -0.87078"
               style="fill:#000000;fill-opacity:1;fill-rule:nonzero;stroke:none;stroke-width:0.0842142" /><path
               id="path2"
               d="m 180.76086,152.88796 h 1.19643 v 4.26991 c 0,0.62571 -0.0675,0.85764 -0.76155,0.85764 h -0.43488 v 0.66613 h 4.33863 v -0.66613 h -0.72104 c -0.6941,0 -0.76155,-0.23193 -0.76155,-0.85764 v -4.26991 h 1.7813 v -0.78951 h -1.7813 v -1.34541 c 0,-0.81586 0.32667,-1.21159 0.88425,-1.21159 0.50233,0 0.67893,0.30031 0.67893,1.19745 h 1.14254 v -1.7952 c -0.54344,-0.10948 -1.14254,-0.19074 -1.80867,-0.19074 -2.47447,0 -2.55666,1.49674 -2.55666,3.34549 h -1.19643 z m -7.35821,2.50242 c 0,2.01264 0.97865,3.50836 3.26489,3.50836 2.28465,0 3.2633,-1.49572 3.2633,-3.50836 0,-2.01221 -0.97865,-3.50903 -3.2633,-3.50903 -2.28624,0 -3.26489,1.49682 -3.26489,3.50903 m 1.74121,0 c 0,-1.85044 0.40692,-2.71953 1.52368,-2.71953 1.11525,0 1.52251,0.86909 1.52251,2.71953 0,1.84977 -0.40726,2.72054 -1.52251,2.72054 -1.11676,0 -1.52368,-0.87077 -1.52368,-2.72054 m -8.40601,3.1278 -0.65232,1.66028 c -0.1766,0.47531 -0.35328,0.76088 -0.87078,0.76088 h -0.61181 v 0.66613 h 3.64487 v -0.66613 h -0.44802 c -0.53063,0 -0.68028,-0.12178 -0.68028,-0.40794 0,-0.21811 0.13651,-0.53063 0.2171,-0.72137 l 2.66623,-6.37864 c 0.19015,-0.44903 0.31251,-0.66613 0.59867,-0.66613 h 0.29837 v -0.66681 h -2.88298 v 0.66681 h 0.57139 c 0.23125,0 0.32566,0.0405 0.32566,0.23125 0,0.12236 -0.0675,0.28523 -0.14965,0.47606 l -1.23694,3.1689 -1.11516,-3.01925 c -0.0816,-0.2171 -0.17761,-0.40793 -0.17761,-0.61249 0,-0.19015 0.13651,-0.24447 0.36844,-0.24447 h 0.50233 v -0.66681 h -3.37252 v 0.66681 h 0.20396 c 0.32633,0 0.49013,0.20396 0.76155,0.85696 z m -9.11121,-5.63022 h 1.19643 v 3.90316 c 0,1.68655 0.76155,2.13558 2.13558,2.13558 1.31855,0 2.08001,-0.65299 2.08001,-2.10864 v -0.29929 h -1.14144 v 0.69409 c 0,0.58487 -0.21879,0.84307 -0.70731,0.84307 -0.49013,0 -0.70723,-0.2582 -0.70723,-0.84307 v -4.3249 h 2.17609 v -0.78951 h -2.17609 v -1.91714 h -1.18431 c -0.10855,1.37337 -0.40726,1.76816 -1.67173,1.91714 z m -3.60479,-3.11458 c 0,0.58487 0.35361,1.01975 0.99347,1.01975 0.63818,0 0.99247,-0.43488 0.99247,-1.01975 0,-0.58554 -0.35429,-1.02042 -0.99247,-1.02042 -0.63986,0 -0.99347,0.43488 -0.99347,1.02042 m -0.92434,3.03238 h 0.50226 c 0.54377,0 0.61291,0.12338 0.61291,1.03458 v 3.31753 c 0,0.62571 -0.0691,0.85764 -0.76155,0.85764 h -0.43589 v 0.66613 h 3.97221 v -0.66613 h -0.35361 c -0.6941,0 -0.76223,-0.23193 -0.76223,-0.85764 v -5.22153 c -0.8701,0.0815 -2.08169,0.16211 -2.7741,0.16211 z m -6.51514,5.65878 c 0.3948,0.16219 1.38659,0.4342 2.50343,0.4342 1.42668,0 2.93697,-0.61089 2.93697,-2.20304 0,-1.03289 -0.51749,-1.42768 -1.68689,-1.80858 l -1.11525,-0.36751 c -0.62495,-0.20397 -0.97865,-0.57072 -0.97865,-1.08822 0,-0.54343 0.39479,-0.80264 1.01983,-0.80264 0.97865,0 1.23787,0.43589 1.23787,1.4836 h 1.14211 v -1.86358 c -0.39471,-0.1766 -1.30591,-0.36742 -2.33888,-0.36742 -1.60529,0 -2.72054,0.7474 -2.72054,1.98593 0,1.06093 0.76155,1.63165 2.33989,2.10797 1.25075,0.38065 1.44158,0.68003 1.44158,1.18262 0,0.62571 -0.57241,0.99347 -1.44158,0.99347 -0.93949,0 -1.19668,-0.62596 -1.19668,-1.59148 h -1.14321 z m -7.06111,-5.65878 h 0.58521 c 0.54411,0 0.61156,0.12338 0.61156,1.03458 v 3.31753 c 0,0.62571 -0.0675,0.85764 -0.76121,0.85764 h -0.43556 v 0.66613 h 4.33863 v -0.66613 h -0.7207 c -0.69317,0 -0.76121,-0.23193 -0.76121,-0.85764 v -2.22966 c 0,-1.14312 0.62529,-1.98593 1.25134,-1.98593 0.52962,0 0.67994,0.38056 0.69308,1.06084 h 1.30599 v -1.95823 c -0.31344,-0.10855 -0.69409,-0.16354 -1.08821,-0.16354 -1.10237,0 -1.87705,0.46216 -2.33922,1.56419 h -0.0269 v -1.5092 c -0.66714,0.0815 -1.87705,0.16211 -2.65275,0.16211 z m -0.99313,2.69317 v -0.31319 c 0,-2.28456 -0.91129,-3.30439 -3.10052,-3.30439 -2.28498,0 -3.26422,1.49682 -3.26422,3.50903 0,2.01264 0.97924,3.50836 3.26422,3.50836 2.27118,0 2.95179,-1.16847 2.96527,-2.33888 h -1.38718 c -0.0142,1.01975 -0.42208,1.55106 -1.41454,1.55106 -1.67376,0 -1.68698,-1.68664 -1.68698,-2.61199 z m -4.62395,-0.78849 c 0,-1.14245 0.34022,-2.08169 1.50996,-2.08169 1.16948,0 1.4553,0.96652 1.4553,2.08169 z m -5.03272,-1.94518 h 0.57072 c 0.31251,0 0.39445,0.0823 0.39445,0.17702 0,0.10855 -0.0274,0.24405 -0.0675,0.33946 l -1.41488,4.03967 h -0.0266 l -1.30667,-3.83469 c -0.0401,-0.13651 -0.12203,-0.30039 -0.12203,-0.47699 0,-0.14906 0.1355,-0.24447 0.54411,-0.24447 h 0.44903 v -0.66681 h -3.40082 v 0.66681 h 0.1638 c 0.2987,0 0.38031,0.0823 0.55732,0.53063 l 2.10864,5.46735 h 1.60428 l 2.10805,-5.53573 c 0.13651,-0.3537 0.25854,-0.46225 0.54377,-0.46225 h 0.17694 v -0.66681 h -2.88265 z m -7.56319,-2.99188 c 0,0.58487 0.35361,1.01975 0.99246,1.01975 0.63952,0 0.99314,-0.43488 0.99314,-1.01975 0,-0.58554 -0.35362,-1.02042 -0.99314,-1.02042 -0.63885,0 -0.99246,0.43488 -0.99246,1.02042 m -0.92468,3.03238 h 0.50259 c 0.54411,0 0.61258,0.12338 0.61258,1.03458 v 3.31753 c 0,0.62571 -0.0685,0.85764 -0.76155,0.85764 h -0.43556 v 0.66613 h 3.97188 v -0.66613 h -0.35361 c -0.6941,0 -0.76256,-0.23193 -0.76256,-0.85764 v -5.22153 c -0.86943,0.0815 -2.08068,0.16211 -2.77377,0.16211 z m -9.13993,0 h 0.50369 c 0.5441,0 0.61156,0.12338 0.61156,1.03458 v 3.31753 c 0,0.62571 -0.0675,0.85764 -0.76155,0.85764 h -0.43555 v 0.66613 h 3.80867 v -0.66613 h -0.19041 c -0.69351,0 -0.76155,-0.23193 -0.76155,-0.85764 v -2.22966 c 0,-1.27963 0.67961,-1.98593 1.67274,-1.98593 0.73393,0 1.19677,0.43589 1.19677,1.40039 v 2.8152 c 0,0.62571 -0.0678,0.85764 -0.76155,0.85764 h -0.19015 v 0.66613 h 3.72614 v -0.66613 h -0.35328 c -0.69409,0 -0.76155,-0.23193 -0.76155,-0.85764 v -3.20898 c 0,-1.46878 -1.03423,-2.06754 -2.36625,-2.06754 -1.10236,0 -1.87705,0.46216 -2.33955,1.56419 h -0.0269 v -1.5092 c -0.66681,0.0815 -1.87705,0.16211 -2.57123,0.16211 z m -3.29089,5.87588 h 2.57019 v -0.66613 h -0.35365 c -0.69346,0 -0.76155,-0.23193 -0.76155,-0.85764 v -5.22153 c -0.87043,0.0815 -2.08068,0.16211 -2.77479,0.16211 v 0.70731 h 0.50364 c 0.5441,0 0.6122,0.12338 0.6122,1.03458 v 1.86256 c 0,1.40141 -0.50365,2.13592 -1.65994,2.13592 -0.7747,0 -1.21025,-0.39471 -1.21025,-1.19735 v -4.70513 c -0.87044,0.0815 -2.08069,0.16211 -2.77479,0.16211 v 0.70731 h 0.50397 c 0.54377,0 0.6122,0.12338 0.6122,1.03458 v 3.1827 c 0,1.26481 0.81582,1.8757 2.16259,1.8757 1.37308,0 2.2297,-0.59766 2.5432,-1.50895 h 0.027 v 1.29185"
               style="fill:#000000;fill-opacity:1;fill-rule:nonzero;stroke:none;stroke-width:0.0842142" /><path
               id="path3"
               d="m 160.1011,112.36385 -24.15203,29.80988 -1.91882,-0.003 24.14866,-29.8055 1.92219,-0.002"
               style="fill:#000000;fill-opacity:1;fill-rule:nonzero;stroke:none;stroke-width:0.0842142" /><path
               id="path4"
               d="m 113.49378,106.5593 c -0.17533,0.0274 -0.42267,0.0971 -0.56744,-0.21609 -0.13095,-0.28389 0.36019,-0.74345 0.52272,-0.89251 0.21054,-0.19242 -0.0628,-0.39866 -0.22367,-0.17432 -0.0451,0.0625 -0.43,0.60693 -0.73199,0.60693 -0.4684,0 -0.44111,-0.55 -0.44111,-0.55 0,0 -0.52339,-0.33231 -0.52339,-1.39248 0,-0.94084 0.62242,-1.39156 0.62242,-1.39156 0,0 0.004,-0.53686 0.42402,-0.52305 0.41812,0.0132 0.68946,0.59051 0.71616,0.63001 0.21154,0.31841 0.478,0.047 0.29239,-0.1793 -0.43876,-0.53526 -0.53122,-0.95726 -0.0516,-1.18262 0.1744,-0.39707 0.70074,-0.67666 1.27542,-0.72205 l 0.019,-6.7e-4 0.0188,-0.002 c 0.57434,0.0477 1.10068,0.32734 1.27509,0.72441 0.47993,0.22536 0.38713,0.64736 -0.0514,1.18262 -0.18553,0.22629 0.0806,0.49771 0.29281,0.1793 0.0263,-0.0395 0.29702,-0.61679 0.71675,-0.63001 0.41846,-0.0138 0.42343,0.52305 0.42343,0.52305 0,0 0.62175,0.45072 0.62175,1.39156 0,1.06017 -0.52305,1.39248 -0.52305,1.39248 0,0 0.0273,0.55 -0.4412,0.55 -0.30166,0 -0.68618,-0.54444 -0.73191,-0.60693 -0.15984,-0.22434 -0.43454,-0.0181 -0.22401,0.17432 0.16254,0.14906 0.65426,0.60862 0.52306,0.89251 -0.14409,0.31319 -0.39185,0.24346 -0.56744,0.21609 0,0 -0.16093,0.27968 -0.40431,0.2806 1.2158,0.90859 3.1251,0.39379 3.38103,-0.27134 0,0 -0.32338,0.0641 -0.3201,-0.2747 0.002,-0.20498 0.21121,-0.31682 0.4935,-0.35791 -0.0589,-0.12893 -0.0885,-0.28524 -0.0783,-0.45459 0.028,-0.4764 0.35631,-0.87675 0.73527,-0.89318 0.37795,-0.0164 0.66218,0.35598 0.63422,0.83297 -0.0135,0.2395 -0.1046,0.46056 -0.23951,0.62268 0.27732,0.0944 0.47236,0.23689 0.44676,0.40296 -0.0675,0.43657 -0.47278,0.32902 -0.47278,0.32902 -0.0487,1.00005 1.47577,1.19079 1.8656,0.93327 -0.15428,-0.57738 0.076,-0.75069 0.25197,-0.90632 0.12531,-0.11023 0.49838,-0.34047 0.54966,-0.37399 0.11647,-0.0757 0.17702,-0.23791 0.10367,-0.29711 -0.0685,-0.0566 -0.22073,0.0405 -0.29315,0.1211 -0.10291,0.11672 -0.28389,0.39042 -0.56743,0.3158 -0.34309,-0.0898 -0.19471,-0.48296 -0.25298,-0.69409 -0.36516,-1.33328 -0.053,-2.26267 1.27997,-2.82092 0,0 0.5073,-0.53384 0.96189,-0.29273 0.43556,0.23024 0.16515,0.94244 0.16515,0.94244 l 0.13457,0.0626 c 0.48684,-0.88332 1.19079,-1.52411 2.20077,-1.54945 0.71548,-0.0174 1.06084,0.40464 1.0888,0.98193 0.0622,1.28688 -1.25327,0.80762 -1.15036,0.32633 0,0 -0.31842,0.0329 -0.49341,0.31252 0,-0.0806 0.0102,-0.84441 -0.67212,-0.44078 -0.19436,0.11513 -0.53813,0.69342 -0.56314,0.76644 -0.0852,0.25264 0.0378,0.29281 -0.0947,0.54048 -0.10367,0.19412 -0.24835,0.2385 -0.31058,0.37408 -0.0632,0.13483 0.027,0.40069 -0.0592,0.57173 -0.10426,0.20953 -0.24801,0.22536 -0.34242,0.4151 -0.0754,0.14973 -1.02733,2.57745 -1.02733,2.57745 0,0 0.37897,0.24279 0.30654,0.60365 -0.096,0.48289 -0.4033,0.37829 -0.56709,0.69578 -5.17227,-1.33067 -10.52576,-1.33791 -16.05861,-0.0221 -0.16612,-0.29045 -0.46054,-0.20228 -0.55496,-0.67371 -0.0727,-0.36086 0.3066,-0.60365 0.3066,-0.60365 0,0 -0.95268,-2.42772 -1.02768,-2.57745 -0.0941,-0.18974 -0.23784,-0.20557 -0.34245,-0.4151 -0.0859,-0.17104 0.004,-0.4369 -0.0592,-0.57173 -0.0622,-0.13558 -0.20691,-0.17996 -0.30954,-0.37408 -0.13258,-0.24767 -0.0102,-0.28784 -0.0954,-0.54048 -0.0243,-0.073 -0.36876,-0.65131 -0.56351,-0.76644 -0.68128,-0.40363 -0.67108,0.36019 -0.67173,0.44078 -0.17435,-0.27959 -0.49345,-0.31252 -0.49345,-0.31252 0.10264,0.48129 -1.21288,0.96055 -1.15071,-0.32633 0.028,-0.57729 0.37305,-0.99937 1.08886,-0.98193 1.0109,0.0253 1.7139,0.66613 2.20076,1.54945 l 0.1352,-0.0626 c 0,0 -0.27007,-0.7122 0.16547,-0.94244 0.45397,-0.24111 0.9609,0.29273 0.9609,0.29273 1.33295,0.55825 1.64547,1.48764 1.27966,2.82092 -0.0579,0.21113 0.0905,0.60424 -0.25232,0.69409 -0.28389,0.0746 -0.46383,-0.19908 -0.56746,-0.3158 -0.0717,-0.0806 -0.22434,-0.17769 -0.2931,-0.1211 -0.0724,0.0592 -0.0128,0.2214 0.10329,0.29711 0.0516,0.0335 0.42437,0.26376 0.55003,0.37399 0.17599,0.15563 0.40561,0.32894 0.25297,0.90632 0.38883,0.25752 1.91324,0.0668 1.86488,-0.93327 0,0 -0.40561,0.10755 -0.47305,-0.32902 -0.0253,-0.16607 0.16943,-0.30856 0.44608,-0.40296 -0.13454,-0.16212 -0.22435,-0.38318 -0.23883,-0.62268 -0.028,-0.47699 0.2556,-0.84939 0.6349,-0.83297 0.3783,0.0164 0.70723,0.41678 0.73519,0.89318 0.009,0.16935 -0.0204,0.32566 -0.0796,0.45459 0.28229,0.0411 0.49215,0.15293 0.49409,0.35791 0.003,0.33879 -0.32036,0.2747 -0.32036,0.2747 0.25627,0.66513 2.16524,1.17993 3.38205,0.27134 -0.24414,-9.2e-4 -0.40499,-0.2806 -0.40499,-0.2806 m 0.43884,-2.4892 c 0,0.49341 0.40002,0.89477 0.89343,0.89477 0.4945,0 0.89452,-0.40136 0.89452,-0.89477 0,-0.4935 -0.40002,-0.89318 -0.89452,-0.89318 -0.49341,0 -0.89343,0.39968 -0.89343,0.89318 m 4.9331,3.87747 c 0.38494,-0.0115 1.1379,0.14637 1.1379,0.14637 0,0 -0.3201,-0.35859 -0.4668,-0.60104 0,0 -0.1707,0.15958 -0.27437,0.23428 -0.0809,0.0592 -0.39673,0.22039 -0.39673,0.22039 m -4.039,-0.78462 c -0.15066,0.16784 -0.44179,0.45501 -0.7586,0.56356 0,0 0.52112,-0.0131 0.74681,-0.0165 h 0.023 c 0.22536,0.003 0.74774,0.0165 0.74774,0.0165 -0.31749,-0.10855 -0.60887,-0.39572 -0.75894,-0.56356 m -4.03958,0.78462 c 0,0 -0.31581,-0.16119 -0.39674,-0.22039 -0.10366,-0.0747 -0.27471,-0.23428 -0.27471,-0.23428 -0.14639,0.24245 -0.46614,0.60104 -0.46614,0.60104 0,0 0.75264,-0.15791 1.13759,-0.14637 m 11.8347,2.41459 c 0.24734,0.0668 0.59607,0.31083 0.50031,0.66874 -0.0963,0.35926 -0.51977,0.3964 -0.76811,0.32962 -0.24835,-0.0664 -0.59641,-0.31084 -0.50032,-0.66841 0.096,-0.35858 0.51977,-0.3964 0.76812,-0.32995 m -3.24983,-0.0961 -0.75363,0.63329 -0.63262,-0.75498 0.75364,-0.63262 z m -11.98605,1.09445 c -0.24836,0.0668 -0.67207,0.0296 -0.76812,-0.32962 -0.0961,-0.35791 0.25231,-0.60196 0.50035,-0.66874 0.24836,-0.0665 0.67174,-0.0286 0.76747,0.32995 0.0964,0.35757 -0.25166,0.60196 -0.4997,0.66841 m 6.69833,-1.33294 c 0,-0.28389 0.35202,-0.5148 0.78521,-0.5148 0.43387,0 0.78589,0.23091 0.78589,0.5148 0,0.28456 -0.35202,0.5148 -0.78589,0.5148 -0.43319,0 -0.78521,-0.23024 -0.78521,-0.5148 m -3.71629,0.23849 0.63228,-0.75431 0.75364,0.63262 -0.63228,0.75498 z m -6.44863,22.75661 c 0.0859,-0.34284 0.45067,-0.26553 0.45067,-0.26553 0,0 -0.0868,-0.3158 0.23488,-0.46149 0.35726,-0.15959 0.53489,0.23453 0.53489,0.23453 l 0.14968,1.01487 -1.08196,-0.0362 c 0,0 -0.38324,-0.10628 -0.28816,-0.48617 m 1.53296,-1.68008 c 0.0849,-0.3414 0.45034,-0.26477 0.45034,-0.26477 0,0 -0.0868,-0.3158 0.23521,-0.46056 0.35693,-0.16119 0.53358,0.2326 0.53358,0.2326 l 0.15033,1.01579 -1.08163,-0.0361 c 0,0 -0.38323,-0.10695 -0.28783,-0.48693 m 1.53164,-1.68032 c 0.0862,-0.34107 0.45068,-0.26477 0.45068,-0.26477 0,0 -0.0865,-0.3158 0.23488,-0.46057 0.35692,-0.16017 0.53456,0.23353 0.53456,0.23353 l 0.15001,1.01486 -1.08229,-0.0361 c 0,0 -0.38291,-0.10696 -0.28784,-0.48693 m 7.85202,-15.55562 c 0.0858,-0.34309 0.45063,-0.26646 0.45063,-0.26646 0,0 -0.0868,-0.3158 0.23521,-0.46048 0.3569,-0.15958 0.53358,0.2342 0.53358,0.2342 l 0.15099,1.01487 -1.08223,-0.0362 c 0,0 -0.38326,-0.10695 -0.28818,-0.48591 m 1.49774,5.72892 c 0.0858,-0.34216 0.4503,-0.26578 0.4503,-0.26578 0,0 -0.0865,-0.3158 0.23496,-0.45956 0.35689,-0.16127 0.53383,0.23252 0.53383,0.23252 l 0.15066,1.01486 -1.0819,-0.0352 c 0,0 -0.3836,-0.10687 -0.28785,-0.48684 m 1.79772,-1.90408 c 0.0859,-0.34275 0.45038,-0.26477 0.45038,-0.26477 0,0 -0.0858,-0.31749 0.23589,-0.46124 0.35723,-0.16051 0.53425,0.23361 0.53425,0.23361 l 0.14931,1.01545 -1.08097,-0.0361 c 0,0 -0.38326,-0.10695 -0.28886,-0.48692 m 1.79882,-1.90366 c 0.0858,-0.34217 0.45063,-0.26578 0.45063,-0.26578 0,0 -0.0868,-0.31581 0.23555,-0.46057 0.35631,-0.16018 0.53391,0.23352 0.53391,0.23352 l 0.14999,1.01588 -1.08123,-0.0362 c 0,0 -0.38427,-0.10687 -0.28885,-0.48684 m 1.79873,-1.904 c 0.0859,-0.34216 0.45071,-0.26553 0.45071,-0.26553 0,0 -0.0868,-0.3158 0.23488,-0.46048 0.35723,-0.16127 0.53484,0.2342 0.53484,0.2342 l 0.14973,1.01419 -1.08198,-0.0362 c 0,0 -0.38326,-0.10687 -0.28818,-0.48617 m -18.82777,12.81731 c 0.0859,-0.34216 0.45068,-0.26578 0.45068,-0.26578 0,0 -0.0868,-0.31648 0.23487,-0.46057 0.35726,-0.16026 0.5349,0.23353 0.5349,0.23353 l 0.14967,1.01587 -1.08195,-0.0362 c 0,0 -0.38324,-0.10687 -0.28817,-0.48684 m 4.17617,10.19118 c 0.0859,-0.34141 0.45067,-0.26477 0.45067,-0.26477 0,0 -0.0868,-0.3158 0.23489,-0.46057 0.35725,-0.16118 0.53488,0.23361 0.53488,0.23361 l 0.14968,1.01478 -1.08195,-0.0361 c 0,0 -0.38325,-0.10695 -0.28817,-0.48692 m 1.77803,-1.93356 c 0.0855,-0.34216 0.45035,-0.26485 0.45035,-0.26485 0,0 -0.0862,-0.31581 0.23587,-0.46124 0.35626,-0.16052 0.5339,0.23428 0.5339,0.23428 l 0.15001,1.01478 -1.0813,-0.0361 c 0,0 -0.38423,-0.10695 -0.28883,-0.48684 m 1.77835,-1.93339 c 0.0862,-0.34208 0.45072,-0.26578 0.45072,-0.26578 0,0 -0.0868,-0.3158 0.23487,-0.46057 0.3569,-0.16017 0.53392,0.23361 0.53392,0.23361 l 0.15066,1.0158 -1.08232,-0.0361 c 0,0 -0.38293,-0.10695 -0.28785,-0.48693 m 1.77776,-1.93356 c 0.0858,-0.34283 0.45063,-0.26653 0.45063,-0.26653 0,0 -0.0868,-0.31581 0.23488,-0.45956 0.35723,-0.16051 0.53493,0.23361 0.53493,0.23361 l 0.14964,1.01545 -1.08198,-0.0361 c 0,0 -0.38317,-0.10696 -0.2881,-0.48685 m 7.83125,-8.22081 c 0.0858,-0.34276 0.45029,-0.26646 0.45029,-0.26646 0,0 -0.0868,-0.3158 0.23588,-0.45955 0.35632,-0.16119 0.53392,0.23361 0.53392,0.23361 l 0.14999,1.01545 -1.08131,-0.0361 c 0,0 -0.38419,-0.10762 -0.28877,-0.48692 m 1.60335,-1.74905 c 0.0858,-0.34216 0.45063,-0.26578 0.45063,-0.26578 0,0 -0.0868,-0.31647 0.23487,-0.46057 0.35699,-0.16025 0.53493,0.23353 0.53493,0.23353 l 0.14965,1.01588 -1.08223,-0.0362 c 0,0 -0.38293,-0.10686 -0.28785,-0.48684 m 1.60336,-1.74946 c 0.0858,-0.34208 0.45063,-0.26545 0.45063,-0.26545 0,0 -0.0868,-0.3158 0.23495,-0.46056 0.35724,-0.16052 0.53485,0.23428 0.53485,0.23428 l 0.14998,1.01478 -1.08223,-0.0361 c 0,0 -0.38326,-0.10695 -0.28818,-0.48692 m 1.60369,-1.74905 c 0.0858,-0.34216 0.45037,-0.26485 0.45037,-0.26485 0,0 -0.0866,-0.3158 0.23521,-0.46149 0.3569,-0.16018 0.53417,0.23453 0.53417,0.23453 l 0.15033,1.01487 -1.08224,-0.0362 c 0,0 -0.38326,-0.10686 -0.28784,-0.48684 m -12.4456,20.98508 c 0.0858,-0.34208 0.45063,-0.26477 0.45063,-0.26477 0,0 -0.0865,-0.3158 0.23521,-0.46124 0.35699,-0.16051 0.5346,0.23428 0.5346,0.23428 l 0.14998,1.01478 -1.0819,-0.0361 c 0,0 -0.38326,-0.10696 -0.28852,-0.48693 m 12.45444,-13.7835 c 0.0862,-0.34208 0.45071,-0.26545 0.45071,-0.26545 0,0 -0.0865,-0.3158 0.23488,-0.46056 0.35723,-0.16052 0.53492,0.23361 0.53492,0.23361 l 0.14965,1.01486 -1.08198,-0.0355 c 0,0 -0.38326,-0.10695 -0.28818,-0.48692 m -12.04659,1.38431 c 0,-0.0536 0.0852,-0.0444 0.24675,-0.0718 0.16152,-0.0269 0.30561,-0.0812 0.30561,-0.0269 0,0.0806 -0.11183,0.0171 -0.11183,0.14805 v 1.26321 c 0,0.0632 0.0852,0.0181 0.0852,0.0675 0,0.0632 -0.15268,0.0361 -0.26552,0.0361 -0.11706,0 -0.26545,0.027 -0.26545,-0.0223 0,-0.0856 0.10359,0 0.10359,-0.0813 v -1.20005 c 0,-0.12666 -0.0984,-0.009 -0.0984,-0.11251 m -1.37176,0.54604 c 0,-0.0355 0.0445,-0.0394 0.12573,-0.0806 0.0812,-0.0394 0.1302,-0.0848 0.20262,-0.0223 0.0714,0.0635 0.4625,0.51253 0.4625,0.51253 v -0.63817 c 0,-0.0717 -0.12564,0.022 -0.12564,-0.0494 0,-0.0536 0.0539,-0.0536 0.14341,-0.0899 0.0898,-0.0362 0.22039,-0.13483 0.22039,-0.0723 0,0.0766 -0.0941,0.0537 -0.0941,0.15293 v 1.2313 c 0,0.10367 -0.01,0.10367 -0.054,0.10367 -0.0273,0 -0.64937,-0.78395 -0.64937,-0.78395 v 0.83658 c 0,0.0756 0.15066,-0.0296 0.15066,0.0418 0,0.0404 -0.0901,0.0635 -0.18022,0.0996 -0.0901,0.0352 -0.21551,0.0938 -0.21551,0.0484 0,-0.0757 0.11184,-0.0484 0.11184,-0.12506 v -1.08291 c 0,-0.0823 -0.0984,-0.0191 -0.0984,-0.0823 m -0.48684,0.77048 c 0,-0.52145 -0.33256,-0.32734 -0.33256,-0.32734 v 1.07238 c 0,0 0.33256,-0.007 0.33256,-0.74504 m -0.7773,-0.2155 c 0,-0.0378 0.16186,-0.0977 0.26974,-0.14805 0.19344,-0.0905 0.81814,-0.40954 0.81814,0.35959 0,0.70563 -0.4951,0.82303 -0.65173,0.89478 -0.15757,0.0723 -0.37038,0.17601 -0.38646,0.14148 -0.0277,-0.0559 0.0848,-0.0652 0.0848,-0.19083 v -0.87667 c 0,-0.22039 -0.13449,-0.10628 -0.13449,-0.1803 m 2.17702,-3.18498 c -0.004,-0.0329 0.12733,-0.0553 0.19378,-0.0734 0.11284,-0.0303 0.18426,-0.0516 0.23159,-0.005 0.0467,0.0487 0.27799,0.42039 0.27799,0.42039 0,0 0.29702,-0.42039 0.32068,-0.44835 0.0234,-0.028 0.0329,-0.068 0.15167,-0.0707 0.13618,-0.002 0.19774,-0.0164 0.19774,0.0125 0,0.051 -0.0852,0.0253 -0.0901,0.13482 -0.003,0.0839 0,1.08957 0,1.14548 0,0.12826 0.0878,0.0856 0.0878,0.12826 0,0.0421 -0.0569,0.0257 -0.25694,0.024 -0.16515,-0.003 -0.27639,0.0205 -0.27639,-0.0108 0,-0.0559 0.0876,-0.009 0.0876,-0.12404 v -0.76745 c 0,0 -0.28784,0.4204 -0.30233,0.4204 -0.0168,0 -0.3681,-0.5356 -0.3681,-0.5356 v 0.91785 c 0,0.14636 0.14569,0.0602 0.14569,0.11773 0,0.0286 -0.11116,0.0412 -0.1931,0.0616 -0.0941,0.023 -0.17668,0.0592 -0.18654,0.0328 -0.02,-0.0575 0.10199,-0.0263 0.10199,-0.19142 0,-0.14636 0.002,-0.9885 0,-1.0504 -0.005,-0.16186 -0.11807,-0.0911 -0.12304,-0.13878 m -0.41509,0.16017 c 0.049,-0.023 0.17761,-0.0927 0.19277,-0.0713 0.0227,0.0312 -0.0514,0.0378 -0.10266,0.25989 -0.0195,0.0812 -0.26123,1.35366 -0.35134,1.39804 -0.029,0.0155 -0.43884,-1.00165 -0.47666,-1.08325 -0.0675,-0.14375 -0.13886,-0.0467 -0.15268,-0.0977 -0.008,-0.0329 0.10401,-0.0757 0.19707,-0.11781 0.05,-0.0221 0.23125,-0.13222 0.2507,-0.11016 0.0378,0.0427 -0.0997,0.0444 -0.0339,0.2006 0.0438,0.10468 0.27345,0.6103 0.27345,0.6103 0,0 0.13482,-0.5708 0.17592,-0.76391 0.0402,-0.19242 -0.10754,-0.0963 -0.11251,-0.13912 -0.003,-0.0237 0.0714,-0.0559 0.13491,-0.0829 z m -1.57413,1.33564 v 0.69898 c 0,0 0.35993,-0.0746 0.35993,-0.51051 0,-0.37273 -0.35993,-0.18847 -0.35993,-0.18847 m -0.005,-0.61258 v 0.46285 c 0,0 0.26081,-0.0977 0.26081,-0.32238 0,-0.26973 -0.26081,-0.14047 -0.26081,-0.14047 m 0.0276,-0.12101 c 0.15225,-0.0583 0.55227,-0.13887 0.55227,0.20725 0,0.24767 -0.16152,0.30587 -0.16152,0.30587 0,0 0.29214,0.0536 0.29214,0.29609 0,0.279 -0.13458,0.47303 -0.28717,0.55363 -0.078,0.0412 -0.55758,0.27369 -0.60264,0.30098 -0.0451,0.0264 -0.15168,0.0845 -0.16385,0.0583 -0.0276,-0.0609 0.0786,-0.0493 0.0786,-0.22931 v -1.12106 c 0,-0.23849 -0.11219,-0.13323 -0.11219,-0.19571 0,-0.0386 0.24769,-0.1158 0.40433,-0.17601 m 2.4945,-3.15542 v 0.56583 c 0,0 0.26612,-0.0174 0.26612,-0.32338 0,-0.36355 -0.26612,-0.24245 -0.26612,-0.24245 m 0.70328,1.26321 c 0.0806,0.0105 0.1168,-0.0214 0.1168,-0.0214 0,0 -0.0266,0.20136 -0.23816,0.20136 -0.2875,0 -0.28287,-0.49417 -0.3638,-0.63818 -0.0809,-0.14384 -0.21652,-0.0675 -0.21652,-0.0675 v 0.50427 c 0,0.16119 0.10106,0.0911 0.10106,0.15032 0,0.0247 -0.0783,0.0378 -0.0783,0.0378 0,0 -0.2198,0.0635 -0.30064,0.0806 -0.0809,0.0181 -0.11613,0.0362 -0.11613,0 0,-0.0641 0.0799,-0.022 0.0799,-0.199 v -1.04114 c 0,-0.20228 -0.11613,-0.13491 -0.11874,-0.1915 -0.002,-0.0328 0.0809,-0.0494 0.16153,-0.0701 0.13583,-0.0328 0.18712,-0.0756 0.37989,-0.12068 0.18619,-0.0428 0.51286,0.0451 0.51286,0.30595 0,0.28785 -0.16245,0.34604 -0.25163,0.41349 0.33189,0.16119 0.18358,0.63818 0.33189,0.65561 m -2.18393,-0.73948 c 0.13483,-0.0445 0.37332,-0.14544 0.629,-0.28953 0.0349,-0.0197 0.13912,-0.0845 0.1888,0.009 0.0516,0.097 0.0901,0.22527 0.0589,0.2385 -0.0461,0.0187 -0.0763,-0.0191 -0.13457,-0.0493 -0.0513,-0.0274 -0.11706,-0.0586 -0.18022,-0.0412 -0.0632,0.0181 -0.14906,0.0559 -0.14906,0.0559 l 10e-4,0.44314 c 0,0 0.15655,0 0.175,-0.0855 0.0145,-0.0681 0.0421,-0.15697 0.0918,-0.17112 0.0286,-0.007 0.02,0.0839 0.0233,0.21053 0.002,0.0445 0.005,0.0685 0.005,0.0921 0.003,0.15622 -0.006,0.20827 -0.0286,0.21222 -0.0428,0.008 -0.079,-0.10526 -0.0895,-0.1323 -0.0184,-0.047 -0.17727,-0.004 -0.17727,0.0221 v 0.63657 c 0,0 0.12101,-0.0648 0.175,-0.0971 0.073,-0.0428 0.19706,-0.18485 0.24506,-0.26872 0.0471,-0.0839 0.0658,-0.15235 0.10956,-0.14477 0.028,0.005 -0.0312,0.27867 -0.0312,0.27867 0,0 -0.004,0.10787 -0.0944,0.15293 -0.0892,0.0454 -0.59219,0.2806 -0.63556,0.30098 -0.0862,0.0405 -0.18948,0.11512 -0.1915,0.074 -0.002,-0.0625 0.0833,-0.0286 0.0833,-0.21542 l -0.003,-1.06261 c 0,0 -0.003,-0.0894 -0.0713,-0.10198 -0.0523,-0.008 -0.10097,-0.0329 0,-0.0674 m -1.17571,0.48844 c 0.0723,-0.0253 0.27731,-0.11243 0.28851,-0.0878 0.0283,0.0632 -0.10627,0.0493 -0.0619,0.17769 0.0378,0.10755 0.2747,0.6701 0.2747,0.6701 l 0.20725,-0.80922 c 0.0444,-0.17508 -0.097,-0.1152 -0.10889,-0.1579 -0.008,-0.0296 0.10359,-0.0632 0.16675,-0.0895 0.0517,-0.0247 0.21811,-0.0964 0.22771,-0.075 0.0217,0.0569 -0.0635,0.0569 -0.10796,0.21483 -0.0539,0.18586 -0.36877,1.45235 -0.45661,1.5001 -0.0496,0.0269 -0.48356,-1.06522 -0.51707,-1.14977 -0.0339,-0.0855 -0.15036,-0.0536 -0.16154,-0.10359 -0.005,-0.0207 0.17661,-0.0652 0.24904,-0.0898 m 5.69498,3.50777 c -0.003,-0.0339 0.0487,-0.0207 0.12531,0.003 0.0763,0.023 0.16843,0.0451 0.23125,0.14805 0.0625,0.10258 0.53687,0.91289 0.53687,0.91289 l -0.003,-0.73031 c 0,-0.0971 -0.0858,-0.0997 -0.0858,-0.13988 0,-0.0378 0.0651,0 0.13415,0.0231 0.0685,0.023 0.16877,0.0335 0.16877,0.0658 0,0.0312 -0.0885,-0.0142 -0.0885,0.0707 v 1.37833 c 0,0 0,0.0599 -0.0401,0.006 -0.0323,-0.0445 -0.74243,-1.18658 -0.74243,-1.18658 0,0 0.003,0.71549 0,0.79019 -0.002,0.0855 0.0921,0.0766 0.0921,0.12 0,0.0428 -0.1003,0.0198 -0.16279,0.008 -0.0628,-0.0115 -0.15731,-0.002 -0.15731,-0.0576 0,-0.0532 0.0859,0.029 0.0859,-0.0993 v -1.17276 c 0,-0.0888 -0.0918,-0.0947 -0.0941,-0.1398 m 0.67009,-2.11133 c 0,-0.0516 0.2257,0.0395 0.40263,0.0905 0.17668,0.052 0.51025,0.10619 0.51025,0.21474 0,0.1323 0.0345,0.25989 -0.008,0.25989 -0.0263,0 -0.0803,-0.16868 -0.13424,-0.223 -0.0825,-0.0829 -0.25062,-0.12009 -0.29635,-0.12826 -0.0464,-0.008 -0.0345,-0.006 -0.0345,0.0263 v 0.42764 c 0,0 0.11378,0.0559 0.17694,0.029 0.0632,-0.029 0.0714,-0.12927 0.10855,-0.1211 0.0362,0.009 0.0231,0.0866 0.0168,0.23462 -0.006,0.14796 0.0119,0.28287 -0.0259,0.26872 -0.0362,-0.0148 -0.0395,-0.13979 -0.11613,-0.2155 -0.0773,-0.074 -0.16253,-0.0846 -0.16253,-0.0846 v 0.69906 c 0,0 0.0852,0.0944 0.2619,0.0369 0.1766,-0.0576 0.30225,-0.17669 0.33088,-0.14805 0.0283,0.029 0.0145,0.0684 -0.0707,0.20228 -0.0858,0.13424 -0.13154,0.2198 -0.21744,0.18258 -0.0858,-0.0368 -0.27959,-0.11083 -0.39901,-0.16515 -0.11941,-0.0542 -0.36776,-0.11444 -0.36776,-0.16607 0,-0.051 0.12203,0.0434 0.12203,-0.10527 v -1.19584 c 0,-0.0592 -0.097,-0.0789 -0.097,-0.11941 m -0.28885,-0.20456 c 0.0632,0 0.0504,0.2326 0.0599,0.30822 0.0174,0.1441 0.0605,0.27143 0.0152,0.27404 -0.0685,0.003 -0.14998,-0.22696 -0.26022,-0.34048 -0.10367,-0.10695 -0.48457,-0.30199 -0.48457,0.50326 0,0.68921 0.29905,0.67439 0.46251,0.62344 0.16026,-0.0504 0.2267,-0.17702 0.24506,-0.16447 0.0195,0.0131 -0.13222,0.34048 -0.46579,0.37829 -0.33357,0.0368 -0.6599,-0.28953 -0.6599,-0.80264 0,-0.51253 0.25163,-0.82673 0.56912,-0.82673 0.25525,0 0.33029,0.176 0.43951,0.176 0.0734,0 0.007,-0.12893 0.0793,-0.12893 m 0.85991,-1.82677 c 0.0126,-0.0648 0.128,0.0165 0.31681,0.0938 0.18746,0.0773 0.32465,0.11672 0.31412,0.14898 -0.0118,0.0312 -0.14603,-0.0207 -0.12927,0.0681 0.0168,0.0882 0.22831,0.78125 0.22831,0.78125 0,0 0.24506,-0.58057 0.25104,-0.60432 0.0177,-0.0717 -0.0655,-0.0822 -0.0573,-0.11672 0.009,-0.0372 0.0832,0.0114 0.14308,0.0451 0.0599,0.0345 0.15656,0.0658 0.1398,0.10628 -0.0171,0.0394 -0.0885,-0.052 -0.11672,0.0164 -0.029,0.068 -0.51977,1.17008 -0.51977,1.17008 l -0.49114,-1.58298 c -0.0277,-0.092 -0.0875,-0.0839 -0.079,-0.12598 m -1.12174,-0.42495 c 0,-0.0372 0.0691,-0.006 0.0691,-0.006 l 0.43589,0.1563 c 0,0 0.077,0.0263 0.0747,0.0608 -0.003,0.0339 -0.14872,-0.0427 -0.14872,0.0882 v 1.22936 c 0,0 0.0312,0.0832 0.17702,0.023 0.14602,-0.0599 0.36212,-0.20296 0.36212,-0.20296 0,0 0.10299,-0.051 0.0773,0.0204 -0.0259,0.0717 -0.1286,0.29938 -0.1286,0.29938 0,0 -0.0227,0.0888 -0.13979,0.0685 -0.11748,-0.0198 -0.40533,-0.10864 -0.48525,-0.13095 -0.0799,-0.0231 -0.30233,-0.0911 -0.30233,-0.0911 0,0 -0.0454,-0.008 -0.0454,-0.0428 0,-0.0345 0.1398,0.002 0.1398,-0.10856 v -1.20173 c 0,-0.10855 -0.0858,-0.11083 -0.0858,-0.16178 m 1.69086,4.34453 c 0,-0.0855 0.11714,0.0322 0.11714,-0.10258 v -1.18758 c 0,-0.14805 -0.0671,-0.14308 -0.0671,-0.20229 0,-0.0586 0.13028,0.0269 0.16152,0.0411 0.0312,0.0131 0.37265,0.18915 0.40886,0.20624 0.0355,0.0181 0.40036,0.16717 0.40036,0.56584 0,0.2747 -0.22932,0.23024 -0.22932,0.23024 0,0 0.22932,0.13491 0.24178,0.33652 0.0145,0.20236 0.0415,0.3734 0.0415,0.40035 0,0.0274 0.0404,0.14409 0.16573,0.0362 0,0 0.0145,0.24178 -0.26014,0.15235 -0.17929,-0.0576 -0.22965,-0.22469 -0.24245,-0.33652 -0.0145,-0.11352 -0.0767,-0.65536 -0.3201,-0.6471 v 0.54444 c 0,0.14375 0.0852,0.10358 0.0852,0.18813 0,0.0553 -0.1254,-0.0319 -0.23791,-0.0773 -0.1664,-0.073 -0.2651,-0.0987 -0.2651,-0.14805 m 0.41879,-1.2089 v 0.55262 c 0.0361,0.0132 0.30983,0.18855 0.30983,-0.15193 0,-0.34216 -0.30983,-0.40069 -0.30983,-0.40069 m -0.60204,2.07016 c 0.026,-0.0856 -0.0553,-0.11024 -0.0392,-0.14637 0.0119,-0.0274 0.12371,0.0335 0.19116,0.0648 0.0675,0.0323 0.17104,0.0592 0.19833,0.15066 0.0267,0.0921 0.3793,1.29513 0.41324,1.40697 0.0378,0.12598 0.11183,0.0904 0.0901,0.14906 -0.009,0.0221 -0.11285,-0.0273 -0.31749,-0.10856 -0.17037,-0.0668 -0.25424,-0.0888 -0.25424,-0.11613 0,-0.055 0.17171,0.0362 0.1312,-0.0806 -0.0266,-0.078 -0.0858,-0.28456 -0.0858,-0.28456 l -0.47404,-0.15462 -0.0678,0.22966 c -0.0335,0.11411 0.0747,0.096 0.054,0.13878 -0.0105,0.023 -0.078,-0.007 -0.16581,-0.0428 -0.0842,-0.0335 -0.12043,-0.0411 -0.11706,-0.0648 0.005,-0.0405 0.0717,0.0171 0.10291,-0.0652 0.0319,-0.0829 0.31648,-1.00333 0.34048,-1.07634 m 0.0747,0.1579 -0.16514,0.53189 0.36877,0.12338 z m 9.49945,-14.88654 v 15.77542 c 0.17499,9.42407 -7.53389,12.76695 -12.61966,12.76695 -5.08641,0 -12.79529,-3.34288 -12.61995,-12.76695 v -15.77542 h 4.70415 c -0.0257,-0.29113 0.0536,-0.49409 0.0612,-0.50327 6.4266,-1.28687 9.53494,-1.34709 15.95627,0.003 0.1382,0.16708 0.16388,0.34536 0.14047,0.49998 z m -22.88786,22.86617 4.92685,-5.24596 v -1.53295 l -0.55857,-0.0191 c 0,0 -0.3839,-0.10687 -0.28883,-0.48584 0.0858,-0.34317 0.45034,-0.26645 0.45034,-0.26645 0,0 -0.0859,-0.3158 0.23587,-0.45989 0.0582,-0.027 0.11218,-0.0379 0.16119,-0.0385 l 6.6e-4,-1.01655 -6.15619,6.55523 c 0.3158,0.93099 0.73359,1.76589 1.22868,2.51001 m 6.13151,-13.40682 c 0.0668,-0.0303 0.13424,-0.0616 0.20169,-0.0954 0.23715,-0.11908 0.66513,-0.34284 1.1257,-0.53788 0.45332,-0.19082 0.9885,-0.37829 1.41816,-0.37829 0.43185,0 0.77898,0.12995 1.01748,0.25821 0.11941,0.0635 0.21314,0.12834 0.2779,0.17861 l 0.0234,0.0188 c 0.008,-0.0121 0.0183,-0.0263 0.0306,-0.0402 0.0493,-0.0608 0.12202,-0.13087 0.22628,-0.19664 0.21053,-0.1323 0.53232,-0.23588 1.01916,-0.23588 0.51025,0 1.08266,0.20397 1.54449,0.41181 l 0.10627,0.0493 7.91513,-8.42866 h -3.58601 l -6.97133,7.42305 v -3.57354 l 3.61523,-3.84951 h -15.9862 v 15.31645 c -0.0102,0.5724 0.009,1.1208 0.0562,1.64815 l 3.44884,-3.67384 h 3.31297 v -2.92678 c -0.0615,0.0855 -0.15593,0.0697 -0.15593,0.0697 0,0 0.0832,-0.2523 -0.14672,-0.28852 -0.0178,-0.003 -0.0362,-0.004 -0.0569,-0.004 -0.1306,0 -0.20396,0.0658 -0.28225,0.12767 -0.12205,0.0977 -0.48456,0.52204 -0.55529,0.59118 -0.0707,-0.0691 -0.43325,-0.49349 -0.55627,-0.59118 -0.0776,-0.0618 -0.15166,-0.12767 -0.28127,-0.12767 -0.0214,0 -0.0405,0.002 -0.0576,0.004 -0.2306,0.0362 -0.14638,0.28852 -0.14638,0.28852 0,0 -0.20889,0.0345 -0.20889,-0.28287 0,-0.22376 0.17862,-0.35598 0.33685,-0.39808 0.23915,-0.0549 0.47568,-0.0714 0.52042,-0.46781 0.003,-0.0789 -0.0108,-0.0947 -0.0108,-0.0947 0,0 -0.0859,0.12995 -0.29838,0.23126 -0.24573,0.12834 -0.91023,0.12009 -0.89346,0.50006 -0.005,0.15293 0.16218,0.1382 0.16218,0.1382 0,0 -0.009,0.0691 -0.12073,0.0862 -0.0247,0.003 -0.0536,0.005 -0.0892,0.003 -0.15395,-0.0223 -0.2056,-0.18418 -0.19441,-0.38983 0.009,-0.12927 -0.077,-0.2993 -0.24343,-0.27462 -0.0286,0.005 -0.0609,0.0147 -0.0947,0.0328 -0.12698,0.074 -0.0819,0.19479 -0.0819,0.19479 0,0 -0.14442,-0.0806 -0.12238,-0.24843 0.0194,-0.14376 0.11448,-0.20953 0.24936,-0.26477 0.0168,-0.003 0.0329,-0.007 0.049,-0.009 0.17238,-0.0263 0.31712,0.0247 0.31712,0.0247 0,0 -0.0438,-0.13087 -0.028,-0.26149 0.0145,-0.11285 0.0734,-0.22637 0.24179,-0.25761 0.251,-0.0467 0.30494,0.12177 0.26711,0.21483 -0.0138,0.008 -0.0579,-0.0585 -0.12961,-0.0477 -0.0102,0.002 -0.0211,0.005 -0.0329,0.0105 -0.0421,0.0214 -0.0668,0.0494 -0.0793,0.0799 -0.0421,0.0994 0.0405,0.22435 0.0549,0.24574 0.0503,0.0675 0.20527,0.11352 0.39805,0.0773 0.22401,-0.0477 0.38324,-0.19412 0.46054,-0.32305 0.0418,-0.0675 0.0592,-0.13095 0.0533,-0.17272 l 0.12205,-1.35627 c 0,0 0.0391,-0.34873 -0.19869,-0.38882 -0.0276,-0.006 -0.0556,-0.006 -0.0842,-0.002 -0.20033,0.0319 -0.40923,0.29938 -0.34343,0.63329 0.0507,0.25651 -0.0809,0.4529 -0.20725,0.48187 -0.16086,0.0378 -0.25857,0.006 -0.31515,-0.11116 0.28061,-0.0188 0.26284,-0.24346 0.17435,-0.32473 -0.0378,-0.0329 -0.0924,-0.0427 -0.15559,-0.0329 -0.26219,0.0411 -0.67635,0.40129 -0.7428,0.61679 -0.0599,0.19411 0.0852,0.14375 0.14639,0.30755 0.05,0.13163 -0.0612,0.23588 -0.0612,0.23588 -0.004,0.0438 -0.01,0.0816 -0.0168,0.11285 -0.0306,0.11352 -0.0895,0.15032 -0.14442,0.15858 -0.0428,0.008 -0.0829,-0.005 -0.10429,-0.0115 0.0697,-0.0302 0.0911,-0.0954 0.0967,-0.14704 0.004,-0.0371 9.9e-4,-0.0675 9.9e-4,-0.0675 0,0 -0.0783,0.008 -0.14639,-0.097 -0.0793,-0.1227 0.0184,-0.16119 -0.0684,-0.29374 -0.0882,-0.13323 -0.33258,-0.27471 -0.52371,-0.29938 -0.0128,-0.002 -0.0243,-6.7e-4 -0.0362,0.001 -0.0372,0.005 -0.0724,0.0247 -0.12995,0.0328 -0.0158,0.003 -0.0345,0.005 -0.0556,0.005 -0.15034,0.003 -0.10921,-0.0882 -0.23324,-0.0783 -0.0641,0.0131 -0.10099,0.074 -0.0799,0.16287 0.004,0.0125 -0.007,0.0207 -0.007,0.0207 -0.0684,-0.0461 -0.0967,-0.10956 -0.10198,-0.18359 -9.9e-4,-0.1947 0.12369,-0.3329 0.24179,-0.34443 0.13981,-0.0131 0.20461,0.073 0.21547,0.0895 0.077,-0.32406 -0.17764,-0.21382 -0.30067,-0.3708 -0.0826,-0.10788 -0.0497,-0.16118 -0.0388,-0.20001 0.0171,-0.0592 -0.0849,-0.0658 -0.16218,-0.0542 -0.0224,0.003 -0.0424,0.008 -0.0569,0.0131 -0.0148,-0.0138 0.0247,-0.16515 0.18455,-0.18915 0.0549,-0.009 0.12468,-0.002 0.21317,0.0306 0.0826,-0.0247 0.16151,0.0155 0.19112,0.0724 0.0355,0.0675 0.006,0.14468 0.0155,0.22763 0.025,0.21643 0.15725,0.20986 0.17765,0.20725 -0.11745,-0.30764 0.0303,-0.39968 0.0454,-0.44743 0.0148,-0.0493 -0.004,-0.11411 -0.0799,-0.14047 -0.0161,-0.007 -0.0378,-0.0197 -0.0128,-0.0263 0,0 0.29541,-0.0131 0.34114,0.17997 0,0 0.12731,0.0674 0.13059,0.22696 0.003,0.19899 -0.1046,0.21811 -0.14572,0.25752 0.0306,0.20793 0.15329,0.24246 0.26843,0.22443 0.11316,-0.0172 0.21777,-0.084 0.21777,-0.084 0.19442,-0.0773 0.59773,-0.32725 0.48884,-0.53021 -0.0493,-0.0938 -0.13126,-0.13323 -0.22139,-0.12009 -0.0431,0.007 -0.0868,0.0254 -0.12995,0.0559 -0.11678,0.11184 -0.0589,0.2582 -0.0589,0.2582 -0.17764,0.0478 -0.26087,-0.26081 -0.14967,-0.39244 0.0773,-0.0921 0.17237,-0.12826 0.27435,-0.14636 0.11645,-0.0204 0.24179,-0.0155 0.36152,-0.0395 0.14211,-0.0286 0.25067,-0.11739 0.35594,-0.30165 0.078,-0.12927 0.0803,-0.30696 0.0128,-0.44836 -0.0691,-0.15462 -0.21119,-0.34873 -0.4112,-0.38494 -0.0378,0.33492 -0.22205,0.59809 -0.44772,0.75927 -0.0556,0.0385 -0.12862,0.0609 -0.17763,0.0681 -0.0398,0.006 -0.0648,0.003 -0.0556,-0.008 0.29376,-0.34376 0.2181,-0.70395 0.20988,-0.73848 -0.0214,0.0394 -0.25133,0.4615 -0.66122,0.64146 -0.0395,0.0164 -0.0809,0.028 -0.12303,0.0345 -0.22073,0.0345 -0.44114,-0.0681 -0.35363,-0.079 0.1454,-0.0204 0.73325,-0.36187 0.55627,-1.08552 -0.0227,0.0411 -0.28126,0.50259 -0.59937,0.72037 -0.13552,0.0938 -0.27731,0.13988 -0.40264,0.15958 -0.251,0.0395 -0.44114,-0.0302 -0.40594,-0.0632 0,0 0.69246,-0.32734 0.70069,-0.63986 -0.0224,0.0171 -0.20955,0.16186 -0.42765,0.1958 -0.0296,0.004 -0.0599,0.007 -0.0892,0.007 -0.59049,0 -0.59049,-0.42495 -0.59049,-0.42495 0.0411,0.005 0.59279,0.0411 1.04314,-0.91616 0,0 -0.29344,0.10358 -0.63226,0.14047 -0.20034,0.023 -0.28455,-0.10367 -0.26087,-0.10199 0.0355,0.0125 0.075,0.0158 0.12566,0.008 0.11086,-0.018 0.26909,-0.0878 0.47041,-0.24178 -0.0539,-0.0247 -0.77733,-0.34536 -0.49771,-0.84113 0,0 0.19968,0.17433 0.44574,0.19572 0.18093,0.0155 0.49608,-0.0181 0.57239,-0.199 0,0 -0.38982,-0.0231 -0.7724,-0.26418 -0.22566,-0.14047 -0.31383,-0.47438 -0.23125,-0.37829 0.0842,0.0997 0.17105,0.12927 0.30066,0.16219 0.10099,0.0263 0.17008,0.002 0.17008,0.002 0,0 -0.56187,-0.53223 -0.20626,-0.94505 0,0 0.18948,0.52963 0.65496,0.53123 0,0 -0.23587,-0.21871 -0.28291,-0.48095 -0.0329,-0.18089 -0.0194,-0.41939 0.0135,-0.35134 0.0227,0.0471 0.073,0.13162 0.10625,0.19344 0.0579,0.10434 0.18159,0.24413 0.28127,0.32961 0,0 -0.0707,-0.27631 0.026,-0.52861 0.0141,-0.0388 0.14408,-0.25003 0.15329,-0.19673 0,0 0.001,0.16616 0.0109,0.21879 0.0289,0.17862 0.0967,0.40297 0.43389,0.74505 0.42667,0.43589 0.88984,0.4326 0.89347,0.70403 -0.0168,0.32498 -0.41614,0.2822 -0.678,0.25988 -0.0908,0 -0.0793,0.13912 -0.003,0.2385 0.21777,0.29112 1.14281,0.36186 1.4323,-0.11184 0.10263,-0.16514 0.13059,-0.36423 0.0615,-0.5484 -0.0875,-0.24608 -0.2862,-0.25433 -0.66352,-0.33652 -0.26777,-0.0576 -0.1954,-0.1777 -0.15592,-0.1777 0,0 0.0819,0.0461 0.16086,0.0461 0.19804,0.002 0.0776,-0.25323 0.0566,-0.24995 -0.0507,0.007 -0.26448,0.0937 -0.44903,0.10948 -0.23389,0.0205 -0.51417,-0.0733 -0.51417,-0.23521 0,-0.19571 0.24508,-0.24995 0.23389,-0.199 -0.003,0.0122 -0.14737,0.27698 0.28455,0.26216 0.13652,-0.004 0.41187,-0.0197 0.41121,-0.0312 -0.009,-0.0723 -0.13652,-0.17601 -0.23455,-0.17601 -0.0724,0 -0.13882,0.0181 -0.27073,0.005 -0.0474,-0.11681 0.0786,-0.2342 0.16546,-0.27698 0.0868,-0.0438 0.14935,-0.024 0.18718,-0.0371 0.0507,-0.0181 0.0809,-0.17668 0.36975,-0.18098 0.15166,-0.002 0.3714,0.103 0.47338,0.103 0.10099,0 0.28126,-0.0658 0.29968,-0.0339 0.0174,0.0339 -0.0724,0.13659 -0.0549,0.22797 -0.008,0.21121 0.35693,1.04678 0.7428,1.12577 0.38489,-0.079 0.752,-0.91456 0.74313,-1.12577 0.0178,-0.0914 -0.0724,-0.19403 -0.0549,-0.22797 0.0187,-0.0318 0.19968,0.0339 0.30067,0.0339 0.10099,0 0.32073,-0.10527 0.47337,-0.103 0.2885,0.004 0.3191,0.16287 0.36975,0.18098 0.0378,0.0131 0.099,-0.007 0.18587,0.0371 0.0869,0.0428 0.21286,0.16017 0.16612,0.27698 -0.13158,0.0131 -0.19901,-0.005 -0.27139,-0.005 -0.0977,0 -0.22566,0.10367 -0.23323,0.17601 -0.002,0.0115 0.27403,0.0274 0.41089,0.0312 0.43227,0.0148 0.28751,-0.24995 0.28423,-0.26216 -0.0112,-0.051 0.23453,0.003 0.23453,0.199 0,0.16186 -0.28127,0.25567 -0.51514,0.23521 -0.18391,-0.0157 -0.39773,-0.10198 -0.44839,-0.10948 -0.0207,-0.003 -0.14212,0.25163 0.0566,0.24995 0.0793,0 0.16086,-0.0461 0.16086,-0.0461 0.0398,0 0.11218,0.12009 -0.1556,0.1777 -0.37765,0.0822 -0.577,0.0904 -0.6645,0.33652 -0.0681,0.18417 -0.0408,0.38326 0.0612,0.5484 0.28982,0.4737 1.21548,0.40296 1.4336,0.11184 0.0747,-0.0994 0.0875,-0.2385 -0.004,-0.2385 -0.26081,0.0223 -0.66018,0.0651 -0.67795,-0.25988 0.004,-0.27143 0.46742,-0.26814 0.89447,-0.70403 0.33584,-0.34208 0.4049,-0.56643 0.43353,-0.74505 0.009,-0.0526 0.0109,-0.21879 0.0109,-0.21879 0.009,-0.0533 0.13912,0.15791 0.15327,0.19673 0.0964,0.2523 0.0257,0.52861 0.0257,0.52861 0.099,-0.0855 0.22367,-0.22527 0.28128,-0.32961 0.0335,-0.0618 0.0839,-0.14637 0.10594,-0.19344 0.0328,-0.068 0.0461,0.17045 0.0142,0.35134 -0.0471,0.26224 -0.28296,0.48095 -0.28296,0.48095 0.46587,-0.002 0.65468,-0.53123 0.65468,-0.53123 0.3553,0.41282 -0.20658,0.94505 -0.20658,0.94505 0,0 0.0691,0.0247 0.17104,-0.002 0.12961,-0.0329 0.2155,-0.0625 0.29972,-0.16219 0.0832,-0.0961 -0.005,0.23782 -0.23066,0.37829 -0.38225,0.2411 -0.77208,0.26418 -0.77208,0.26418 0.0757,0.18089 0.39151,0.21449 0.57139,0.199 0.24608,-0.0214 0.44676,-0.19572 0.44676,-0.19572 0.27833,0.49577 -0.44507,0.81646 -0.49804,0.84113 0.20068,0.15395 0.35993,0.22376 0.47008,0.24178 0.0507,0.008 0.0908,0.004 0.12598,-0.008 0.024,-0.002 -0.0602,0.12498 -0.26182,0.10199 -0.33753,-0.0369 -0.6316,-0.14047 -0.6316,-0.14047 0.45063,0.95726 1.0013,0.92105 1.04375,0.91616 0,0 0,0.42495 -0.59043,0.42495 -0.0307,0 -0.0595,-0.003 -0.0895,-0.007 -0.21778,-0.0339 -0.40557,-0.1787 -0.42831,-0.1958 0.009,0.31252 0.70041,0.63986 0.70041,0.63986 0.0365,0.0329 -0.15462,0.10266 -0.40533,0.0632 -0.12598,-0.0197 -0.26679,-0.0658 -0.40229,-0.15958 -0.31908,-0.21778 -0.57737,-0.67928 -0.60036,-0.72037 -0.17702,0.72365 0.41122,1.06514 0.55657,1.08552 0.0875,0.0109 -0.13322,0.11352 -0.35361,0.079 -0.0414,-0.007 -0.0825,-0.0181 -0.12203,-0.0345 -0.41122,-0.17996 -0.6402,-0.60204 -0.66125,-0.64146 -0.008,0.0345 -0.0851,0.39472 0.20894,0.73848 0.0102,0.0115 -0.0152,0.0142 -0.0547,0.008 -0.0499,-0.007 -0.12236,-0.0296 -0.17761,-0.0681 -0.226,-0.16118 -0.41055,-0.42435 -0.44904,-0.75927 -0.19935,0.0362 -0.3408,0.23032 -0.40988,0.38494 -0.0674,0.1414 -0.0651,0.31909 0.0118,0.44836 0.10592,0.18426 0.21448,0.27302 0.35692,0.30165 0.11875,0.024 0.24409,0.0191 0.36022,0.0395 0.10266,0.0181 0.19799,0.0542 0.2753,0.14636 0.11124,0.13163 0.0274,0.44019 -0.15033,0.39244 0,0 0.059,-0.14636 -0.0585,-0.2582 -0.0428,-0.0306 -0.0875,-0.0493 -0.13027,-0.0559 -0.0892,-0.0131 -0.17205,0.0263 -0.22172,0.12009 -0.10856,0.20296 0.29573,0.4529 0.48951,0.53021 0,0 0.10425,0.0668 0.21778,0.084 0.11478,0.018 0.23849,-0.0165 0.26805,-0.22443 -0.0414,-0.0394 -0.14898,-0.0585 -0.14569,-0.25752 0.004,-0.15959 0.1312,-0.22696 0.1312,-0.22696 0.0457,-0.1931 0.34023,-0.17997 0.34023,-0.17997 0.0263,0.007 0.004,0.0197 -0.0122,0.0263 -0.076,0.0264 -0.0947,0.0911 -0.0793,0.14047 0.0142,0.0478 0.16212,0.13979 0.0454,0.44743 0.0194,0.003 0.15226,0.009 0.17694,-0.20725 0.009,-0.0829 -0.0194,-0.16018 0.0162,-0.22763 0.0289,-0.0569 0.10754,-0.0971 0.19108,-0.0724 0.0875,-0.0328 0.15723,-0.0394 0.21281,-0.0306 0.16026,0.024 0.19874,0.17534 0.19874,0.17534 0,0 0.002,0.0188 -0.0152,0.0138 -0.0145,-0.005 -0.0339,-0.01 -0.0556,-0.0131 -0.0773,-0.0115 -0.17929,-0.005 -0.16253,0.0542 0.0109,0.0388 0.0438,0.0921 -0.0397,0.20001 -0.12177,0.15698 -0.37635,0.0467 -0.29972,0.3708 0.0102,-0.0165 0.0754,-0.10266 0.21584,-0.0895 0.1174,0.0115 0.24145,0.14973 0.24044,0.34443 -0.004,0.074 -0.0326,0.13753 -0.10064,0.18359 0,0 -0.0112,-0.008 -0.008,-0.0207 0.0211,-0.0888 -0.0152,-0.14973 -0.0796,-0.16287 -0.12304,-0.01 -0.0829,0.0816 -0.23361,0.0783 -0.02,0 -0.0388,-0.002 -0.0556,-0.005 -0.0573,-0.008 -0.0925,-0.028 -0.12961,-0.0328 -0.0119,-0.002 -0.0237,-0.003 -0.0352,-0.001 -0.19108,0.0247 -0.43555,0.16615 -0.52406,0.29938 -0.0875,0.13255 0.0112,0.17104 -0.0691,0.29374 -0.0681,0.10527 -0.14636,0.097 -0.14636,0.097 0,0 -0.004,0.0303 0.001,0.0675 0.002,0.0138 0.004,0.0286 0.009,0.0434 m -0.50528,0.19008 c 0.11973,-0.0355 0.25129,-0.0822 0.38654,-0.13811 -0.0158,-0.024 -0.03,-0.0553 -0.0411,-0.0954 -0.008,-0.0312 -0.0145,-0.0691 -0.0168,-0.11285 0,0 -0.11116,-0.10425 -0.0611,-0.23588 0.0611,-0.1638 0.2059,-0.11344 0.14603,-0.30755 -0.0675,-0.2155 -0.48126,-0.57569 -0.74312,-0.61679 -0.0635,-0.01 -0.11743,0 -0.15526,0.0329 -0.0885,0.0813 -0.10594,0.30595 0.17435,0.32473 -0.0576,0.1168 -0.15429,0.14897 -0.31482,0.11116 -0.12731,-0.029 -0.25856,-0.22536 -0.20824,-0.48187 0.0668,-0.33391 -0.14211,-0.60138 -0.34376,-0.63329 -0.0276,-0.004 -0.0562,-0.004 -0.0829,0.002 -0.23784,0.0401 -0.19902,0.38882 -0.19902,0.38882 l 0.12205,1.35627 c -0.007,0.0418 0.0118,0.10526 0.0523,0.17272 0.0786,0.12893 0.23686,0.27538 0.4612,0.32305 0.19311,0.0362 0.34706,-0.01 0.39838,-0.0773 0.0138,-0.0214 0.097,-0.14637 0.0549,-0.24574 -0.0132,-0.0306 -0.0378,-0.0585 -0.079,-0.0799 -0.0122,-0.006 -0.023,-0.009 -0.0339,-0.0105 -0.0707,-0.0109 -0.11612,0.0559 -0.12994,0.0477 -0.0369,-0.0931 0.0171,-0.26149 0.26745,-0.21483 0.16875,0.0312 0.22796,0.14476 0.24145,0.25761 0.0168,0.13062 -0.0276,0.26149 -0.0276,0.26149 0,0 0.053,-0.018 0.13192,-0.028 m -0.69872,0.48364 c -0.003,-0.0191 -0.005,-0.0593 0.002,-0.10796 -0.18356,-0.0516 -0.38488,-0.0812 -0.49771,-0.14047 -0.21152,-0.10131 -0.29837,-0.23126 -0.29837,-0.23126 0,0 -0.0122,0.0158 -0.01,0.0947 0.0444,0.39639 0.28126,0.4129 0.51943,0.46781 0.10527,0.0273 0.22008,0.0954 0.28488,0.20396 z m 8.54251,7.62862 c -0.0372,0.0763 -0.0355,0.22199 0.0187,0.29341 0.19808,0.26418 0.97672,0.34637 1.33657,0.007 -0.46613,-0.0723 -0.90463,-0.19243 -1.35526,-0.29997 m 2.16851,-0.72971 c 0.11639,0.1563 0.24995,0.27967 0.38646,0.30763 0.38587,-0.079 0.75203,-0.91456 0.74286,-1.12569 0.0178,-0.0905 -0.0718,-0.19512 -0.054,-0.22864 0.0184,-0.0323 0.199,0.0335 0.29972,0.0335 0.10131,0 0.32204,-0.10527 0.47337,-0.10266 0.28911,0.004 0.31942,0.16354 0.37004,0.18098 0.0379,0.0138 0.10004,-0.007 0.18586,0.0368 0.0875,0.0428 0.21382,0.16118 0.16716,0.27731 -0.13255,0.0138 -0.19908,-0.005 -0.27176,-0.005 -0.0974,0 -0.22561,0.10358 -0.23386,0.17601 -6.7e-4,0.0115 0.27437,0.028 0.41088,0.0319 0.43227,0.0141 0.28751,-0.25004 0.28389,-0.26317 -0.01,-0.05 0.23521,0.004 0.23521,0.19899 0,0.1638 -0.28128,0.25593 -0.5148,0.23622 -0.1846,-0.0165 -0.39808,-0.10198 -0.44878,-0.10956 -0.0211,-0.003 -0.1414,0.25163 0.0562,0.24995 0.0793,0 0.16094,-0.046 0.16094,-0.046 0.0398,0 0.11217,0.12 -0.15597,0.17761 -0.37702,0.0823 -0.57568,0.0898 -0.66419,0.33551 -0.0681,0.18426 -0.0404,0.38325 0.0616,0.54941 0.28978,0.47303 1.21487,0.40229 1.43324,0.11184 0.075,-0.1003 0.0875,-0.23917 -0.004,-0.23917 -0.26081,0.0231 -0.66015,0.0648 -0.67792,-0.25921 0.004,-0.2721 0.46739,-0.26873 0.89444,-0.70395 0.33685,-0.34284 0.4049,-0.56651 0.43387,-0.74513 0.008,-0.0533 0.0105,-0.21946 0.0105,-0.21946 0.009,-0.0526 0.13912,0.15858 0.15327,0.1974 0.0961,0.25163 0.0253,0.5287 0.0253,0.5287 0.0994,-0.0846 0.22401,-0.22536 0.28195,-0.3297 0.0329,-0.0618 0.0835,-0.14738 0.10527,-0.19336 0.0329,-0.0691 0.0473,0.17037 0.0145,0.35033 -0.0471,0.26317 -0.28296,0.48289 -0.28296,0.48289 0.46587,-0.003 0.65501,-0.53224 0.65501,-0.53224 0.35497,0.41215 -0.20657,0.94505 -0.20657,0.94505 0,0 0.0697,0.0238 0.17036,-9.2e-4 0.12994,-0.0336 0.21677,-0.0632 0.30098,-0.16287 0.0823,-0.097 -0.006,0.23782 -0.23192,0.37829 -0.38191,0.24119 -0.77208,0.26317 -0.77208,0.26317 0.076,0.18097 0.39185,0.2155 0.57173,0.20001 0.24608,-0.0223 0.44642,-0.19673 0.44642,-0.19673 0.27968,0.49611 -0.4444,0.81747 -0.4977,0.84155 0.20034,0.15462 0.35959,0.22435 0.47109,0.24178 0.0497,0.007 0.0898,0.004 0.12531,-0.008 0.0233,-0.002 -0.0606,0.1243 -0.26182,0.10199 -0.33787,-0.0362 -0.63161,-0.14047 -0.63161,-0.14047 0.45029,0.95625 1.00097,0.92012 1.04342,0.91616 0,0 0,0.42436 -0.59043,0.42436 -0.0306,0 -0.0599,-0.003 -0.0892,-0.007 -0.21845,-0.0339 -0.40592,-0.17862 -0.42899,-0.19673 0.01,0.31252 0.70075,0.63978 0.70075,0.63978 0.0361,0.0329 -0.15496,0.10299 -0.40499,0.0635 -0.12632,-0.019 -0.26713,-0.0658 -0.40263,-0.15883 -0.31841,-0.21778 -0.57703,-0.68003 -0.59935,-0.72113 -0.17702,0.72441 0.40987,1.06582 0.55657,1.08561 0.0875,0.0105 -0.13323,0.11343 -0.35361,0.0789 -0.0425,-0.006 -0.0835,-0.0174 -0.12304,-0.0345 -0.41122,-0.1803 -0.6402,-0.60196 -0.66125,-0.64146 -0.009,0.0345 -0.0842,0.39471 0.20986,0.73915 0.009,0.0115 -0.0161,0.0142 -0.0556,0.008 -0.049,-0.008 -0.12203,-0.029 -0.17761,-0.0684 -0.22569,-0.16026 -0.4102,-0.42444 -0.44903,-0.75827 -0.19933,0.0361 -0.34081,0.22957 -0.40987,0.38486 -0.0674,0.14148 -0.0652,0.31909 0.0121,0.44836 0.10527,0.18426 0.21416,0.27209 0.35665,0.30165 0.1184,0.024 0.24439,0.0198 0.36018,0.0395 0.10299,0.0181 0.19799,0.0542 0.2753,0.14569 0.11124,0.13162 0.028,0.43985 -0.15066,0.39311 0,0 0.0593,-0.14738 -0.0579,-0.2582 -0.0431,-0.0312 -0.0878,-0.0494 -0.1296,-0.0559 -0.0905,-0.0142 -0.17205,0.0254 -0.22275,0.11908 -0.10855,0.20397 0.29576,0.45332 0.48954,0.53063 0,0 0.10526,0.0665 0.21811,0.0846 0.11546,0.0174 0.2385,-0.0171 0.26873,-0.22535 -0.0424,-0.0395 -0.14999,-0.0576 -0.14603,-0.2566 0.003,-0.15959 0.13087,-0.22763 0.13087,-0.22763 0.0451,-0.19243 0.34081,-0.18031 0.34081,-0.18031 0.0257,0.007 0.003,0.0207 -0.0135,0.0264 -0.0756,0.0273 -0.0941,0.0921 -0.0789,0.14081 0.0151,0.0477 0.16211,0.13979 0.0451,0.44802 0.0207,0.003 0.15259,0.008 0.17727,-0.20725 0.01,-0.0829 -0.0197,-0.16119 0.0158,-0.22865 0.0292,-0.0559 0.10788,-0.096 0.19108,-0.0723 0.0882,-0.0329 0.15723,-0.0395 0.21315,-0.0303 0.16026,0.0238 0.19975,0.17508 0.19975,0.17508 0,0 0.002,0.0197 -0.0152,0.0157 -0.0145,-0.006 -0.0345,-0.0109 -0.0566,-0.0148 -0.0776,-0.0115 -0.17929,-0.005 -0.16253,0.0543 0.0109,0.0385 0.0438,0.0927 -0.0397,0.20069 -0.12211,0.15621 -0.37602,0.046 -0.29972,0.37071 0.0112,-0.0164 0.075,-0.10367 0.21551,-0.0895 0.11806,0.0105 0.2427,0.14872 0.2411,0.34544 -0.004,0.073 -0.0333,0.1355 -0.10131,0.18258 0,0 -0.01,-0.008 -0.007,-0.0207 0.0217,-0.0888 -0.0155,-0.14965 -0.0803,-0.16287 -0.12303,-0.0105 -0.0816,0.0816 -0.23327,0.0783 -0.02,0 -0.0388,-0.002 -0.0556,-0.004 -0.0563,-0.01 -0.0918,-0.0286 -0.12927,-0.0335 -0.0112,-0.002 -0.0231,-0.003 -0.0355,-0.001 -0.19108,0.024 -0.43555,0.16548 -0.52406,0.29871 -0.0875,0.13322 0.0109,0.17104 -0.0687,0.29441 -0.0678,0.10527 -0.14704,0.097 -0.14704,0.097 0,0 -0.003,0.0297 0.001,0.0665 0.007,0.0526 0.028,0.11849 0.0953,0.13264 0,0 0.0208,0.01 0.002,0.0147 -0.0207,0.007 -0.0612,0.0188 -0.10527,0.0122 -0.054,-0.008 -0.11352,-0.0451 -0.14308,-0.15959 -0.009,-0.0312 -0.0142,-0.0691 -0.0168,-0.11251 0,0 -0.11083,-0.10459 -0.0615,-0.23614 0.0615,-0.16287 0.20624,-0.11352 0.1467,-0.30662 -0.0668,-0.21643 -0.48195,-0.57662 -0.74411,-0.6178 -0.0628,-0.009 -0.11681,0 -0.15462,0.0345 -0.0882,0.08 -0.10594,0.30528 0.17432,0.32338 -0.0565,0.11748 -0.15394,0.14873 -0.31479,0.11184 -0.12666,-0.0289 -0.25854,-0.22527 -0.20818,-0.4812 0.0665,-0.33559 -0.14215,-0.60272 -0.34283,-0.63396 -0.0283,-0.005 -0.0572,-0.005 -0.0842,0.002 -0.23714,0.0401 -0.19866,0.38882 -0.19866,0.38882 l 0.12203,1.35534 c -0.007,0.0427 0.0122,0.10527 0.0523,0.17264 0.0783,0.12994 0.23748,0.27572 0.46157,0.32338 0.19277,0.0369 0.34772,-0.01 0.39834,-0.0773 0.0135,-0.0207 0.0968,-0.14636 0.0547,-0.24607 -0.0136,-0.0302 -0.0379,-0.0575 -0.079,-0.0796 -0.0119,-0.005 -0.023,-0.008 -0.0329,-0.01 -0.0713,-0.0109 -0.11638,0.0549 -0.13053,0.0467 -0.0372,-0.0928 0.0168,-0.26056 0.26772,-0.21289 0.16842,0.0312 0.22737,0.14308 0.24152,0.25559 0.0161,0.13095 -0.0283,0.26258 -0.0283,0.26258 0,0 0.14535,-0.052 0.31841,-0.0257 0.0158,0.003 0.0319,0.006 0.0487,0.01 0.13457,0.0552 0.2299,0.1211 0.24935,0.26485 0.0217,0.16776 -0.12202,0.24835 -0.12202,0.24835 0,0 0.044,-0.12076 -0.0829,-0.19479 -0.0345,-0.0174 -0.0658,-0.028 -0.0951,-0.0328 -0.16675,-0.0247 -0.25197,0.14535 -0.24245,0.27369 0.0112,0.20557 -0.0401,0.36844 -0.19437,0.38983 -0.0355,0.003 -0.0652,9.3e-4 -0.0895,-0.002 -0.11217,-0.0164 -0.12034,-0.0855 -0.12034,-0.0855 0,0 0.1664,0.0147 0.16186,-0.1382 0.0168,-0.3809 -0.64879,-0.37273 -0.89453,-0.49998 -0.21146,-0.10139 -0.29736,-0.23193 -0.29736,-0.23193 0,0 -0.0135,0.0154 -0.0109,0.0953 0.0448,0.39546 0.28128,0.4129 0.51943,0.46713 0.15824,0.0418 0.33753,0.17441 0.33753,0.39808 0,0.3174 -0.20851,0.28288 -0.20851,0.28288 0,0 0.0832,-0.25265 -0.14679,-0.28877 -0.0168,-0.002 -0.0358,-0.004 -0.0568,-0.004 -0.12994,0 -0.20397,0.0658 -0.28229,0.12826 -0.12202,0.0977 -0.48423,0.52204 -0.55497,0.59118 -0.0707,-0.0691 -0.43387,-0.49349 -0.5559,-0.59118 -0.0783,-0.0625 -0.15234,-0.12826 -0.28228,-0.12826 -0.0207,0 -0.0395,0.002 -0.0573,0.004 -0.22956,0.0361 -0.14602,0.28877 -0.14602,0.28877 0,0 -0.20886,0.0345 -0.20886,-0.28288 0,-0.22367 0.17896,-0.35631 0.33745,-0.39808 0.2385,-0.0542 0.47505,-0.0717 0.51977,-0.46713 0.002,-0.0799 -0.0112,-0.0953 -0.0112,-0.0953 0,0 -0.0858,0.13054 -0.29736,0.23193 -0.24574,0.12725 -0.9112,0.11908 -0.8941,0.49998 -0.005,0.15293 0.16152,0.1382 0.16152,0.1382 0,0 -0.008,0.0691 -0.12009,0.0855 -0.0247,0.003 -0.0542,0.005 -0.0898,0.002 -0.15361,-0.0214 -0.20531,-0.18426 -0.19445,-0.38983 0.01,-0.12834 -0.0756,-0.29837 -0.24212,-0.27369 -0.0296,0.005 -0.0609,0.0154 -0.0954,0.0328 -0.12691,0.074 -0.0825,0.19479 -0.0825,0.19479 0,0 -0.14409,-0.0806 -0.12236,-0.24835 0.0197,-0.14375 0.11478,-0.20961 0.24969,-0.26485 0.0168,-0.004 0.0328,-0.007 0.0487,-0.01 0.17331,-0.0264 0.31841,0.0257 0.31841,0.0257 0,0 -0.0447,-0.13163 -0.0286,-0.26258 0.0145,-0.11251 0.073,-0.22435 0.24245,-0.25559 0.25003,-0.0477 0.30393,0.12009 0.26713,0.21289 -0.0145,0.008 -0.0589,-0.0576 -0.13062,-0.0467 -0.0102,0.002 -0.0214,0.005 -0.0329,0.01 -0.0414,0.0221 -0.0658,0.0494 -0.0792,0.0796 -0.0418,0.0997 0.0414,0.22536 0.0547,0.24607 0.0506,0.0675 0.20557,0.1142 0.39867,0.0773 0.22401,-0.0477 0.38326,-0.19344 0.46116,-0.32338 0.0408,-0.0674 0.0593,-0.12994 0.0524,-0.17264 l 0.12203,-1.35534 c 0,0 0.0388,-0.34873 -0.19875,-0.38882 -0.0269,-0.007 -0.0556,-0.007 -0.0835,-0.002 -0.20102,0.0312 -0.40987,0.29837 -0.34309,0.63396 0.05,0.25593 -0.0813,0.45232 -0.20826,0.4812 -0.16085,0.0369 -0.25854,0.006 -0.31479,-0.11184 0.28026,-0.0181 0.26249,-0.24337 0.17432,-0.32338 -0.0378,-0.0345 -0.092,-0.0434 -0.15487,-0.0345 -0.26224,0.0412 -0.67733,0.40137 -0.74386,0.6178 -0.0598,0.1931 0.0849,0.14375 0.14678,0.30662 0.0497,0.13155 -0.0619,0.23614 -0.0619,0.23614 -0.002,0.0434 -0.008,0.0813 -0.0168,0.11251 -0.0293,0.11453 -0.0892,0.15133 -0.14308,0.15959 -0.0438,0.007 -0.0842,-0.005 -0.10527,-0.0122 0.0697,-0.0289 0.0908,-0.0947 0.0977,-0.14737 0.004,-0.0368 0.001,-0.0665 0.001,-0.0665 0,0 -0.0797,0.008 -0.1467,-0.097 -0.08,-0.12337 0.0187,-0.16119 -0.0688,-0.29441 -0.0885,-0.13323 -0.33256,-0.27471 -0.52406,-0.29871 -0.0128,-0.002 -0.0246,-6.7e-4 -0.0351,0.001 -0.0379,0.005 -0.0734,0.0237 -0.12994,0.0335 -0.0172,0.003 -0.0355,0.004 -0.0557,0.004 -0.15158,0.003 -0.11015,-0.0888 -0.23318,-0.0783 -0.0649,0.0132 -0.10199,0.074 -0.0799,0.16287 0.002,0.0125 -0.008,0.0207 -0.008,0.0207 -0.0685,-0.0471 -0.0971,-0.10956 -0.10098,-0.18258 -0.002,-0.19672 0.1227,-0.33492 0.24077,-0.34544 0.14081,-0.0142 0.20557,0.0731 0.21551,0.0895 0.0766,-0.32473 -0.1777,-0.2145 -0.29972,-0.37071 -0.0835,-0.10797 -0.0507,-0.1622 -0.0395,-0.20069 0.0168,-0.0592 -0.0852,-0.0658 -0.16278,-0.0543 -0.0217,0.004 -0.0421,0.009 -0.0557,0.0148 -0.0161,-0.0157 0.0241,-0.16708 0.18392,-0.19083 0.0553,-0.009 0.12531,-0.003 0.21281,0.0303 0.0836,-0.0237 0.16153,0.0164 0.19151,0.0723 0.0352,0.0675 0.006,0.14578 0.0157,0.22865 0.0243,0.2155 0.15698,0.20986 0.17702,0.20725 -0.11748,-0.30823 0.0302,-0.40036 0.0451,-0.44802 0.0155,-0.0487 -0.003,-0.11352 -0.0789,-0.14081 -0.0168,-0.006 -0.0385,-0.0198 -0.0136,-0.0264 0,0 0.29576,-0.0121 0.34115,0.18031 0,0 0.12801,0.068 0.13062,0.22763 0.004,0.19899 -0.10367,0.2171 -0.14578,0.2566 0.0303,0.20826 0.15302,0.24279 0.26881,0.22535 0.11251,-0.0181 0.21778,-0.0846 0.21778,-0.0846 0.19378,-0.0773 0.59834,-0.32666 0.48912,-0.53063 -0.0503,-0.0937 -0.13188,-0.13323 -0.22165,-0.11908 -0.0425,0.007 -0.0869,0.0247 -0.12995,0.0559 -0.1168,0.11082 -0.0583,0.2582 -0.0583,0.2582 -0.17828,0.0467 -0.26182,-0.26149 -0.151,-0.39311 0.078,-0.0915 0.17306,-0.12759 0.27572,-0.14569 0.11647,-0.0197 0.24178,-0.0155 0.36052,-0.0395 0.14241,-0.0296 0.25096,-0.11739 0.35623,-0.30165 0.0773,-0.12927 0.0797,-0.30688 0.0129,-0.44836 -0.0694,-0.15529 -0.21053,-0.34873 -0.41054,-0.38486 -0.0385,0.33383 -0.22309,0.59801 -0.4487,0.75827 -0.0557,0.0394 -0.12901,0.0608 -0.17769,0.0684 -0.0397,0.007 -0.0648,0.004 -0.0559,-0.008 0.29475,-0.34444 0.21845,-0.70462 0.20987,-0.73915 -0.0211,0.0395 -0.24995,0.46116 -0.66083,0.64146 -0.0398,0.0171 -0.0809,0.0286 -0.12304,0.0345 -0.22005,0.0345 -0.44052,-0.0684 -0.35395,-0.0789 0.1467,-0.0198 0.73359,-0.3612 0.55691,-1.08561 -0.0227,0.0411 -0.28061,0.50335 -0.59969,0.72113 -0.13559,0.0931 -0.27631,0.1398 -0.40263,0.15883 -0.25003,0.0395 -0.4412,-0.0306 -0.40499,-0.0635 0,0 0.69115,-0.32726 0.70066,-0.63978 -0.0227,0.0181 -0.21053,0.16279 -0.42865,0.19673 -0.0292,0.004 -0.0592,0.007 -0.0894,0.007 -0.59017,0 -0.59017,-0.42436 -0.59017,-0.42436 0.0421,0.004 0.59312,0.0401 1.04349,-0.91616 0,0 -0.29407,0.10425 -0.6316,0.14047 -0.20136,0.0223 -0.28557,-0.10367 -0.26216,-0.10199 0.0354,0.0115 0.0763,0.0148 0.12565,0.008 0.11116,-0.0174 0.27041,-0.0872 0.47075,-0.24178 -0.053,-0.0241 -0.77738,-0.34544 -0.49779,-0.84155 0,0 0.20035,0.17441 0.44609,0.19673 0.18064,0.0155 0.49644,-0.019 0.57206,-0.20001 0,0 -0.38982,-0.022 -0.77207,-0.26317 -0.0118,-0.008 -0.0233,-0.0154 -0.0345,-0.0237 -0.17432,-0.001 -0.35463,0.008 -0.54175,0.028 -0.12371,0.48423 -0.52541,0.83953 -1.00105,0.83953 -0.47405,0 -0.8744,-0.35201 -0.99971,-0.83296 -0.30923,-0.0552 -0.60634,-0.0625 -0.8968,-0.0388 l -6.77921,7.2201 c 0.6543,0.61182 1.37012,1.13058 2.11686,1.56318 l 6.33906,-6.74926 v 3.57313 l -3.98072,4.23866 c 1.44739,0.48954 2.90673,0.71161 4.19951,0.71161 4.94362,0 12.32651,-3.23963 12.15808,-12.30158 v -5.82914 l -3.16755,3.37345 h -3.35576 l 6.52331,-6.94767 v -3.81919 l -6.83912,7.28385 c 0.0312,0.0263 0.0497,0.0559 0.0497,0.0872 z m -0.73754,2.18536 h 2.25011 v -0.90463 h -2.25113 z m 1.12501,1.76487 c 1.01158,0 1.10009,-0.95566 1.10009,-0.95566 h -2.20734 c 0,0 0.0948,0.95566 1.10725,0.95566 m -13.4203,-15.74679 h 2.25009 v -0.90462 h -2.25108 z m 1.12472,1.76488 c 1.01189,0 1.10005,-0.95558 1.10005,-0.95558 h -2.20734 c 0,0 0.0954,0.95558 1.10729,0.95558 m 6.0703,10.40281 c 0,0.26713 0.21744,0.48423 0.48423,0.48423 0.26781,0 0.48457,-0.2171 0.48457,-0.48423 0,-0.26645 -0.21676,-0.48356 -0.48457,-0.48356 -0.26679,0 -0.48423,0.21711 -0.48423,0.48356 m -4.56531,-7.29076 v 7.42138 c 0,0 0.0813,0.0996 0.57701,-0.0362 0.57106,-0.15529 1.2793,-0.88323 2.27118,-1.09941 0.7447,-0.1622 1.74837,0.0724 1.98231,0.2342 v -7.43451 c 0,0 -0.44936,-0.44145 -1.18885,-0.44145 -0.72146,0 -1.93861,0.64802 -2.40676,0.88323 -0.40784,0.20296 -0.83618,0.35699 -1.14869,0.38722 -0.0941,0.008 -0.0862,0.0856 -0.0862,0.0856 m 6.50653,6.26764 c 1.28924,0 1.96059,0.79936 2.39783,0.97377 1.01815,0.40524 1.18886,0.19799 1.18886,0.19799 v -7.46146 c 0,-0.0724 -0.10788,-0.0724 -0.10788,-0.0724 0,0 -0.99247,-0.15226 -1.33396,-0.36018 -0.32405,-0.19833 -1.53168,-0.92046 -2.41492,-0.92046 -0.88619,0 -1.0451,0.3793 -1.0451,0.3793 v 7.53388 c 0,0 0.4145,-0.27041 1.31517,-0.27041"
               style="fill:#000000;fill-opacity:1;fill-rule:nonzero;stroke:none;stroke-width:0.0842142" /></g></g></g></g></g></svg>
