<?xml version="1.0" encoding="utf-8" standalone="no"?>
<!DOCTYPE svg PUBLIC "-//W3C//DTD SVG 1.1//EN"
  "http://www.w3.org/Graphics/SVG/1.1/DTD/svg11.dtd">
<svg xmlns:xlink="http://www.w3.org/1999/xlink" width="432pt" height="360pt" viewBox="0 0 432 360" xmlns="http://www.w3.org/2000/svg" version="1.1">
 <metadata>
  <rdf:RDF xmlns:dc="http://purl.org/dc/elements/1.1/" xmlns:cc="http://creativecommons.org/ns#" xmlns:rdf="http://www.w3.org/1999/02/22-rdf-syntax-ns#">
   <cc:Work>
    <dc:type rdf:resource="http://purl.org/dc/dcmitype/StillImage"/>
    <dc:date>2026-07-22T15:36:36.180727</dc:date>
    <dc:format>image/svg+xml</dc:format>
    <dc:creator>
     <cc:Agent>
      <dc:title>Matplotlib v3.10.3, https://matplotlib.org/</dc:title>
     </cc:Agent>
    </dc:creator>
   </cc:Work>
  </rdf:RDF>
 </metadata>
 <defs>
  <style type="text/css">*{stroke-linejoin: round; stroke-linecap: butt}</style>
 </defs>
 <g id="figure_1">
  <g id="patch_1">
   <path d="M 0 360 
L 432 360 
L 432 0 
L 0 0 
z
" style="fill: #ffffff"/>
  </g>
  <g id="axes_1">
   <g id="patch_2">
    <path d="M 47.36 317.32 
L 421.2 317.32 
L 421.2 27.54375 
L 47.36 27.54375 
z
" style="fill: #ffffff"/>
   </g>
   <g id="matplotlib.axis_1">
    <g id="xtick_1">
     <g id="line2d_1">
      <defs>
       <path id="m4cfbf442b7" d="M 0 0 
L 0 3.5 
" style="stroke: #000000; stroke-width: 0.8"/>
      </defs>
      <g>
       <use xlink:href="#m4cfbf442b7" x="47.36" y="317.32" style="stroke: #000000; stroke-width: 0.8"/>
      </g>
     </g>
     <g id="text_1">
      <!-- 1960 -->
      <g transform="translate(37.488125 331.82) scale(0.1 -0.1)">
       <defs>
        <path id="RobotoCondensed-Regular-31" d="M 2013 4575 
L 2013 0 
L 1459 0 
L 1459 3853 
L 503 3428 
L 503 3950 
L 1928 4575 
L 2013 4575 
z
" transform="scale(0.015625)"/>
        <path id="RobotoCondensed-Regular-39" d="M 2744 2563 
Q 2744 2119 2687 1667 
Q 2631 1216 2450 836 
Q 2269 456 1903 225 
Q 1538 -6 869 -6 
L 866 484 
Q 1428 484 1698 690 
Q 1969 897 2072 1233 
Q 2175 1569 2191 1950 
Q 1859 1522 1413 1522 
Q 1025 1522 786 1747 
Q 547 1972 436 2320 
Q 325 2669 325 3041 
Q 325 3691 623 4152 
Q 922 4613 1522 4613 
Q 1969 4613 2237 4344 
Q 2506 4075 2625 3653 
Q 2744 3231 2744 2772 
L 2744 2563 
z
M 866 3072 
Q 866 2666 1020 2334 
Q 1175 2003 1506 2003 
Q 1716 2003 1906 2179 
Q 2097 2356 2194 2616 
L 2194 2850 
Q 2194 3472 1983 3803 
Q 1772 4134 1522 4134 
Q 1206 4134 1036 3829 
Q 866 3525 866 3072 
z
" transform="scale(0.015625)"/>
        <path id="RobotoCondensed-Regular-36" d="M 2847 1484 
Q 2847 838 2544 387 
Q 2241 -63 1641 -63 
Q 1216 -63 944 198 
Q 672 459 542 861 
Q 413 1263 413 1684 
L 413 1956 
Q 413 2438 481 2900 
Q 550 3363 742 3738 
Q 934 4113 1296 4334 
Q 1659 4556 2291 4556 
L 2291 4066 
Q 1775 4066 1508 3859 
Q 1241 3653 1122 3318 
Q 1003 2984 978 2606 
Q 1272 2984 1750 2984 
Q 2138 2984 2380 2765 
Q 2622 2547 2734 2201 
Q 2847 1856 2847 1484 
z
M 969 1666 
Q 969 1059 1180 737 
Q 1391 416 1641 416 
Q 1959 416 2129 708 
Q 2300 1000 2300 1456 
Q 2300 1863 2144 2184 
Q 1988 2506 1659 2506 
Q 1425 2506 1236 2329 
Q 1047 2153 969 1900 
L 969 1666 
z
" transform="scale(0.015625)"/>
        <path id="RobotoCondensed-Regular-30" d="M 2797 1944 
Q 2797 825 2467 381 
Q 2138 -63 1581 -63 
Q 1038 -63 703 370 
Q 369 803 359 1878 
L 359 2638 
Q 359 3753 695 4183 
Q 1031 4613 1578 4613 
Q 2131 4613 2461 4189 
Q 2791 3766 2797 2681 
L 2797 1944 
z
M 2247 2734 
Q 2247 3503 2073 3822 
Q 1900 4141 1578 4141 
Q 1266 4141 1092 3833 
Q 919 3525 913 2791 
L 913 1850 
Q 913 1088 1089 750 
Q 1266 413 1581 413 
Q 1903 413 2072 738 
Q 2241 1063 2247 1794 
L 2247 2734 
z
" transform="scale(0.015625)"/>
       </defs>
       <use xlink:href="#RobotoCondensed-Regular-31"/>
       <use xlink:href="#RobotoCondensed-Regular-39" transform="translate(49.365234 0)"/>
       <use xlink:href="#RobotoCondensed-Regular-36" transform="translate(98.730469 0)"/>
       <use xlink:href="#RobotoCondensed-Regular-30" transform="translate(148.095703 0)"/>
      </g>
     </g>
    </g>
    <g id="xtick_2">
     <g id="line2d_2">
      <g>
       <use xlink:href="#m4cfbf442b7" x="102.336471" y="317.32" style="stroke: #000000; stroke-width: 0.8"/>
      </g>
     </g>
     <g id="text_2">
      <!-- 1965 -->
      <g transform="translate(92.464596 331.82) scale(0.1 -0.1)">
       <defs>
        <path id="RobotoCondensed-Regular-35" d="M 1034 2166 
L 594 2284 
L 788 4550 
L 2769 4550 
L 2769 4016 
L 1253 4016 
L 1147 2778 
Q 1438 2975 1753 2975 
Q 2288 2975 2591 2561 
Q 2894 2147 2894 1450 
Q 2894 797 2584 367 
Q 2275 -63 1656 -63 
Q 1194 -63 850 248 
Q 506 559 453 1197 
L 975 1197 
Q 1066 413 1656 413 
Q 1978 413 2159 691 
Q 2341 969 2341 1444 
Q 2341 1872 2153 2164 
Q 1966 2456 1619 2456 
Q 1384 2456 1273 2378 
Q 1163 2300 1034 2166 
z
" transform="scale(0.015625)"/>
       </defs>
       <use xlink:href="#RobotoCondensed-Regular-31"/>
       <use xlink:href="#RobotoCondensed-Regular-39" transform="translate(49.365234 0)"/>
       <use xlink:href="#RobotoCondensed-Regular-36" transform="translate(98.730469 0)"/>
       <use xlink:href="#RobotoCondensed-Regular-35" transform="translate(148.095703 0)"/>
      </g>
     </g>
    </g>
    <g id="xtick_3">
     <g id="line2d_3">
      <g>
       <use xlink:href="#m4cfbf442b7" x="157.312941" y="317.32" style="stroke: #000000; stroke-width: 0.8"/>
      </g>
     </g>
     <g id="text_3">
      <!-- 1970 -->
      <g transform="translate(147.441066 331.82) scale(0.1 -0.1)">
       <defs>
        <path id="RobotoCondensed-Regular-37" d="M 2878 4550 
L 2878 4225 
L 1313 0 
L 731 0 
L 2297 4075 
L 269 4075 
L 269 4550 
L 2878 4550 
z
" transform="scale(0.015625)"/>
       </defs>
       <use xlink:href="#RobotoCondensed-Regular-31"/>
       <use xlink:href="#RobotoCondensed-Regular-39" transform="translate(49.365234 0)"/>
       <use xlink:href="#RobotoCondensed-Regular-37" transform="translate(98.730469 0)"/>
       <use xlink:href="#RobotoCondensed-Regular-30" transform="translate(148.095703 0)"/>
      </g>
     </g>
    </g>
    <g id="xtick_4">
     <g id="line2d_4">
      <g>
       <use xlink:href="#m4cfbf442b7" x="212.289412" y="317.32" style="stroke: #000000; stroke-width: 0.8"/>
      </g>
     </g>
     <g id="text_4">
      <!-- 1975 -->
      <g transform="translate(202.417537 331.82) scale(0.1 -0.1)">
       <use xlink:href="#RobotoCondensed-Regular-31"/>
       <use xlink:href="#RobotoCondensed-Regular-39" transform="translate(49.365234 0)"/>
       <use xlink:href="#RobotoCondensed-Regular-37" transform="translate(98.730469 0)"/>
       <use xlink:href="#RobotoCondensed-Regular-35" transform="translate(148.095703 0)"/>
      </g>
     </g>
    </g>
    <g id="xtick_5">
     <g id="line2d_5">
      <g>
       <use xlink:href="#m4cfbf442b7" x="267.265882" y="317.32" style="stroke: #000000; stroke-width: 0.8"/>
      </g>
     </g>
     <g id="text_5">
      <!-- 1980 -->
      <g transform="translate(257.394007 331.82) scale(0.1 -0.1)">
       <defs>
        <path id="RobotoCondensed-Regular-38" d="M 2794 1231 
Q 2794 606 2445 271 
Q 2097 -63 1578 -63 
Q 1063 -63 714 273 
Q 366 609 366 1231 
Q 366 1613 536 1905 
Q 706 2197 1000 2347 
Q 450 2666 450 3366 
Q 450 3963 769 4288 
Q 1088 4613 1581 4613 
Q 2075 4613 2392 4288 
Q 2709 3963 2709 3366 
Q 2709 3028 2557 2761 
Q 2406 2494 2150 2344 
Q 2444 2194 2619 1901 
Q 2794 1609 2794 1231 
z
M 2156 3356 
Q 2156 3697 2000 3917 
Q 1844 4138 1581 4138 
Q 1319 4138 1161 3927 
Q 1003 3716 1003 3356 
Q 1003 3003 1159 2790 
Q 1316 2578 1581 2578 
Q 1844 2578 2000 2790 
Q 2156 3003 2156 3356 
z
M 2244 1244 
Q 2244 1625 2061 1865 
Q 1878 2106 1575 2106 
Q 1266 2106 1091 1865 
Q 916 1625 916 1244 
Q 916 850 1089 631 
Q 1263 413 1578 413 
Q 1897 413 2070 631 
Q 2244 850 2244 1244 
z
" transform="scale(0.015625)"/>
       </defs>
       <use xlink:href="#RobotoCondensed-Regular-31"/>
       <use xlink:href="#RobotoCondensed-Regular-39" transform="translate(49.365234 0)"/>
       <use xlink:href="#RobotoCondensed-Regular-38" transform="translate(98.730469 0)"/>
       <use xlink:href="#RobotoCondensed-Regular-30" transform="translate(148.095703 0)"/>
      </g>
     </g>
    </g>
    <g id="xtick_6">
     <g id="line2d_6">
      <g>
       <use xlink:href="#m4cfbf442b7" x="322.242353" y="317.32" style="stroke: #000000; stroke-width: 0.8"/>
      </g>
     </g>
     <g id="text_6">
      <!-- 1985 -->
      <g transform="translate(312.370478 331.82) scale(0.1 -0.1)">
       <use xlink:href="#RobotoCondensed-Regular-31"/>
       <use xlink:href="#RobotoCondensed-Regular-39" transform="translate(49.365234 0)"/>
       <use xlink:href="#RobotoCondensed-Regular-38" transform="translate(98.730469 0)"/>
       <use xlink:href="#RobotoCondensed-Regular-35" transform="translate(148.095703 0)"/>
      </g>
     </g>
    </g>
    <g id="xtick_7">
     <g id="line2d_7">
      <g>
       <use xlink:href="#m4cfbf442b7" x="377.218824" y="317.32" style="stroke: #000000; stroke-width: 0.8"/>
      </g>
     </g>
     <g id="text_7">
      <!-- 1990 -->
      <g transform="translate(367.346949 331.82) scale(0.1 -0.1)">
       <use xlink:href="#RobotoCondensed-Regular-31"/>
       <use xlink:href="#RobotoCondensed-Regular-39" transform="translate(49.365234 0)"/>
       <use xlink:href="#RobotoCondensed-Regular-39" transform="translate(98.730469 0)"/>
       <use xlink:href="#RobotoCondensed-Regular-30" transform="translate(148.095703 0)"/>
      </g>
     </g>
    </g>
    <g id="text_8">
     <!-- Birth year -->
     <g transform="translate(211.734062 346.85125) scale(0.12 -0.12)">
      <defs>
       <path id="RobotoCondensed-Regular-42" d="M 3125 1313 
Q 3125 675 2776 337 
Q 2428 0 1847 0 
L 491 0 
L 491 4550 
L 1791 4550 
Q 2375 4550 2706 4261 
Q 3038 3972 3038 3338 
Q 3038 3025 2880 2779 
Q 2722 2534 2453 2400 
Q 2781 2297 2953 1998 
Q 3125 1700 3125 1313 
z
M 1066 4056 
L 1066 2613 
L 1797 2613 
Q 2088 2613 2275 2806 
Q 2463 3000 2463 3344 
Q 2463 4041 1819 4056 
L 1066 4056 
z
M 2550 1306 
Q 2550 2106 1906 2128 
L 1066 2128 
L 1066 491 
L 1847 491 
Q 2181 491 2365 711 
Q 2550 931 2550 1306 
z
" transform="scale(0.015625)"/>
       <path id="RobotoCondensed-Regular-69" d="M 428 4278 
Q 428 4419 506 4516 
Q 584 4613 741 4613 
Q 894 4613 975 4516 
Q 1056 4419 1056 4278 
Q 1056 4144 975 4048 
Q 894 3953 741 3953 
Q 584 3953 506 4048 
Q 428 4144 428 4278 
z
M 1009 3381 
L 1009 0 
L 459 0 
L 459 3381 
L 1009 3381 
z
" transform="scale(0.015625)"/>
       <path id="RobotoCondensed-Regular-72" d="M 1563 2888 
Q 1138 2888 969 2425 
L 969 0 
L 416 0 
L 416 3381 
L 950 3381 
L 963 3041 
Q 1184 3444 1591 3444 
Q 1738 3444 1809 3400 
L 1813 2863 
Q 1691 2888 1563 2888 
z
" transform="scale(0.015625)"/>
       <path id="RobotoCondensed-Regular-74" d="M 1647 0 
Q 1488 -63 1259 -63 
Q 991 -63 789 134 
Q 588 331 588 841 
L 588 2938 
L 72 2938 
L 72 3381 
L 588 3381 
L 588 4203 
L 1141 4203 
L 1141 3381 
L 1650 3381 
L 1650 2938 
L 1141 2938 
L 1141 838 
Q 1141 578 1230 506 
Q 1319 434 1431 434 
Q 1550 434 1650 472 
L 1647 0 
z
" transform="scale(0.015625)"/>
       <path id="RobotoCondensed-Regular-68" d="M 1603 2956 
Q 1400 2956 1236 2818 
Q 1072 2681 969 2459 
L 969 0 
L 416 0 
L 416 4800 
L 969 4800 
L 969 3041 
Q 1288 3444 1775 3444 
Q 2191 3444 2437 3162 
Q 2684 2881 2684 2216 
L 2684 0 
L 2131 0 
L 2131 2222 
Q 2131 2619 2000 2787 
Q 1869 2956 1603 2956 
z
" transform="scale(0.015625)"/>
       <path id="RobotoCondensed-Regular-20" transform="scale(0.015625)"/>
       <path id="RobotoCondensed-Regular-79" d="M 1425 -522 
Q 1153 -1366 563 -1366 
Q 409 -1366 278 -1316 
L 278 -847 
Q 328 -859 397 -859 
Q 631 -859 770 -746 
Q 909 -634 997 -338 
L 1106 31 
L 109 3381 
L 713 3381 
L 1341 922 
L 1953 3381 
L 2541 3381 
L 1425 -522 
z
" transform="scale(0.015625)"/>
       <path id="RobotoCondensed-Regular-65" d="M 2722 447 
Q 2584 253 2323 95 
Q 2063 -63 1625 -63 
Q 1019 -63 666 301 
Q 313 666 309 1431 
L 309 1828 
Q 309 2722 696 3083 
Q 1084 3444 1563 3444 
Q 2197 3444 2472 3034 
Q 2747 2625 2747 1850 
L 2747 1528 
L 863 1528 
L 863 1447 
Q 863 906 1067 657 
Q 1272 409 1656 409 
Q 1934 409 2114 517 
Q 2294 625 2431 794 
L 2722 447 
z
M 1563 2969 
Q 1275 2969 1084 2770 
Q 894 2572 866 2000 
L 2194 2000 
L 2194 2078 
Q 2172 2469 2048 2719 
Q 1925 2969 1563 2969 
z
" transform="scale(0.015625)"/>
       <path id="RobotoCondensed-Regular-61" d="M 2156 0 
Q 2103 122 2081 366 
Q 1966 194 1775 65 
Q 1584 -63 1334 -63 
Q 891 -63 623 187 
Q 356 438 356 922 
Q 356 1409 690 1729 
Q 1025 2050 1691 2050 
L 2072 2050 
L 2072 2413 
Q 2072 2713 1936 2841 
Q 1800 2969 1528 2969 
Q 1263 2969 1114 2812 
Q 966 2656 966 2444 
L 413 2444 
Q 413 2806 722 3125 
Q 1031 3444 1556 3444 
Q 2025 3444 2325 3209 
Q 2625 2975 2625 2406 
L 2625 794 
Q 2625 316 2728 50 
L 2728 0 
L 2156 0 
z
M 1419 441 
Q 1653 441 1825 562 
Q 1997 684 2072 834 
L 2072 1644 
L 1781 1644 
Q 1384 1644 1146 1475 
Q 909 1306 909 991 
Q 909 688 1036 564 
Q 1163 441 1419 441 
z
" transform="scale(0.015625)"/>
      </defs>
      <use xlink:href="#RobotoCondensed-Regular-42"/>
      <use xlink:href="#RobotoCondensed-Regular-69" transform="translate(54.589844 0)"/>
      <use xlink:href="#RobotoCondensed-Regular-72" transform="translate(77.539062 0)"/>
      <use xlink:href="#RobotoCondensed-Regular-74" transform="translate(108.007812 0)"/>
      <use xlink:href="#RobotoCondensed-Regular-68" transform="translate(137.597656 0)"/>
      <use xlink:href="#RobotoCondensed-Regular-20" transform="translate(185.888672 0)"/>
      <use xlink:href="#RobotoCondensed-Regular-79" transform="translate(208.837891 0)"/>
      <use xlink:href="#RobotoCondensed-Regular-65" transform="translate(250.488281 0)"/>
      <use xlink:href="#RobotoCondensed-Regular-61" transform="translate(297.363281 0)"/>
      <use xlink:href="#RobotoCondensed-Regular-72" transform="translate(345.263672 0)"/>
     </g>
    </g>
   </g>
   <g id="matplotlib.axis_2">
    <g id="ytick_1">
     <g id="line2d_8">
      <defs>
       <path id="ma5d0182319" d="M 0 0 
L -3.5 0 
" style="stroke: #000000; stroke-width: 0.8"/>
      </defs>
      <g>
       <use xlink:href="#ma5d0182319" x="47.36" y="288.342375" style="stroke: #000000; stroke-width: 0.8"/>
      </g>
     </g>
     <g id="text_9">
      <!-- 99 -->
      <g transform="translate(30.488125 292.092375) scale(0.1 -0.1)">
       <use xlink:href="#RobotoCondensed-Regular-39"/>
       <use xlink:href="#RobotoCondensed-Regular-39" transform="translate(49.365234 0)"/>
      </g>
     </g>
    </g>
    <g id="ytick_2">
     <g id="line2d_9">
      <g>
       <use xlink:href="#ma5d0182319" x="47.36" y="230.387125" style="stroke: #000000; stroke-width: 0.8"/>
      </g>
     </g>
     <g id="text_10">
      <!-- 100 -->
      <g transform="translate(25.552188 234.137125) scale(0.1 -0.1)">
       <use xlink:href="#RobotoCondensed-Regular-31"/>
       <use xlink:href="#RobotoCondensed-Regular-30" transform="translate(49.365234 0)"/>
       <use xlink:href="#RobotoCondensed-Regular-30" transform="translate(98.730469 0)"/>
      </g>
     </g>
    </g>
    <g id="ytick_3">
     <g id="line2d_10">
      <g>
       <use xlink:href="#ma5d0182319" x="47.36" y="172.431875" style="stroke: #000000; stroke-width: 0.8"/>
      </g>
     </g>
     <g id="text_11">
      <!-- 101 -->
      <g transform="translate(25.552188 176.181875) scale(0.1 -0.1)">
       <use xlink:href="#RobotoCondensed-Regular-31"/>
       <use xlink:href="#RobotoCondensed-Regular-30" transform="translate(49.365234 0)"/>
       <use xlink:href="#RobotoCondensed-Regular-31" transform="translate(98.730469 0)"/>
      </g>
     </g>
    </g>
    <g id="ytick_4">
     <g id="line2d_11">
      <g>
       <use xlink:href="#ma5d0182319" x="47.36" y="114.476625" style="stroke: #000000; stroke-width: 0.8"/>
      </g>
     </g>
     <g id="text_12">
      <!-- 102 -->
      <g transform="translate(25.552188 118.226625) scale(0.1 -0.1)">
       <defs>
        <path id="RobotoCondensed-Regular-32" d="M 2909 475 
L 2909 0 
L 366 0 
L 366 416 
L 1628 2088 
Q 1966 2541 2077 2802 
Q 2188 3063 2188 3328 
Q 2188 3663 2027 3900 
Q 1866 4138 1575 4138 
Q 1194 4138 1022 3878 
Q 850 3619 850 3213 
L 297 3213 
Q 297 3788 617 4200 
Q 938 4613 1575 4613 
Q 2125 4613 2433 4278 
Q 2741 3944 2741 3397 
Q 2741 2997 2541 2594 
Q 2341 2191 2047 1809 
L 1028 475 
L 2909 475 
z
" transform="scale(0.015625)"/>
       </defs>
       <use xlink:href="#RobotoCondensed-Regular-31"/>
       <use xlink:href="#RobotoCondensed-Regular-30" transform="translate(49.365234 0)"/>
       <use xlink:href="#RobotoCondensed-Regular-32" transform="translate(98.730469 0)"/>
      </g>
     </g>
    </g>
    <g id="ytick_5">
     <g id="line2d_12">
      <g>
       <use xlink:href="#ma5d0182319" x="47.36" y="56.521375" style="stroke: #000000; stroke-width: 0.8"/>
      </g>
     </g>
     <g id="text_13">
      <!-- 103 -->
      <g transform="translate(25.552188 60.271375) scale(0.1 -0.1)">
       <defs>
        <path id="RobotoCondensed-Regular-33" d="M 1075 2084 
L 1075 2559 
L 1431 2559 
Q 1788 2559 1961 2781 
Q 2134 3003 2134 3338 
Q 2134 4138 1519 4138 
Q 1228 4138 1054 3927 
Q 881 3716 881 3359 
L 331 3359 
Q 331 3881 653 4247 
Q 975 4613 1519 4613 
Q 2038 4613 2363 4286 
Q 2688 3959 2688 3325 
Q 2688 3072 2550 2786 
Q 2413 2500 2100 2338 
Q 2484 2194 2612 1886 
Q 2741 1578 2741 1269 
Q 2741 631 2389 284 
Q 2038 -63 1516 -63 
Q 1006 -63 656 267 
Q 306 597 306 1203 
L 859 1203 
Q 859 844 1032 628 
Q 1206 413 1516 413 
Q 1822 413 2005 622 
Q 2188 831 2188 1256 
Q 2188 2084 1403 2084 
L 1075 2084 
z
" transform="scale(0.015625)"/>
       </defs>
       <use xlink:href="#RobotoCondensed-Regular-31"/>
       <use xlink:href="#RobotoCondensed-Regular-30" transform="translate(49.365234 0)"/>
       <use xlink:href="#RobotoCondensed-Regular-33" transform="translate(98.730469 0)"/>
      </g>
     </g>
    </g>
    <g id="text_14">
     <!-- IQ score -->
     <g transform="translate(19.114688 192.07625) rotate(-90) scale(0.12 -0.12)">
      <defs>
       <path id="RobotoCondensed-Regular-49" d="M 1091 4550 
L 1091 0 
L 516 0 
L 516 4550 
L 1091 4550 
z
" transform="scale(0.015625)"/>
       <path id="RobotoCondensed-Regular-51" d="M 3488 -394 
L 3097 -769 
L 2281 -22 
Q 2100 -63 1897 -63 
Q 1225 -63 801 412 
Q 378 888 366 1825 
L 366 2669 
Q 366 3634 787 4123 
Q 1209 4613 1894 4613 
Q 2594 4613 3005 4133 
Q 3416 3653 3425 2713 
L 3425 1881 
Q 3425 703 2809 222 
L 3488 -394 
z
M 2856 2675 
Q 2856 3425 2607 3762 
Q 2359 4100 1894 4100 
Q 1453 4100 1195 3762 
Q 938 3425 938 2675 
L 938 1881 
Q 938 1125 1198 786 
Q 1459 447 1897 447 
Q 2366 447 2609 781 
Q 2853 1116 2856 1863 
L 2856 2675 
z
" transform="scale(0.015625)"/>
       <path id="RobotoCondensed-Regular-73" d="M 2056 866 
Q 2056 1059 1907 1190 
Q 1759 1322 1340 1500 
Q 922 1678 681 1863 
Q 409 2072 409 2484 
Q 409 2888 703 3166 
Q 997 3444 1481 3444 
Q 2000 3444 2287 3150 
Q 2575 2856 2575 2419 
L 2025 2419 
Q 2025 2628 1884 2798 
Q 1744 2969 1481 2969 
Q 1203 2969 1083 2828 
Q 963 2688 963 2503 
Q 963 2319 1081 2217 
Q 1200 2116 1553 1959 
Q 2066 1756 2337 1537 
Q 2609 1319 2609 909 
Q 2609 463 2303 200 
Q 1997 -63 1494 -63 
Q 919 -63 616 265 
Q 313 594 313 1013 
L 866 1013 
Q 881 653 1081 533 
Q 1281 413 1494 413 
Q 2056 413 2056 866 
z
" transform="scale(0.015625)"/>
       <path id="RobotoCondensed-Regular-63" d="M 1588 409 
Q 1834 409 2012 564 
Q 2191 719 2213 1069 
L 2731 1069 
Q 2713 559 2378 248 
Q 2044 -63 1588 -63 
Q 934 -63 621 342 
Q 309 747 303 1472 
L 303 1881 
Q 303 2619 617 3031 
Q 931 3444 1588 3444 
Q 2103 3444 2408 3120 
Q 2713 2797 2731 2219 
L 2213 2219 
Q 2169 2969 1588 2969 
Q 1150 2969 1003 2672 
Q 856 2375 856 1881 
L 856 1500 
Q 856 1003 1001 706 
Q 1147 409 1588 409 
z
" transform="scale(0.015625)"/>
       <path id="RobotoCondensed-Regular-6f" d="M 300 1850 
Q 300 2641 678 3042 
Q 1056 3444 1603 3444 
Q 2156 3444 2536 3042 
Q 2916 2641 2916 1850 
L 2916 1528 
Q 2916 738 2536 337 
Q 2156 -63 1609 -63 
Q 1059 -63 679 337 
Q 300 738 300 1528 
L 300 1850 
z
M 853 1528 
Q 853 969 1068 689 
Q 1284 409 1609 409 
Q 2341 409 2363 1466 
L 2363 1850 
Q 2363 2403 2145 2686 
Q 1928 2969 1603 2969 
Q 1281 2969 1067 2686 
Q 853 2403 853 1850 
L 853 1528 
z
" transform="scale(0.015625)"/>
      </defs>
      <use xlink:href="#RobotoCondensed-Regular-49"/>
      <use xlink:href="#RobotoCondensed-Regular-51" transform="translate(25 0)"/>
      <use xlink:href="#RobotoCondensed-Regular-20" transform="translate(85.107422 0)"/>
      <use xlink:href="#RobotoCondensed-Regular-73" transform="translate(108.056641 0)"/>
      <use xlink:href="#RobotoCondensed-Regular-63" transform="translate(153.662109 0)"/>
      <use xlink:href="#RobotoCondensed-Regular-6f" transform="translate(199.853516 0)"/>
      <use xlink:href="#RobotoCondensed-Regular-72" transform="translate(250.048828 0)"/>
      <use xlink:href="#RobotoCondensed-Regular-65" transform="translate(280.517578 0)"/>
     </g>
    </g>
   </g>
   <g id="line2d_13">
    <path d="M 69.350588 259.36475 
L 80.345882 265.160275 
L 91.341176 253.569225 
L 102.336471 224.5916 
L 113.331765 189.81845 
L 124.327059 172.431875 
L 135.322353 166.63635 
L 146.317647 149.249775 
L 157.312941 137.658725 
L 168.308235 114.476625 
L 179.303529 97.09005 
L 190.298824 91.294525 
L 201.294118 85.499 
L 212.289412 97.09005 
L 223.284706 114.476625 
L 234.28 126.067675 
L 245.275294 137.658725 
L 256.270588 155.0453 
L 267.265882 172.431875 
L 278.261176 160.840825 
L 289.256471 149.249775 
L 300.251765 166.63635 
L 311.247059 178.2274 
L 322.242353 155.0453 
L 333.237647 184.022925 
L 344.232941 218.796075 
L 355.228235 236.18265 
L 366.223529 265.160275 
L 377.218824 270.9558 
L 388.214118 253.569225 
L 399.209412 236.18265 
" clip-path="url(#p88018120ae)" style="fill: none; stroke: #000000; stroke-width: 2.5; stroke-linecap: square"/>
   </g>
   <g id="line2d_14">
    <path d="M 47.36 230.387125 
L 421.2 230.387125 
" clip-path="url(#p88018120ae)" style="fill: none; stroke-dasharray: 1.85,0.8; stroke-dashoffset: 0; stroke: #808080; stroke-width: 0.5"/>
   </g>
   <g id="patch_3">
    <path d="M 47.36 317.32 
L 47.36 27.54375 
" style="fill: none; stroke: #000000; stroke-width: 0.8; stroke-linejoin: miter; stroke-linecap: square"/>
   </g>
   <g id="patch_4">
    <path d="M 421.2 317.32 
L 421.2 27.54375 
" style="fill: none; stroke: #000000; stroke-width: 0.8; stroke-linejoin: miter; stroke-linecap: square"/>
   </g>
   <g id="patch_5">
    <path d="M 47.36 317.32 
L 421.2 317.32 
" style="fill: none; stroke: #000000; stroke-width: 0.8; stroke-linejoin: miter; stroke-linecap: square"/>
   </g>
   <g id="patch_6">
    <path d="M 47.36 27.54375 
L 421.2 27.54375 
" style="fill: none; stroke: #000000; stroke-width: 0.8; stroke-linejoin: miter; stroke-linecap: square"/>
   </g>
   <g id="text_15">
    <!-- The Flynn effect and its reversal (Bratsberg &amp; Rogeberg, 2018) -->
    <g transform="translate(62.878437 21.54375) scale(0.14 -0.14)">
     <defs>
      <path id="RobotoCondensed-Regular-54" d="M 191 4056 
L 191 4550 
L 3150 4550 
L 3150 4056 
L 1953 4056 
L 1953 0 
L 1384 0 
L 1384 4056 
L 191 4056 
z
" transform="scale(0.015625)"/>
      <path id="RobotoCondensed-Regular-46" d="M 491 0 
L 491 4550 
L 2859 4550 
L 2859 4056 
L 1066 4056 
L 1066 2503 
L 2600 2503 
L 2600 2009 
L 1066 2009 
L 1066 0 
L 491 0 
z
" transform="scale(0.015625)"/>
      <path id="RobotoCondensed-Regular-6c" d="M 1009 4800 
L 1009 0 
L 459 0 
L 459 4800 
L 1009 4800 
z
" transform="scale(0.015625)"/>
      <path id="RobotoCondensed-Regular-6e" d="M 1603 2956 
Q 1400 2956 1236 2818 
Q 1072 2681 969 2459 
L 969 0 
L 416 0 
L 416 3381 
L 938 3381 
L 953 3022 
Q 1275 3444 1775 3444 
Q 2191 3444 2437 3162 
Q 2684 2881 2684 2216 
L 2684 0 
L 2131 0 
L 2131 2222 
Q 2131 2619 2000 2787 
Q 1869 2956 1603 2956 
z
" transform="scale(0.015625)"/>
      <path id="RobotoCondensed-Regular-66" d="M 1788 2938 
L 1213 2938 
L 1213 0 
L 659 0 
L 659 2938 
L 219 2938 
L 219 3381 
L 659 3381 
L 659 3763 
Q 666 4297 923 4581 
Q 1181 4866 1628 4866 
Q 1794 4866 1963 4816 
L 1938 4344 
Q 1834 4372 1684 4372 
Q 1222 4372 1213 3763 
L 1213 3381 
L 1788 3381 
L 1788 2938 
z
" transform="scale(0.015625)"/>
      <path id="RobotoCondensed-Regular-64" d="M 2234 0 
L 2209 366 
Q 1941 -63 1425 -63 
Q 925 -63 611 331 
Q 297 725 297 1528 
L 297 1844 
Q 297 2678 609 3061 
Q 922 3444 1431 3444 
Q 1922 3444 2188 3050 
L 2188 4800 
L 2738 4800 
L 2738 0 
L 2234 0 
z
M 850 1528 
Q 850 963 1019 695 
Q 1188 428 1569 428 
Q 1981 428 2188 847 
L 2188 2544 
Q 1972 2956 1575 2956 
Q 1194 2956 1023 2687 
Q 853 2419 850 1866 
L 850 1528 
z
" transform="scale(0.015625)"/>
      <path id="RobotoCondensed-Regular-76" d="M 2578 3381 
L 1575 0 
L 1159 0 
L 144 3381 
L 706 3381 
L 1372 847 
L 2016 3381 
L 2578 3381 
z
" transform="scale(0.015625)"/>
      <path id="RobotoCondensed-Regular-28" d="M 406 1850 
Q 406 2756 636 3434 
Q 866 4113 1177 4541 
Q 1488 4969 1728 5134 
L 1841 4753 
Q 1547 4475 1253 3761 
Q 959 3047 959 1813 
Q 959 625 1253 -97 
Q 1547 -819 1841 -1119 
L 1728 -1469 
Q 1488 -1306 1177 -878 
Q 866 -450 636 226 
Q 406 903 406 1850 
z
" transform="scale(0.015625)"/>
      <path id="RobotoCondensed-Regular-62" d="M 2866 1528 
Q 2866 725 2575 331 
Q 2284 -63 1753 -63 
Q 1219 -63 950 400 
L 922 0 
L 416 0 
L 416 4800 
L 969 4800 
L 969 3016 
Q 1234 3444 1750 3444 
Q 2278 3444 2567 3073 
Q 2856 2703 2866 1897 
L 2866 1528 
z
M 1606 2956 
Q 1181 2956 969 2497 
L 969 884 
Q 1181 428 1609 428 
Q 1984 428 2146 690 
Q 2309 953 2313 1506 
L 2313 1844 
Q 2313 2406 2159 2681 
Q 2006 2956 1606 2956 
z
" transform="scale(0.015625)"/>
      <path id="RobotoCondensed-Regular-67" d="M 1525 -1334 
Q 1331 -1334 1007 -1229 
Q 684 -1125 497 -906 
L 725 -522 
Q 1056 -859 1484 -859 
Q 1806 -859 2000 -679 
Q 2194 -500 2194 -56 
L 2194 338 
Q 1925 -63 1428 -63 
Q 919 -63 611 331 
Q 303 725 303 1528 
L 303 1844 
Q 303 2678 608 3061 
Q 913 3444 1434 3444 
Q 1953 3444 2219 3006 
L 2247 3381 
L 2744 3381 
L 2744 -41 
Q 2741 -703 2402 -1018 
Q 2063 -1334 1525 -1334 
z
M 856 1528 
Q 856 963 1025 695 
Q 1194 428 1572 428 
Q 1988 428 2194 853 
L 2194 2541 
Q 1978 2956 1578 2956 
Q 1197 2956 1028 2687 
Q 859 2419 856 1866 
L 856 1528 
z
" transform="scale(0.015625)"/>
      <path id="RobotoCondensed-Regular-26" d="M 2766 0 
L 2534 338 
Q 2338 138 2080 37 
Q 1822 -63 1578 -63 
Q 997 -63 659 300 
Q 322 663 322 1225 
Q 322 1628 530 1906 
Q 738 2184 1072 2456 
Q 872 2741 747 2989 
Q 622 3238 622 3509 
Q 622 4041 892 4327 
Q 1163 4613 1609 4613 
Q 2044 4613 2298 4327 
Q 2553 4041 2553 3653 
Q 2553 3334 2425 3112 
Q 2297 2891 2053 2681 
L 1747 2419 
L 2547 1266 
Q 2694 1647 2694 2100 
L 3188 2100 
Q 3188 1313 2869 800 
L 3425 0 
L 2766 0 
z
M 1175 3528 
Q 1175 3244 1478 2803 
L 1716 3009 
Q 1881 3144 1962 3280 
Q 2044 3416 2044 3653 
Q 2044 3838 1930 3989 
Q 1816 4141 1606 4141 
Q 1394 4141 1284 3958 
Q 1175 3775 1175 3528 
z
M 875 1225 
Q 875 894 1048 653 
Q 1222 413 1578 413 
Q 1944 413 2247 756 
L 1347 2072 
L 1250 1991 
Q 988 1744 931 1534 
Q 875 1325 875 1225 
z
" transform="scale(0.015625)"/>
      <path id="RobotoCondensed-Regular-52" d="M 2678 0 
L 1869 1844 
L 1069 1844 
L 1069 0 
L 494 0 
L 494 4550 
L 1766 4550 
Q 2444 4550 2783 4208 
Q 3122 3866 3122 3184 
Q 3122 2303 2409 1975 
L 3294 38 
L 3294 0 
L 2678 0 
z
M 1069 4056 
L 1069 2334 
L 1759 2334 
Q 2153 2334 2350 2582 
Q 2547 2831 2547 3184 
Q 2547 3578 2369 3817 
Q 2191 4056 1766 4056 
L 1069 4056 
z
" transform="scale(0.015625)"/>
      <path id="RobotoCondensed-Regular-2c" d="M 966 688 
L 966 222 
Q 966 -63 822 -380 
Q 678 -697 419 -909 
L 91 -681 
Q 391 -263 400 175 
L 400 688 
L 966 688 
z
" transform="scale(0.015625)"/>
      <path id="RobotoCondensed-Regular-29" d="M 1603 1819 
Q 1603 906 1373 228 
Q 1144 -450 833 -878 
Q 522 -1306 281 -1469 
L 169 -1119 
Q 463 -841 758 -109 
Q 1053 622 1053 1856 
Q 1053 2647 904 3236 
Q 756 3825 550 4212 
Q 344 4600 169 4781 
L 281 5134 
Q 522 4969 833 4541 
Q 1144 4113 1373 3436 
Q 1603 2759 1603 1819 
z
" transform="scale(0.015625)"/>
     </defs>
     <use xlink:href="#RobotoCondensed-Regular-54"/>
     <use xlink:href="#RobotoCondensed-Regular-68" transform="translate(52.050781 0)"/>
     <use xlink:href="#RobotoCondensed-Regular-65" transform="translate(100.341797 0)"/>
     <use xlink:href="#RobotoCondensed-Regular-20" transform="translate(147.216797 0)"/>
     <use xlink:href="#RobotoCondensed-Regular-46" transform="translate(170.166016 0)"/>
     <use xlink:href="#RobotoCondensed-Regular-6c" transform="translate(218.261719 0)"/>
     <use xlink:href="#RobotoCondensed-Regular-79" transform="translate(241.210938 0)"/>
     <use xlink:href="#RobotoCondensed-Regular-6e" transform="translate(282.861328 0)"/>
     <use xlink:href="#RobotoCondensed-Regular-6e" transform="translate(331.298828 0)"/>
     <use xlink:href="#RobotoCondensed-Regular-20" transform="translate(379.736328 0)"/>
     <use xlink:href="#RobotoCondensed-Regular-65" transform="translate(402.685547 0)"/>
     <use xlink:href="#RobotoCondensed-Regular-66" transform="translate(449.560547 0)"/>
     <use xlink:href="#RobotoCondensed-Regular-66" transform="translate(481.201172 0)"/>
     <use xlink:href="#RobotoCondensed-Regular-65" transform="translate(512.841797 0)"/>
     <use xlink:href="#RobotoCondensed-Regular-63" transform="translate(559.716797 0)"/>
     <use xlink:href="#RobotoCondensed-Regular-74" transform="translate(605.908203 0)"/>
     <use xlink:href="#RobotoCondensed-Regular-20" transform="translate(635.498047 0)"/>
     <use xlink:href="#RobotoCondensed-Regular-61" transform="translate(658.447266 0)"/>
     <use xlink:href="#RobotoCondensed-Regular-6e" transform="translate(706.347656 0)"/>
     <use xlink:href="#RobotoCondensed-Regular-64" transform="translate(754.785156 0)"/>
     <use xlink:href="#RobotoCondensed-Regular-20" transform="translate(804.394531 0)"/>
     <use xlink:href="#RobotoCondensed-Regular-69" transform="translate(827.34375 0)"/>
     <use xlink:href="#RobotoCondensed-Regular-74" transform="translate(850.292969 0)"/>
     <use xlink:href="#RobotoCondensed-Regular-73" transform="translate(879.882812 0)"/>
     <use xlink:href="#RobotoCondensed-Regular-20" transform="translate(925.488281 0)"/>
     <use xlink:href="#RobotoCondensed-Regular-72" transform="translate(948.4375 0)"/>
     <use xlink:href="#RobotoCondensed-Regular-65" transform="translate(978.90625 0)"/>
     <use xlink:href="#RobotoCondensed-Regular-76" transform="translate(1025.78125 0)"/>
     <use xlink:href="#RobotoCondensed-Regular-65" transform="translate(1068.554688 0)"/>
     <use xlink:href="#RobotoCondensed-Regular-72" transform="translate(1115.429688 0)"/>
     <use xlink:href="#RobotoCondensed-Regular-73" transform="translate(1145.898438 0)"/>
     <use xlink:href="#RobotoCondensed-Regular-61" transform="translate(1191.503906 0)"/>
     <use xlink:href="#RobotoCondensed-Regular-6c" transform="translate(1239.404297 0)"/>
     <use xlink:href="#RobotoCondensed-Regular-20" transform="translate(1262.353516 0)"/>
     <use xlink:href="#RobotoCondensed-Regular-28" transform="translate(1285.302734 0)"/>
     <use xlink:href="#RobotoCondensed-Regular-42" transform="translate(1316.699219 0)"/>
     <use xlink:href="#RobotoCondensed-Regular-72" transform="translate(1371.289062 0)"/>
     <use xlink:href="#RobotoCondensed-Regular-61" transform="translate(1401.757812 0)"/>
     <use xlink:href="#RobotoCondensed-Regular-74" transform="translate(1449.658203 0)"/>
     <use xlink:href="#RobotoCondensed-Regular-73" transform="translate(1479.248047 0)"/>
     <use xlink:href="#RobotoCondensed-Regular-62" transform="translate(1524.853516 0)"/>
     <use xlink:href="#RobotoCondensed-Regular-65" transform="translate(1574.169922 0)"/>
     <use xlink:href="#RobotoCondensed-Regular-72" transform="translate(1621.044922 0)"/>
     <use xlink:href="#RobotoCondensed-Regular-67" transform="translate(1651.513672 0)"/>
     <use xlink:href="#RobotoCondensed-Regular-20" transform="translate(1700.830078 0)"/>
     <use xlink:href="#RobotoCondensed-Regular-26" transform="translate(1723.779297 0)"/>
     <use xlink:href="#RobotoCondensed-Regular-20" transform="translate(1778.173828 0)"/>
     <use xlink:href="#RobotoCondensed-Regular-52" transform="translate(1801.123047 0)"/>
     <use xlink:href="#RobotoCondensed-Regular-6f" transform="translate(1854.199219 0)"/>
     <use xlink:href="#RobotoCondensed-Regular-67" transform="translate(1904.394531 0)"/>
     <use xlink:href="#RobotoCondensed-Regular-65" transform="translate(1953.710938 0)"/>
     <use xlink:href="#RobotoCondensed-Regular-62" transform="translate(2000.585938 0)"/>
     <use xlink:href="#RobotoCondensed-Regular-65" transform="translate(2049.902344 0)"/>
     <use xlink:href="#RobotoCondensed-Regular-72" transform="translate(2096.777344 0)"/>
     <use xlink:href="#RobotoCondensed-Regular-67" transform="translate(2127.246094 0)"/>
     <use xlink:href="#RobotoCondensed-Regular-2c" transform="translate(2176.5625 0)"/>
     <use xlink:href="#RobotoCondensed-Regular-20" transform="translate(2196.240234 0)"/>
     <use xlink:href="#RobotoCondensed-Regular-32" transform="translate(2219.189453 0)"/>
     <use xlink:href="#RobotoCondensed-Regular-30" transform="translate(2268.554688 0)"/>
     <use xlink:href="#RobotoCondensed-Regular-31" transform="translate(2317.919922 0)"/>
     <use xlink:href="#RobotoCondensed-Regular-38" transform="translate(2367.285156 0)"/>
     <use xlink:href="#RobotoCondensed-Regular-29" transform="translate(2416.650391 0)"/>
    </g>
   </g>
  </g>
 </g>
 <defs>
  <clipPath id="p88018120ae">
   <rect x="47.36" y="27.54375" width="373.84" height="289.77625"/>
  </clipPath>
 </defs>
</svg>
