<?xml version="1.0" encoding="utf-8" standalone="no"?>
<!DOCTYPE svg PUBLIC "-//W3C//DTD SVG 1.1//EN"
  "http://www.w3.org/Graphics/SVG/1.1/DTD/svg11.dtd">
<svg xmlns:xlink="http://www.w3.org/1999/xlink" width="432pt" height="432pt" viewBox="0 0 432 432" xmlns="http://www.w3.org/2000/svg" version="1.1">
 <metadata>
  <rdf:RDF xmlns:dc="http://purl.org/dc/elements/1.1/" xmlns:cc="http://creativecommons.org/ns#" xmlns:rdf="http://www.w3.org/1999/02/22-rdf-syntax-ns#">
   <cc:Work>
    <dc:type rdf:resource="http://purl.org/dc/dcmitype/StillImage"/>
    <dc:date>2026-06-05T11:39:22.568734</dc:date>
    <dc:format>image/svg+xml</dc:format>
    <dc:creator>
     <cc:Agent>
      <dc:title>Matplotlib v3.10.3, https://matplotlib.org/</dc:title>
     </cc:Agent>
    </dc:creator>
   </cc:Work>
  </rdf:RDF>
 </metadata>
 <defs>
  <style type="text/css">*{stroke-linejoin: round; stroke-linecap: butt}</style>
 </defs>
 <g id="figure_1">
  <g id="patch_1">
   <path d="M 0 432 
L 432 432 
L 432 0 
L 0 0 
z
" style="fill: #ffffff"/>
  </g>
  <g id="axes_1">
   <g id="patch_2">
    <path d="M 46.65125 387.68875 
L 421.2 387.68875 
L 421.2 26.88 
L 46.65125 26.88 
z
" style="fill: #ffffff"/>
   </g>
   <g id="matplotlib.axis_1">
    <g id="xtick_1">
     <g id="line2d_1">
      <defs>
       <path id="m79fdc91ec9" d="M 0 0 
L 0 3.5 
" style="stroke: #000000; stroke-width: 0.8"/>
      </defs>
      <g>
       <use xlink:href="#m79fdc91ec9" x="63.676193" y="387.68875" style="stroke: #000000; stroke-width: 0.8"/>
      </g>
     </g>
     <g id="text_1">
      <!-- 0.0 -->
      <g transform="translate(57.421506 402.18875) scale(0.1 -0.1)">
       <defs>
        <path id="RobotoCondensed-Regular-30" d="M 2797 1944 
Q 2797 825 2467 381 
Q 2138 -63 1581 -63 
Q 1038 -63 703 370 
Q 369 803 359 1878 
L 359 2638 
Q 359 3753 695 4183 
Q 1031 4613 1578 4613 
Q 2131 4613 2461 4189 
Q 2791 3766 2797 2681 
L 2797 1944 
z
M 2247 2734 
Q 2247 3503 2073 3822 
Q 1900 4141 1578 4141 
Q 1266 4141 1092 3833 
Q 919 3525 913 2791 
L 913 1850 
Q 913 1088 1089 750 
Q 1266 413 1581 413 
Q 1903 413 2072 738 
Q 2241 1063 2247 1794 
L 2247 2734 
z
" transform="scale(0.015625)"/>
        <path id="RobotoCondensed-Regular-2e" d="M 450 306 
Q 450 453 542 554 
Q 634 656 809 656 
Q 984 656 1076 554 
Q 1169 453 1169 306 
Q 1169 163 1076 62 
Q 984 -38 809 -38 
Q 634 -38 542 62 
Q 450 163 450 306 
z
" transform="scale(0.015625)"/>
       </defs>
       <use xlink:href="#RobotoCondensed-Regular-30"/>
       <use xlink:href="#RobotoCondensed-Regular-2e" transform="translate(49.365234 0)"/>
       <use xlink:href="#RobotoCondensed-Regular-30" transform="translate(75.732422 0)"/>
      </g>
     </g>
    </g>
    <g id="xtick_2">
     <g id="line2d_2">
      <g>
       <use xlink:href="#m79fdc91ec9" x="131.775966" y="387.68875" style="stroke: #000000; stroke-width: 0.8"/>
      </g>
     </g>
     <g id="text_2">
      <!-- 0.2 -->
      <g transform="translate(125.521278 402.18875) scale(0.1 -0.1)">
       <defs>
        <path id="RobotoCondensed-Regular-32" d="M 2909 475 
L 2909 0 
L 366 0 
L 366 416 
L 1628 2088 
Q 1966 2541 2077 2802 
Q 2188 3063 2188 3328 
Q 2188 3663 2027 3900 
Q 1866 4138 1575 4138 
Q 1194 4138 1022 3878 
Q 850 3619 850 3213 
L 297 3213 
Q 297 3788 617 4200 
Q 938 4613 1575 4613 
Q 2125 4613 2433 4278 
Q 2741 3944 2741 3397 
Q 2741 2997 2541 2594 
Q 2341 2191 2047 1809 
L 1028 475 
L 2909 475 
z
" transform="scale(0.015625)"/>
       </defs>
       <use xlink:href="#RobotoCondensed-Regular-30"/>
       <use xlink:href="#RobotoCondensed-Regular-2e" transform="translate(49.365234 0)"/>
       <use xlink:href="#RobotoCondensed-Regular-32" transform="translate(75.732422 0)"/>
      </g>
     </g>
    </g>
    <g id="xtick_3">
     <g id="line2d_3">
      <g>
       <use xlink:href="#m79fdc91ec9" x="199.875739" y="387.68875" style="stroke: #000000; stroke-width: 0.8"/>
      </g>
     </g>
     <g id="text_3">
      <!-- 0.4 -->
      <g transform="translate(193.621051 402.18875) scale(0.1 -0.1)">
       <defs>
        <path id="RobotoCondensed-Regular-34" d="M 188 1397 
L 1878 4550 
L 2463 4550 
L 2463 1531 
L 2969 1531 
L 2969 1056 
L 2463 1056 
L 2463 0 
L 1909 0 
L 1909 1056 
L 188 1056 
L 188 1397 
z
M 803 1531 
L 1909 1531 
L 1909 3703 
L 1878 3638 
L 803 1531 
z
" transform="scale(0.015625)"/>
       </defs>
       <use xlink:href="#RobotoCondensed-Regular-30"/>
       <use xlink:href="#RobotoCondensed-Regular-2e" transform="translate(49.365234 0)"/>
       <use xlink:href="#RobotoCondensed-Regular-34" transform="translate(75.732422 0)"/>
      </g>
     </g>
    </g>
    <g id="xtick_4">
     <g id="line2d_4">
      <g>
       <use xlink:href="#m79fdc91ec9" x="267.975511" y="387.68875" style="stroke: #000000; stroke-width: 0.8"/>
      </g>
     </g>
     <g id="text_4">
      <!-- 0.6 -->
      <g transform="translate(261.720824 402.18875) scale(0.1 -0.1)">
       <defs>
        <path id="RobotoCondensed-Regular-36" d="M 2847 1484 
Q 2847 838 2544 387 
Q 2241 -63 1641 -63 
Q 1216 -63 944 198 
Q 672 459 542 861 
Q 413 1263 413 1684 
L 413 1956 
Q 413 2438 481 2900 
Q 550 3363 742 3738 
Q 934 4113 1296 4334 
Q 1659 4556 2291 4556 
L 2291 4066 
Q 1775 4066 1508 3859 
Q 1241 3653 1122 3318 
Q 1003 2984 978 2606 
Q 1272 2984 1750 2984 
Q 2138 2984 2380 2765 
Q 2622 2547 2734 2201 
Q 2847 1856 2847 1484 
z
M 969 1666 
Q 969 1059 1180 737 
Q 1391 416 1641 416 
Q 1959 416 2129 708 
Q 2300 1000 2300 1456 
Q 2300 1863 2144 2184 
Q 1988 2506 1659 2506 
Q 1425 2506 1236 2329 
Q 1047 2153 969 1900 
L 969 1666 
z
" transform="scale(0.015625)"/>
       </defs>
       <use xlink:href="#RobotoCondensed-Regular-30"/>
       <use xlink:href="#RobotoCondensed-Regular-2e" transform="translate(49.365234 0)"/>
       <use xlink:href="#RobotoCondensed-Regular-36" transform="translate(75.732422 0)"/>
      </g>
     </g>
    </g>
    <g id="xtick_5">
     <g id="line2d_5">
      <g>
       <use xlink:href="#m79fdc91ec9" x="336.075284" y="387.68875" style="stroke: #000000; stroke-width: 0.8"/>
      </g>
     </g>
     <g id="text_5">
      <!-- 0.8 -->
      <g transform="translate(329.820597 402.18875) scale(0.1 -0.1)">
       <defs>
        <path id="RobotoCondensed-Regular-38" d="M 2794 1231 
Q 2794 606 2445 271 
Q 2097 -63 1578 -63 
Q 1063 -63 714 273 
Q 366 609 366 1231 
Q 366 1613 536 1905 
Q 706 2197 1000 2347 
Q 450 2666 450 3366 
Q 450 3963 769 4288 
Q 1088 4613 1581 4613 
Q 2075 4613 2392 4288 
Q 2709 3963 2709 3366 
Q 2709 3028 2557 2761 
Q 2406 2494 2150 2344 
Q 2444 2194 2619 1901 
Q 2794 1609 2794 1231 
z
M 2156 3356 
Q 2156 3697 2000 3917 
Q 1844 4138 1581 4138 
Q 1319 4138 1161 3927 
Q 1003 3716 1003 3356 
Q 1003 3003 1159 2790 
Q 1316 2578 1581 2578 
Q 1844 2578 2000 2790 
Q 2156 3003 2156 3356 
z
M 2244 1244 
Q 2244 1625 2061 1865 
Q 1878 2106 1575 2106 
Q 1266 2106 1091 1865 
Q 916 1625 916 1244 
Q 916 850 1089 631 
Q 1263 413 1578 413 
Q 1897 413 2070 631 
Q 2244 850 2244 1244 
z
" transform="scale(0.015625)"/>
       </defs>
       <use xlink:href="#RobotoCondensed-Regular-30"/>
       <use xlink:href="#RobotoCondensed-Regular-2e" transform="translate(49.365234 0)"/>
       <use xlink:href="#RobotoCondensed-Regular-38" transform="translate(75.732422 0)"/>
      </g>
     </g>
    </g>
    <g id="xtick_6">
     <g id="line2d_6">
      <g>
       <use xlink:href="#m79fdc91ec9" x="404.175057" y="387.68875" style="stroke: #000000; stroke-width: 0.8"/>
      </g>
     </g>
     <g id="text_6">
      <!-- 1.0 -->
      <g transform="translate(397.920369 402.18875) scale(0.1 -0.1)">
       <defs>
        <path id="RobotoCondensed-Regular-31" d="M 2013 4575 
L 2013 0 
L 1459 0 
L 1459 3853 
L 503 3428 
L 503 3950 
L 1928 4575 
L 2013 4575 
z
" transform="scale(0.015625)"/>
       </defs>
       <use xlink:href="#RobotoCondensed-Regular-31"/>
       <use xlink:href="#RobotoCondensed-Regular-2e" transform="translate(49.365234 0)"/>
       <use xlink:href="#RobotoCondensed-Regular-30" transform="translate(75.732422 0)"/>
      </g>
     </g>
    </g>
    <g id="text_7">
     <!-- Probability (p) -->
     <g transform="translate(200.42875 417.84625) scale(0.12 -0.12)">
      <defs>
       <path id="RobotoCondensed-Regular-50" d="M 1066 1784 
L 1066 0 
L 491 0 
L 491 4550 
L 1941 4550 
Q 2600 4550 2951 4159 
Q 3303 3769 3303 3163 
Q 3303 2506 2954 2147 
Q 2606 1788 1950 1784 
L 1066 1784 
z
M 1066 4056 
L 1066 2275 
L 1941 2275 
Q 2359 2275 2543 2522 
Q 2728 2769 2728 3156 
Q 2728 3506 2543 3781 
Q 2359 4056 1941 4056 
L 1066 4056 
z
" transform="scale(0.015625)"/>
       <path id="RobotoCondensed-Regular-72" d="M 1563 2888 
Q 1138 2888 969 2425 
L 969 0 
L 416 0 
L 416 3381 
L 950 3381 
L 963 3041 
Q 1184 3444 1591 3444 
Q 1738 3444 1809 3400 
L 1813 2863 
Q 1691 2888 1563 2888 
z
" transform="scale(0.015625)"/>
       <path id="RobotoCondensed-Regular-6f" d="M 300 1850 
Q 300 2641 678 3042 
Q 1056 3444 1603 3444 
Q 2156 3444 2536 3042 
Q 2916 2641 2916 1850 
L 2916 1528 
Q 2916 738 2536 337 
Q 2156 -63 1609 -63 
Q 1059 -63 679 337 
Q 300 738 300 1528 
L 300 1850 
z
M 853 1528 
Q 853 969 1068 689 
Q 1284 409 1609 409 
Q 2341 409 2363 1466 
L 2363 1850 
Q 2363 2403 2145 2686 
Q 1928 2969 1603 2969 
Q 1281 2969 1067 2686 
Q 853 2403 853 1850 
L 853 1528 
z
" transform="scale(0.015625)"/>
       <path id="RobotoCondensed-Regular-62" d="M 2866 1528 
Q 2866 725 2575 331 
Q 2284 -63 1753 -63 
Q 1219 -63 950 400 
L 922 0 
L 416 0 
L 416 4800 
L 969 4800 
L 969 3016 
Q 1234 3444 1750 3444 
Q 2278 3444 2567 3073 
Q 2856 2703 2866 1897 
L 2866 1528 
z
M 1606 2956 
Q 1181 2956 969 2497 
L 969 884 
Q 1181 428 1609 428 
Q 1984 428 2146 690 
Q 2309 953 2313 1506 
L 2313 1844 
Q 2313 2406 2159 2681 
Q 2006 2956 1606 2956 
z
" transform="scale(0.015625)"/>
       <path id="RobotoCondensed-Regular-61" d="M 2156 0 
Q 2103 122 2081 366 
Q 1966 194 1775 65 
Q 1584 -63 1334 -63 
Q 891 -63 623 187 
Q 356 438 356 922 
Q 356 1409 690 1729 
Q 1025 2050 1691 2050 
L 2072 2050 
L 2072 2413 
Q 2072 2713 1936 2841 
Q 1800 2969 1528 2969 
Q 1263 2969 1114 2812 
Q 966 2656 966 2444 
L 413 2444 
Q 413 2806 722 3125 
Q 1031 3444 1556 3444 
Q 2025 3444 2325 3209 
Q 2625 2975 2625 2406 
L 2625 794 
Q 2625 316 2728 50 
L 2728 0 
L 2156 0 
z
M 1419 441 
Q 1653 441 1825 562 
Q 1997 684 2072 834 
L 2072 1644 
L 1781 1644 
Q 1384 1644 1146 1475 
Q 909 1306 909 991 
Q 909 688 1036 564 
Q 1163 441 1419 441 
z
" transform="scale(0.015625)"/>
       <path id="RobotoCondensed-Regular-69" d="M 428 4278 
Q 428 4419 506 4516 
Q 584 4613 741 4613 
Q 894 4613 975 4516 
Q 1056 4419 1056 4278 
Q 1056 4144 975 4048 
Q 894 3953 741 3953 
Q 584 3953 506 4048 
Q 428 4144 428 4278 
z
M 1009 3381 
L 1009 0 
L 459 0 
L 459 3381 
L 1009 3381 
z
" transform="scale(0.015625)"/>
       <path id="RobotoCondensed-Regular-6c" d="M 1009 4800 
L 1009 0 
L 459 0 
L 459 4800 
L 1009 4800 
z
" transform="scale(0.015625)"/>
       <path id="RobotoCondensed-Regular-74" d="M 1647 0 
Q 1488 -63 1259 -63 
Q 991 -63 789 134 
Q 588 331 588 841 
L 588 2938 
L 72 2938 
L 72 3381 
L 588 3381 
L 588 4203 
L 1141 4203 
L 1141 3381 
L 1650 3381 
L 1650 2938 
L 1141 2938 
L 1141 838 
Q 1141 578 1230 506 
Q 1319 434 1431 434 
Q 1550 434 1650 472 
L 1647 0 
z
" transform="scale(0.015625)"/>
       <path id="RobotoCondensed-Regular-79" d="M 1425 -522 
Q 1153 -1366 563 -1366 
Q 409 -1366 278 -1316 
L 278 -847 
Q 328 -859 397 -859 
Q 631 -859 770 -746 
Q 909 -634 997 -338 
L 1106 31 
L 109 3381 
L 713 3381 
L 1341 922 
L 1953 3381 
L 2541 3381 
L 1425 -522 
z
" transform="scale(0.015625)"/>
       <path id="RobotoCondensed-Regular-20" transform="scale(0.015625)"/>
       <path id="RobotoCondensed-Regular-28" d="M 406 1850 
Q 406 2756 636 3434 
Q 866 4113 1177 4541 
Q 1488 4969 1728 5134 
L 1841 4753 
Q 1547 4475 1253 3761 
Q 959 3047 959 1813 
Q 959 625 1253 -97 
Q 1547 -819 1841 -1119 
L 1728 -1469 
Q 1488 -1306 1177 -878 
Q 866 -450 636 226 
Q 406 903 406 1850 
z
" transform="scale(0.015625)"/>
       <path id="RobotoCondensed-Regular-70" d="M 1750 -63 
Q 1244 -63 969 325 
L 969 -1300 
L 416 -1300 
L 416 3381 
L 919 3381 
L 947 3013 
Q 1222 3444 1744 3444 
Q 2275 3444 2562 3073 
Q 2850 2703 2859 1897 
L 2859 1528 
Q 2859 725 2570 331 
Q 2281 -63 1750 -63 
z
M 1572 2956 
Q 1181 2956 969 2559 
L 969 797 
Q 1178 409 1578 409 
Q 2288 409 2306 1472 
L 2306 1844 
Q 2306 2956 1572 2956 
z
" transform="scale(0.015625)"/>
       <path id="RobotoCondensed-Regular-29" d="M 1603 1819 
Q 1603 906 1373 228 
Q 1144 -450 833 -878 
Q 522 -1306 281 -1469 
L 169 -1119 
Q 463 -841 758 -109 
Q 1053 622 1053 1856 
Q 1053 2647 904 3236 
Q 756 3825 550 4212 
Q 344 4600 169 4781 
L 281 5134 
Q 522 4969 833 4541 
Q 1144 4113 1373 3436 
Q 1603 2759 1603 1819 
z
" transform="scale(0.015625)"/>
      </defs>
      <use xlink:href="#RobotoCondensed-Regular-50"/>
      <use xlink:href="#RobotoCondensed-Regular-72" transform="translate(55.419922 0)"/>
      <use xlink:href="#RobotoCondensed-Regular-6f" transform="translate(85.888672 0)"/>
      <use xlink:href="#RobotoCondensed-Regular-62" transform="translate(136.083984 0)"/>
      <use xlink:href="#RobotoCondensed-Regular-61" transform="translate(185.400391 0)"/>
      <use xlink:href="#RobotoCondensed-Regular-62" transform="translate(233.300781 0)"/>
      <use xlink:href="#RobotoCondensed-Regular-69" transform="translate(282.617188 0)"/>
      <use xlink:href="#RobotoCondensed-Regular-6c" transform="translate(305.566406 0)"/>
      <use xlink:href="#RobotoCondensed-Regular-69" transform="translate(328.515625 0)"/>
      <use xlink:href="#RobotoCondensed-Regular-74" transform="translate(351.464844 0)"/>
      <use xlink:href="#RobotoCondensed-Regular-79" transform="translate(381.054688 0)"/>
      <use xlink:href="#RobotoCondensed-Regular-20" transform="translate(422.705078 0)"/>
      <use xlink:href="#RobotoCondensed-Regular-28" transform="translate(445.654297 0)"/>
      <use xlink:href="#RobotoCondensed-Regular-70" transform="translate(477.050781 0)"/>
      <use xlink:href="#RobotoCondensed-Regular-29" transform="translate(526.367188 0)"/>
     </g>
    </g>
   </g>
   <g id="matplotlib.axis_2">
    <g id="ytick_1">
     <g id="line2d_7">
      <defs>
       <path id="mfff24b0fee" d="M 0 0 
L -3.5 0 
" style="stroke: #000000; stroke-width: 0.8"/>
      </defs>
      <g>
       <use xlink:href="#mfff24b0fee" x="46.65125" y="371.288352" style="stroke: #000000; stroke-width: 0.8"/>
      </g>
     </g>
     <g id="text_8">
      <!-- 0.0 -->
      <g transform="translate(27.141875 375.038352) scale(0.1 -0.1)">
       <use xlink:href="#RobotoCondensed-Regular-30"/>
       <use xlink:href="#RobotoCondensed-Regular-2e" transform="translate(49.365234 0)"/>
       <use xlink:href="#RobotoCondensed-Regular-30" transform="translate(75.732422 0)"/>
      </g>
     </g>
    </g>
    <g id="ytick_2">
     <g id="line2d_8">
      <g>
       <use xlink:href="#mfff24b0fee" x="46.65125" y="305.686761" style="stroke: #000000; stroke-width: 0.8"/>
      </g>
     </g>
     <g id="text_9">
      <!-- 0.2 -->
      <g transform="translate(27.141875 309.436761) scale(0.1 -0.1)">
       <use xlink:href="#RobotoCondensed-Regular-30"/>
       <use xlink:href="#RobotoCondensed-Regular-2e" transform="translate(49.365234 0)"/>
       <use xlink:href="#RobotoCondensed-Regular-32" transform="translate(75.732422 0)"/>
      </g>
     </g>
    </g>
    <g id="ytick_3">
     <g id="line2d_9">
      <g>
       <use xlink:href="#mfff24b0fee" x="46.65125" y="240.08517" style="stroke: #000000; stroke-width: 0.8"/>
      </g>
     </g>
     <g id="text_10">
      <!-- 0.4 -->
      <g transform="translate(27.141875 243.83517) scale(0.1 -0.1)">
       <use xlink:href="#RobotoCondensed-Regular-30"/>
       <use xlink:href="#RobotoCondensed-Regular-2e" transform="translate(49.365234 0)"/>
       <use xlink:href="#RobotoCondensed-Regular-34" transform="translate(75.732422 0)"/>
      </g>
     </g>
    </g>
    <g id="ytick_4">
     <g id="line2d_10">
      <g>
       <use xlink:href="#mfff24b0fee" x="46.65125" y="174.48358" style="stroke: #000000; stroke-width: 0.8"/>
      </g>
     </g>
     <g id="text_11">
      <!-- 0.6 -->
      <g transform="translate(27.141875 178.23358) scale(0.1 -0.1)">
       <use xlink:href="#RobotoCondensed-Regular-30"/>
       <use xlink:href="#RobotoCondensed-Regular-2e" transform="translate(49.365234 0)"/>
       <use xlink:href="#RobotoCondensed-Regular-36" transform="translate(75.732422 0)"/>
      </g>
     </g>
    </g>
    <g id="ytick_5">
     <g id="line2d_11">
      <g>
       <use xlink:href="#mfff24b0fee" x="46.65125" y="108.881989" style="stroke: #000000; stroke-width: 0.8"/>
      </g>
     </g>
     <g id="text_12">
      <!-- 0.8 -->
      <g transform="translate(27.141875 112.631989) scale(0.1 -0.1)">
       <use xlink:href="#RobotoCondensed-Regular-30"/>
       <use xlink:href="#RobotoCondensed-Regular-2e" transform="translate(49.365234 0)"/>
       <use xlink:href="#RobotoCondensed-Regular-38" transform="translate(75.732422 0)"/>
      </g>
     </g>
    </g>
    <g id="ytick_6">
     <g id="line2d_12">
      <g>
       <use xlink:href="#mfff24b0fee" x="46.65125" y="43.280398" style="stroke: #000000; stroke-width: 0.8"/>
      </g>
     </g>
     <g id="text_13">
      <!-- 1.0 -->
      <g transform="translate(27.141875 47.030398) scale(0.1 -0.1)">
       <use xlink:href="#RobotoCondensed-Regular-31"/>
       <use xlink:href="#RobotoCondensed-Regular-2e" transform="translate(49.365234 0)"/>
       <use xlink:href="#RobotoCondensed-Regular-30" transform="translate(75.732422 0)"/>
      </g>
     </g>
    </g>
    <g id="text_14">
     <!-- Weighted Probability (w(p)) -->
     <g transform="translate(20.3875 272.035625) rotate(-90) scale(0.12 -0.12)">
      <defs>
       <path id="RobotoCondensed-Regular-57" d="M 4706 4550 
L 3803 0 
L 3284 0 
L 2528 3316 
L 2481 3584 
L 2434 3316 
L 1644 0 
L 1128 0 
L 222 4550 
L 794 4550 
L 1363 1438 
L 1422 928 
L 1513 1375 
L 2241 4550 
L 2716 4550 
L 3422 1375 
L 3513 913 
L 3578 1441 
L 4134 4550 
L 4706 4550 
z
" transform="scale(0.015625)"/>
       <path id="RobotoCondensed-Regular-65" d="M 2722 447 
Q 2584 253 2323 95 
Q 2063 -63 1625 -63 
Q 1019 -63 666 301 
Q 313 666 309 1431 
L 309 1828 
Q 309 2722 696 3083 
Q 1084 3444 1563 3444 
Q 2197 3444 2472 3034 
Q 2747 2625 2747 1850 
L 2747 1528 
L 863 1528 
L 863 1447 
Q 863 906 1067 657 
Q 1272 409 1656 409 
Q 1934 409 2114 517 
Q 2294 625 2431 794 
L 2722 447 
z
M 1563 2969 
Q 1275 2969 1084 2770 
Q 894 2572 866 2000 
L 2194 2000 
L 2194 2078 
Q 2172 2469 2048 2719 
Q 1925 2969 1563 2969 
z
" transform="scale(0.015625)"/>
       <path id="RobotoCondensed-Regular-67" d="M 1525 -1334 
Q 1331 -1334 1007 -1229 
Q 684 -1125 497 -906 
L 725 -522 
Q 1056 -859 1484 -859 
Q 1806 -859 2000 -679 
Q 2194 -500 2194 -56 
L 2194 338 
Q 1925 -63 1428 -63 
Q 919 -63 611 331 
Q 303 725 303 1528 
L 303 1844 
Q 303 2678 608 3061 
Q 913 3444 1434 3444 
Q 1953 3444 2219 3006 
L 2247 3381 
L 2744 3381 
L 2744 -41 
Q 2741 -703 2402 -1018 
Q 2063 -1334 1525 -1334 
z
M 856 1528 
Q 856 963 1025 695 
Q 1194 428 1572 428 
Q 1988 428 2194 853 
L 2194 2541 
Q 1978 2956 1578 2956 
Q 1197 2956 1028 2687 
Q 859 2419 856 1866 
L 856 1528 
z
" transform="scale(0.015625)"/>
       <path id="RobotoCondensed-Regular-68" d="M 1603 2956 
Q 1400 2956 1236 2818 
Q 1072 2681 969 2459 
L 969 0 
L 416 0 
L 416 4800 
L 969 4800 
L 969 3041 
Q 1288 3444 1775 3444 
Q 2191 3444 2437 3162 
Q 2684 2881 2684 2216 
L 2684 0 
L 2131 0 
L 2131 2222 
Q 2131 2619 2000 2787 
Q 1869 2956 1603 2956 
z
" transform="scale(0.015625)"/>
       <path id="RobotoCondensed-Regular-64" d="M 2234 0 
L 2209 366 
Q 1941 -63 1425 -63 
Q 925 -63 611 331 
Q 297 725 297 1528 
L 297 1844 
Q 297 2678 609 3061 
Q 922 3444 1431 3444 
Q 1922 3444 2188 3050 
L 2188 4800 
L 2738 4800 
L 2738 0 
L 2234 0 
z
M 850 1528 
Q 850 963 1019 695 
Q 1188 428 1569 428 
Q 1981 428 2188 847 
L 2188 2544 
Q 1972 2956 1575 2956 
Q 1194 2956 1023 2687 
Q 853 2419 850 1866 
L 850 1528 
z
" transform="scale(0.015625)"/>
       <path id="RobotoCondensed-Regular-77" d="M 3994 3381 
L 3169 0 
L 2728 0 
L 2066 2419 
L 1425 0 
L 981 0 
L 156 3381 
L 703 3381 
L 1228 1038 
L 1856 3381 
L 2294 3381 
L 2938 969 
L 3450 3381 
L 3994 3381 
z
" transform="scale(0.015625)"/>
      </defs>
      <use xlink:href="#RobotoCondensed-Regular-57"/>
      <use xlink:href="#RobotoCondensed-Regular-65" transform="translate(76.171875 0)"/>
      <use xlink:href="#RobotoCondensed-Regular-69" transform="translate(123.046875 0)"/>
      <use xlink:href="#RobotoCondensed-Regular-67" transform="translate(145.996094 0)"/>
      <use xlink:href="#RobotoCondensed-Regular-68" transform="translate(195.3125 0)"/>
      <use xlink:href="#RobotoCondensed-Regular-74" transform="translate(243.603516 0)"/>
      <use xlink:href="#RobotoCondensed-Regular-65" transform="translate(273.193359 0)"/>
      <use xlink:href="#RobotoCondensed-Regular-64" transform="translate(320.068359 0)"/>
      <use xlink:href="#RobotoCondensed-Regular-20" transform="translate(369.677734 0)"/>
      <use xlink:href="#RobotoCondensed-Regular-50" transform="translate(392.626953 0)"/>
      <use xlink:href="#RobotoCondensed-Regular-72" transform="translate(448.046875 0)"/>
      <use xlink:href="#RobotoCondensed-Regular-6f" transform="translate(478.515625 0)"/>
      <use xlink:href="#RobotoCondensed-Regular-62" transform="translate(528.710938 0)"/>
      <use xlink:href="#RobotoCondensed-Regular-61" transform="translate(578.027344 0)"/>
      <use xlink:href="#RobotoCondensed-Regular-62" transform="translate(625.927734 0)"/>
      <use xlink:href="#RobotoCondensed-Regular-69" transform="translate(675.244141 0)"/>
      <use xlink:href="#RobotoCondensed-Regular-6c" transform="translate(698.193359 0)"/>
      <use xlink:href="#RobotoCondensed-Regular-69" transform="translate(721.142578 0)"/>
      <use xlink:href="#RobotoCondensed-Regular-74" transform="translate(744.091797 0)"/>
      <use xlink:href="#RobotoCondensed-Regular-79" transform="translate(773.681641 0)"/>
      <use xlink:href="#RobotoCondensed-Regular-20" transform="translate(815.332031 0)"/>
      <use xlink:href="#RobotoCondensed-Regular-28" transform="translate(838.28125 0)"/>
      <use xlink:href="#RobotoCondensed-Regular-77" transform="translate(869.677734 0)"/>
      <use xlink:href="#RobotoCondensed-Regular-28" transform="translate(934.667969 0)"/>
      <use xlink:href="#RobotoCondensed-Regular-70" transform="translate(966.064453 0)"/>
      <use xlink:href="#RobotoCondensed-Regular-29" transform="translate(1015.380859 0)"/>
      <use xlink:href="#RobotoCondensed-Regular-29" transform="translate(1047.265625 0)"/>
     </g>
    </g>
   </g>
   <g id="line2d_13">
    <path d="M 63.676193 371.288352 
L 64.358556 364.127214 
L 65.040918 360.543247 
L 66.405643 355.289559 
L 67.770368 351.189087 
L 69.135093 347.716607 
L 71.18218 343.246192 
L 73.229268 339.371734 
L 75.276355 335.916169 
L 78.005805 331.786791 
L 80.735254 328.06973 
L 84.147067 323.862038 
L 87.558879 320.032016 
L 91.653054 315.823901 
L 95.747228 311.951347 
L 100.523766 307.770852 
L 105.300303 303.88375 
L 110.759202 299.731956 
L 116.900464 295.361704 
L 123.724089 290.80659 
L 131.230076 286.088826 
L 139.418425 281.220527 
L 148.289137 276.204815 
L 158.524574 270.675118 
L 170.807098 264.308871 
L 185.819072 256.796968 
L 209.019395 245.477405 
L 237.678618 231.454632 
L 253.372955 223.527814 
L 266.337841 216.737894 
L 277.938003 210.409149 
L 288.17344 204.571616 
L 297.726514 198.859195 
L 305.914864 193.718754 
L 314.103213 188.310156 
L 321.6092 183.074216 
L 328.432825 178.042575 
L 334.574087 173.255435 
L 340.715349 168.182158 
L 346.174248 163.392493 
L 351.633148 158.293957 
L 356.409685 153.536222 
L 361.186222 148.45273 
L 365.280397 143.790777 
L 369.374572 138.796285 
L 373.468746 133.405524 
L 376.880559 128.549828 
L 380.292371 123.293868 
L 383.021821 118.741282 
L 385.751271 113.812456 
L 388.48072 108.420977 
L 391.21017 102.442345 
L 393.257258 97.4618 
L 395.304345 91.921514 
L 397.351432 85.623797 
L 398.716157 80.84158 
L 400.080882 75.388639 
L 401.445607 68.917588 
L 402.127969 65.079992 
L 402.810332 60.575105 
L 403.492694 54.847949 
L 404.175057 43.280398 
L 404.175057 43.280398 
" clip-path="url(#p97ed9b299d)" style="fill: none; stroke: #000000; stroke-width: 2; stroke-linecap: square"/>
   </g>
   <g id="line2d_14">
    <path d="M 63.676193 371.288352 
L 404.175057 43.280398 
L 404.175057 43.280398 
" clip-path="url(#p97ed9b299d)" style="fill: none; stroke-dasharray: 3.7,1.6; stroke-dashoffset: 0; stroke: #000000"/>
   </g>
   <g id="line2d_15">
    <path d="M 46.65125 371.288352 
L 421.2 371.288352 
" clip-path="url(#p97ed9b299d)" style="fill: none; stroke: #000000; stroke-width: 0.5; stroke-linecap: square"/>
   </g>
   <g id="line2d_16">
    <path d="M 63.676193 387.68875 
L 63.676193 26.88 
" clip-path="url(#p97ed9b299d)" style="fill: none; stroke: #000000; stroke-width: 0.5; stroke-linecap: square"/>
   </g>
   <g id="patch_3">
    <path d="M 46.65125 387.68875 
L 46.65125 26.88 
" style="fill: none; stroke: #000000; stroke-width: 0.8; stroke-linejoin: miter; stroke-linecap: square"/>
   </g>
   <g id="patch_4">
    <path d="M 421.2 387.68875 
L 421.2 26.88 
" style="fill: none; stroke: #000000; stroke-width: 0.8; stroke-linejoin: miter; stroke-linecap: square"/>
   </g>
   <g id="patch_5">
    <path d="M 46.65125 387.68875 
L 421.2 387.68875 
" style="fill: none; stroke: #000000; stroke-width: 0.8; stroke-linejoin: miter; stroke-linecap: square"/>
   </g>
   <g id="patch_6">
    <path d="M 46.65125 26.88 
L 421.2 26.88 
" style="fill: none; stroke: #000000; stroke-width: 0.8; stroke-linejoin: miter; stroke-linecap: square"/>
   </g>
   <g id="text_15">
    <!-- Prospect Theory: Probability-Weighting Function -->
    <g transform="translate(100.986875 20.88) scale(0.14 -0.14)">
     <defs>
      <path id="RobotoCondensed-Regular-73" d="M 2056 866 
Q 2056 1059 1907 1190 
Q 1759 1322 1340 1500 
Q 922 1678 681 1863 
Q 409 2072 409 2484 
Q 409 2888 703 3166 
Q 997 3444 1481 3444 
Q 2000 3444 2287 3150 
Q 2575 2856 2575 2419 
L 2025 2419 
Q 2025 2628 1884 2798 
Q 1744 2969 1481 2969 
Q 1203 2969 1083 2828 
Q 963 2688 963 2503 
Q 963 2319 1081 2217 
Q 1200 2116 1553 1959 
Q 2066 1756 2337 1537 
Q 2609 1319 2609 909 
Q 2609 463 2303 200 
Q 1997 -63 1494 -63 
Q 919 -63 616 265 
Q 313 594 313 1013 
L 866 1013 
Q 881 653 1081 533 
Q 1281 413 1494 413 
Q 2056 413 2056 866 
z
" transform="scale(0.015625)"/>
      <path id="RobotoCondensed-Regular-63" d="M 1588 409 
Q 1834 409 2012 564 
Q 2191 719 2213 1069 
L 2731 1069 
Q 2713 559 2378 248 
Q 2044 -63 1588 -63 
Q 934 -63 621 342 
Q 309 747 303 1472 
L 303 1881 
Q 303 2619 617 3031 
Q 931 3444 1588 3444 
Q 2103 3444 2408 3120 
Q 2713 2797 2731 2219 
L 2213 2219 
Q 2169 2969 1588 2969 
Q 1150 2969 1003 2672 
Q 856 2375 856 1881 
L 856 1500 
Q 856 1003 1001 706 
Q 1147 409 1588 409 
z
" transform="scale(0.015625)"/>
      <path id="RobotoCondensed-Regular-54" d="M 191 4056 
L 191 4550 
L 3150 4550 
L 3150 4056 
L 1953 4056 
L 1953 0 
L 1384 0 
L 1384 4056 
L 191 4056 
z
" transform="scale(0.015625)"/>
      <path id="RobotoCondensed-Regular-3a" d="M 434 306 
Q 434 453 526 554 
Q 618 656 793 656 
Q 968 656 1060 554 
Q 1153 453 1153 306 
Q 1153 163 1060 62 
Q 968 -38 793 -38 
Q 618 -38 526 62 
Q 434 163 434 306 
z
M 426 3058 
Q 426 3205 518 3306 
Q 610 3408 785 3408 
Q 960 3408 1052 3306 
Q 1145 3205 1145 3058 
Q 1145 2915 1052 2814 
Q 960 2714 785 2714 
Q 610 2714 518 2814 
Q 426 2915 426 3058 
z
" transform="scale(0.015625)"/>
      <path id="RobotoCondensed-Regular-2d" d="M 1441 2172 
L 1441 1697 
L 150 1697 
L 150 2172 
L 1441 2172 
z
" transform="scale(0.015625)"/>
      <path id="RobotoCondensed-Regular-6e" d="M 1603 2956 
Q 1400 2956 1236 2818 
Q 1072 2681 969 2459 
L 969 0 
L 416 0 
L 416 3381 
L 938 3381 
L 953 3022 
Q 1275 3444 1775 3444 
Q 2191 3444 2437 3162 
Q 2684 2881 2684 2216 
L 2684 0 
L 2131 0 
L 2131 2222 
Q 2131 2619 2000 2787 
Q 1869 2956 1603 2956 
z
" transform="scale(0.015625)"/>
      <path id="RobotoCondensed-Regular-46" d="M 491 0 
L 491 4550 
L 2859 4550 
L 2859 4056 
L 1066 4056 
L 1066 2503 
L 2600 2503 
L 2600 2009 
L 1066 2009 
L 1066 0 
L 491 0 
z
" transform="scale(0.015625)"/>
      <path id="RobotoCondensed-Regular-75" d="M 2153 0 
L 2144 297 
Q 1863 -63 1338 -63 
Q 919 -63 662 231 
Q 406 525 406 1200 
L 406 3381 
L 956 3381 
L 956 1178 
Q 959 731 1107 579 
Q 1256 428 1431 428 
Q 1931 428 2125 881 
L 2125 3381 
L 2678 3381 
L 2678 0 
L 2153 0 
z
" transform="scale(0.015625)"/>
     </defs>
     <use xlink:href="#RobotoCondensed-Regular-50"/>
     <use xlink:href="#RobotoCondensed-Regular-72" transform="translate(55.419922 0)"/>
     <use xlink:href="#RobotoCondensed-Regular-6f" transform="translate(85.888672 0)"/>
     <use xlink:href="#RobotoCondensed-Regular-73" transform="translate(136.083984 0)"/>
     <use xlink:href="#RobotoCondensed-Regular-70" transform="translate(181.689453 0)"/>
     <use xlink:href="#RobotoCondensed-Regular-65" transform="translate(231.005859 0)"/>
     <use xlink:href="#RobotoCondensed-Regular-63" transform="translate(277.880859 0)"/>
     <use xlink:href="#RobotoCondensed-Regular-74" transform="translate(324.072266 0)"/>
     <use xlink:href="#RobotoCondensed-Regular-20" transform="translate(353.662109 0)"/>
     <use xlink:href="#RobotoCondensed-Regular-54" transform="translate(376.611328 0)"/>
     <use xlink:href="#RobotoCondensed-Regular-68" transform="translate(428.662109 0)"/>
     <use xlink:href="#RobotoCondensed-Regular-65" transform="translate(476.953125 0)"/>
     <use xlink:href="#RobotoCondensed-Regular-6f" transform="translate(523.828125 0)"/>
     <use xlink:href="#RobotoCondensed-Regular-72" transform="translate(574.023438 0)"/>
     <use xlink:href="#RobotoCondensed-Regular-79" transform="translate(604.492188 0)"/>
     <use xlink:href="#RobotoCondensed-Regular-3a" transform="translate(646.142578 0)"/>
     <use xlink:href="#RobotoCondensed-Regular-20" transform="translate(669.482422 0)"/>
     <use xlink:href="#RobotoCondensed-Regular-50" transform="translate(692.431641 0)"/>
     <use xlink:href="#RobotoCondensed-Regular-72" transform="translate(747.851562 0)"/>
     <use xlink:href="#RobotoCondensed-Regular-6f" transform="translate(778.320312 0)"/>
     <use xlink:href="#RobotoCondensed-Regular-62" transform="translate(828.515625 0)"/>
     <use xlink:href="#RobotoCondensed-Regular-61" transform="translate(877.832031 0)"/>
     <use xlink:href="#RobotoCondensed-Regular-62" transform="translate(925.732422 0)"/>
     <use xlink:href="#RobotoCondensed-Regular-69" transform="translate(975.048828 0)"/>
     <use xlink:href="#RobotoCondensed-Regular-6c" transform="translate(997.998047 0)"/>
     <use xlink:href="#RobotoCondensed-Regular-69" transform="translate(1020.947266 0)"/>
     <use xlink:href="#RobotoCondensed-Regular-74" transform="translate(1043.896484 0)"/>
     <use xlink:href="#RobotoCondensed-Regular-79" transform="translate(1073.486328 0)"/>
     <use xlink:href="#RobotoCondensed-Regular-2d" transform="translate(1115.136719 0)"/>
     <use xlink:href="#RobotoCondensed-Regular-57" transform="translate(1139.941406 0)"/>
     <use xlink:href="#RobotoCondensed-Regular-65" transform="translate(1216.113281 0)"/>
     <use xlink:href="#RobotoCondensed-Regular-69" transform="translate(1262.988281 0)"/>
     <use xlink:href="#RobotoCondensed-Regular-67" transform="translate(1285.9375 0)"/>
     <use xlink:href="#RobotoCondensed-Regular-68" transform="translate(1335.253906 0)"/>
     <use xlink:href="#RobotoCondensed-Regular-74" transform="translate(1383.544922 0)"/>
     <use xlink:href="#RobotoCondensed-Regular-69" transform="translate(1413.134766 0)"/>
     <use xlink:href="#RobotoCondensed-Regular-6e" transform="translate(1436.083984 0)"/>
     <use xlink:href="#RobotoCondensed-Regular-67" transform="translate(1484.521484 0)"/>
     <use xlink:href="#RobotoCondensed-Regular-20" transform="translate(1533.837891 0)"/>
     <use xlink:href="#RobotoCondensed-Regular-46" transform="translate(1556.787109 0)"/>
     <use xlink:href="#RobotoCondensed-Regular-75" transform="translate(1604.882812 0)"/>
     <use xlink:href="#RobotoCondensed-Regular-6e" transform="translate(1653.222656 0)"/>
     <use xlink:href="#RobotoCondensed-Regular-63" transform="translate(1701.660156 0)"/>
     <use xlink:href="#RobotoCondensed-Regular-74" transform="translate(1747.851562 0)"/>
     <use xlink:href="#RobotoCondensed-Regular-69" transform="translate(1777.441406 0)"/>
     <use xlink:href="#RobotoCondensed-Regular-6f" transform="translate(1800.390625 0)"/>
     <use xlink:href="#RobotoCondensed-Regular-6e" transform="translate(1850.585938 0)"/>
    </g>
   </g>
   <g id="legend_1">
    <g id="patch_7">
     <path d="M 162.662344 65.514375 
L 305.188906 65.514375 
Q 307.188906 65.514375 307.188906 63.514375 
L 307.188906 33.88 
Q 307.188906 31.88 305.188906 31.88 
L 162.662344 31.88 
Q 160.662344 31.88 160.662344 33.88 
L 160.662344 63.514375 
Q 160.662344 65.514375 162.662344 65.514375 
z
" style="fill: #ffffff; opacity: 0.8; stroke: #cccccc; stroke-linejoin: miter"/>
    </g>
    <g id="line2d_17">
     <path d="M 164.662344 40.401875 
L 174.662344 40.401875 
L 184.662344 40.401875 
" style="fill: none; stroke: #000000; stroke-width: 2; stroke-linecap: square"/>
    </g>
    <g id="text_16">
     <!-- Probability-Weighting (w(p)) -->
     <g transform="translate(192.662344 43.901875) scale(0.1 -0.1)">
      <use xlink:href="#RobotoCondensed-Regular-50"/>
      <use xlink:href="#RobotoCondensed-Regular-72" transform="translate(55.419922 0)"/>
      <use xlink:href="#RobotoCondensed-Regular-6f" transform="translate(85.888672 0)"/>
      <use xlink:href="#RobotoCondensed-Regular-62" transform="translate(136.083984 0)"/>
      <use xlink:href="#RobotoCondensed-Regular-61" transform="translate(185.400391 0)"/>
      <use xlink:href="#RobotoCondensed-Regular-62" transform="translate(233.300781 0)"/>
      <use xlink:href="#RobotoCondensed-Regular-69" transform="translate(282.617188 0)"/>
      <use xlink:href="#RobotoCondensed-Regular-6c" transform="translate(305.566406 0)"/>
      <use xlink:href="#RobotoCondensed-Regular-69" transform="translate(328.515625 0)"/>
      <use xlink:href="#RobotoCondensed-Regular-74" transform="translate(351.464844 0)"/>
      <use xlink:href="#RobotoCondensed-Regular-79" transform="translate(381.054688 0)"/>
      <use xlink:href="#RobotoCondensed-Regular-2d" transform="translate(422.705078 0)"/>
      <use xlink:href="#RobotoCondensed-Regular-57" transform="translate(447.509766 0)"/>
      <use xlink:href="#RobotoCondensed-Regular-65" transform="translate(523.681641 0)"/>
      <use xlink:href="#RobotoCondensed-Regular-69" transform="translate(570.556641 0)"/>
      <use xlink:href="#RobotoCondensed-Regular-67" transform="translate(593.505859 0)"/>
      <use xlink:href="#RobotoCondensed-Regular-68" transform="translate(642.822266 0)"/>
      <use xlink:href="#RobotoCondensed-Regular-74" transform="translate(691.113281 0)"/>
      <use xlink:href="#RobotoCondensed-Regular-69" transform="translate(720.703125 0)"/>
      <use xlink:href="#RobotoCondensed-Regular-6e" transform="translate(743.652344 0)"/>
      <use xlink:href="#RobotoCondensed-Regular-67" transform="translate(792.089844 0)"/>
      <use xlink:href="#RobotoCondensed-Regular-20" transform="translate(841.40625 0)"/>
      <use xlink:href="#RobotoCondensed-Regular-28" transform="translate(864.355469 0)"/>
      <use xlink:href="#RobotoCondensed-Regular-77" transform="translate(895.751953 0)"/>
      <use xlink:href="#RobotoCondensed-Regular-28" transform="translate(960.742188 0)"/>
      <use xlink:href="#RobotoCondensed-Regular-70" transform="translate(992.138672 0)"/>
      <use xlink:href="#RobotoCondensed-Regular-29" transform="translate(1041.455078 0)"/>
      <use xlink:href="#RobotoCondensed-Regular-29" transform="translate(1073.339844 0)"/>
     </g>
    </g>
    <g id="line2d_18">
     <path d="M 164.662344 55.719062 
L 174.662344 55.719062 
L 184.662344 55.719062 
" style="fill: none; stroke-dasharray: 3.7,1.6; stroke-dashoffset: 0; stroke: #000000"/>
    </g>
    <g id="text_17">
     <!-- Linear (w(p) = p) -->
     <g transform="translate(192.662344 59.219062) scale(0.1 -0.1)">
      <defs>
       <path id="RobotoCondensed-Regular-4c" d="M 2850 491 
L 2850 0 
L 491 0 
L 491 4550 
L 1066 4550 
L 1066 491 
L 2850 491 
z
" transform="scale(0.015625)"/>
       <path id="RobotoCondensed-Regular-3d" d="M 2653 3047 
L 2653 2544 
L 466 2544 
L 466 3047 
L 2653 3047 
z
M 2653 1750 
L 2653 1247 
L 466 1247 
L 466 1750 
L 2653 1750 
z
" transform="scale(0.015625)"/>
      </defs>
      <use xlink:href="#RobotoCondensed-Regular-4c"/>
      <use xlink:href="#RobotoCondensed-Regular-69" transform="translate(47.558594 0)"/>
      <use xlink:href="#RobotoCondensed-Regular-6e" transform="translate(70.507812 0)"/>
      <use xlink:href="#RobotoCondensed-Regular-65" transform="translate(118.945312 0)"/>
      <use xlink:href="#RobotoCondensed-Regular-61" transform="translate(165.820312 0)"/>
      <use xlink:href="#RobotoCondensed-Regular-72" transform="translate(213.720703 0)"/>
      <use xlink:href="#RobotoCondensed-Regular-20" transform="translate(244.189453 0)"/>
      <use xlink:href="#RobotoCondensed-Regular-28" transform="translate(267.138672 0)"/>
      <use xlink:href="#RobotoCondensed-Regular-77" transform="translate(298.535156 0)"/>
      <use xlink:href="#RobotoCondensed-Regular-28" transform="translate(363.525391 0)"/>
      <use xlink:href="#RobotoCondensed-Regular-70" transform="translate(394.921875 0)"/>
      <use xlink:href="#RobotoCondensed-Regular-29" transform="translate(444.238281 0)"/>
      <use xlink:href="#RobotoCondensed-Regular-20" transform="translate(476.123047 0)"/>
      <use xlink:href="#RobotoCondensed-Regular-3d" transform="translate(499.072266 0)"/>
      <use xlink:href="#RobotoCondensed-Regular-20" transform="translate(546.972656 0)"/>
      <use xlink:href="#RobotoCondensed-Regular-70" transform="translate(569.921875 0)"/>
      <use xlink:href="#RobotoCondensed-Regular-29" transform="translate(619.238281 0)"/>
     </g>
    </g>
   </g>
  </g>
 </g>
 <defs>
  <clipPath id="p97ed9b299d">
   <rect x="46.65125" y="26.88" width="374.54875" height="360.80875"/>
  </clipPath>
 </defs>
</svg>
