<?xml version="1.0" encoding="utf-8" standalone="no"?>
<!DOCTYPE svg PUBLIC "-//W3C//DTD SVG 1.1//EN"
  "http://www.w3.org/Graphics/SVG/1.1/DTD/svg11.dtd">
<svg xmlns:xlink="http://www.w3.org/1999/xlink" width="432pt" height="432pt" viewBox="0 0 432 432" xmlns="http://www.w3.org/2000/svg" version="1.1">
 <metadata>
  <rdf:RDF xmlns:dc="http://purl.org/dc/elements/1.1/" xmlns:cc="http://creativecommons.org/ns#" xmlns:rdf="http://www.w3.org/1999/02/22-rdf-syntax-ns#">
   <cc:Work>
    <dc:type rdf:resource="http://purl.org/dc/dcmitype/StillImage"/>
    <dc:date>2026-06-05T11:39:22.480973</dc:date>
    <dc:format>image/svg+xml</dc:format>
    <dc:creator>
     <cc:Agent>
      <dc:title>Matplotlib v3.10.3, https://matplotlib.org/</dc:title>
     </cc:Agent>
    </dc:creator>
   </cc:Work>
  </rdf:RDF>
 </metadata>
 <defs>
  <style type="text/css">*{stroke-linejoin: round; stroke-linecap: butt}</style>
 </defs>
 <g id="figure_1">
  <g id="patch_1">
   <path d="M 0 432 
L 432 432 
L 432 0 
L 0 0 
z
" style="fill: #ffffff"/>
  </g>
  <g id="axes_1">
   <g id="patch_2">
    <path d="M 44.13125 387.68875 
L 421.2 387.68875 
L 421.2 26.88 
L 44.13125 26.88 
z
" style="fill: #ffffff"/>
   </g>
   <g id="matplotlib.axis_1">
    <g id="xtick_1">
     <g id="line2d_1">
      <defs>
       <path id="m01978ffcbd" d="M 0 0 
L 0 3.5 
" style="stroke: #000000; stroke-width: 0.8"/>
      </defs>
      <g>
       <use xlink:href="#m01978ffcbd" x="95.549716" y="387.68875" style="stroke: #000000; stroke-width: 0.8"/>
      </g>
     </g>
     <g id="text_1">
      <!-- −4 -->
      <g transform="translate(90.581747 402.18875) scale(0.1 -0.1)">
       <defs>
        <path id="RobotoCondensed-Regular-2212" d="M 2700 2509 
L 2700 2034 
L 506 2034 
L 506 2509 
L 2700 2509 
z
" transform="scale(0.015625)"/>
        <path id="RobotoCondensed-Regular-34" d="M 188 1397 
L 1878 4550 
L 2463 4550 
L 2463 1531 
L 2969 1531 
L 2969 1056 
L 2463 1056 
L 2463 0 
L 1909 0 
L 1909 1056 
L 188 1056 
L 188 1397 
z
M 803 1531 
L 1909 1531 
L 1909 3703 
L 1878 3638 
L 803 1531 
z
" transform="scale(0.015625)"/>
       </defs>
       <use xlink:href="#RobotoCondensed-Regular-2212"/>
       <use xlink:href="#RobotoCondensed-Regular-34" transform="translate(50 0)"/>
      </g>
     </g>
    </g>
    <g id="xtick_2">
     <g id="line2d_2">
      <g>
       <use xlink:href="#m01978ffcbd" x="164.10767" y="387.68875" style="stroke: #000000; stroke-width: 0.8"/>
      </g>
     </g>
     <g id="text_2">
      <!-- −2 -->
      <g transform="translate(159.139702 402.18875) scale(0.1 -0.1)">
       <defs>
        <path id="RobotoCondensed-Regular-32" d="M 2909 475 
L 2909 0 
L 366 0 
L 366 416 
L 1628 2088 
Q 1966 2541 2077 2802 
Q 2188 3063 2188 3328 
Q 2188 3663 2027 3900 
Q 1866 4138 1575 4138 
Q 1194 4138 1022 3878 
Q 850 3619 850 3213 
L 297 3213 
Q 297 3788 617 4200 
Q 938 4613 1575 4613 
Q 2125 4613 2433 4278 
Q 2741 3944 2741 3397 
Q 2741 2997 2541 2594 
Q 2341 2191 2047 1809 
L 1028 475 
L 2909 475 
z
" transform="scale(0.015625)"/>
       </defs>
       <use xlink:href="#RobotoCondensed-Regular-2212"/>
       <use xlink:href="#RobotoCondensed-Regular-32" transform="translate(50 0)"/>
      </g>
     </g>
    </g>
    <g id="xtick_3">
     <g id="line2d_3">
      <g>
       <use xlink:href="#m01978ffcbd" x="232.665625" y="387.68875" style="stroke: #000000; stroke-width: 0.8"/>
      </g>
     </g>
     <g id="text_3">
      <!-- 0 -->
      <g transform="translate(230.197656 402.18875) scale(0.1 -0.1)">
       <defs>
        <path id="RobotoCondensed-Regular-30" d="M 2797 1944 
Q 2797 825 2467 381 
Q 2138 -63 1581 -63 
Q 1038 -63 703 370 
Q 369 803 359 1878 
L 359 2638 
Q 359 3753 695 4183 
Q 1031 4613 1578 4613 
Q 2131 4613 2461 4189 
Q 2791 3766 2797 2681 
L 2797 1944 
z
M 2247 2734 
Q 2247 3503 2073 3822 
Q 1900 4141 1578 4141 
Q 1266 4141 1092 3833 
Q 919 3525 913 2791 
L 913 1850 
Q 913 1088 1089 750 
Q 1266 413 1581 413 
Q 1903 413 2072 738 
Q 2241 1063 2247 1794 
L 2247 2734 
z
" transform="scale(0.015625)"/>
       </defs>
       <use xlink:href="#RobotoCondensed-Regular-30"/>
      </g>
     </g>
    </g>
    <g id="xtick_4">
     <g id="line2d_4">
      <g>
       <use xlink:href="#m01978ffcbd" x="301.22358" y="387.68875" style="stroke: #000000; stroke-width: 0.8"/>
      </g>
     </g>
     <g id="text_4">
      <!-- 2 -->
      <g transform="translate(298.755611 402.18875) scale(0.1 -0.1)">
       <use xlink:href="#RobotoCondensed-Regular-32"/>
      </g>
     </g>
    </g>
    <g id="xtick_5">
     <g id="line2d_5">
      <g>
       <use xlink:href="#m01978ffcbd" x="369.781534" y="387.68875" style="stroke: #000000; stroke-width: 0.8"/>
      </g>
     </g>
     <g id="text_5">
      <!-- 4 -->
      <g transform="translate(367.313565 402.18875) scale(0.1 -0.1)">
       <use xlink:href="#RobotoCondensed-Regular-34"/>
      </g>
     </g>
    </g>
    <g id="text_6">
     <!-- Outcome (x) -->
     <g transform="translate(203.461562 417.84625) scale(0.12 -0.12)">
      <defs>
       <path id="RobotoCondensed-Regular-4f" d="M 3450 1878 
Q 3450 913 3040 425 
Q 2631 -63 1925 -63 
Q 1253 -63 829 412 
Q 406 888 394 1822 
L 394 2669 
Q 394 3631 816 4122 
Q 1238 4613 1922 4613 
Q 2622 4613 3031 4131 
Q 3441 3650 3450 2713 
L 3450 1878 
z
M 2881 2675 
Q 2881 3425 2634 3762 
Q 2388 4100 1922 4100 
Q 1478 4100 1220 3762 
Q 963 3425 963 2675 
L 963 1878 
Q 963 1125 1223 786 
Q 1484 447 1925 447 
Q 2394 447 2636 781 
Q 2878 1116 2881 1859 
L 2881 2675 
z
" transform="scale(0.015625)"/>
       <path id="RobotoCondensed-Regular-75" d="M 2153 0 
L 2144 297 
Q 1863 -63 1338 -63 
Q 919 -63 662 231 
Q 406 525 406 1200 
L 406 3381 
L 956 3381 
L 956 1178 
Q 959 731 1107 579 
Q 1256 428 1431 428 
Q 1931 428 2125 881 
L 2125 3381 
L 2678 3381 
L 2678 0 
L 2153 0 
z
" transform="scale(0.015625)"/>
       <path id="RobotoCondensed-Regular-74" d="M 1647 0 
Q 1488 -63 1259 -63 
Q 991 -63 789 134 
Q 588 331 588 841 
L 588 2938 
L 72 2938 
L 72 3381 
L 588 3381 
L 588 4203 
L 1141 4203 
L 1141 3381 
L 1650 3381 
L 1650 2938 
L 1141 2938 
L 1141 838 
Q 1141 578 1230 506 
Q 1319 434 1431 434 
Q 1550 434 1650 472 
L 1647 0 
z
" transform="scale(0.015625)"/>
       <path id="RobotoCondensed-Regular-63" d="M 1588 409 
Q 1834 409 2012 564 
Q 2191 719 2213 1069 
L 2731 1069 
Q 2713 559 2378 248 
Q 2044 -63 1588 -63 
Q 934 -63 621 342 
Q 309 747 303 1472 
L 303 1881 
Q 303 2619 617 3031 
Q 931 3444 1588 3444 
Q 2103 3444 2408 3120 
Q 2713 2797 2731 2219 
L 2213 2219 
Q 2169 2969 1588 2969 
Q 1150 2969 1003 2672 
Q 856 2375 856 1881 
L 856 1500 
Q 856 1003 1001 706 
Q 1147 409 1588 409 
z
" transform="scale(0.015625)"/>
       <path id="RobotoCondensed-Regular-6f" d="M 300 1850 
Q 300 2641 678 3042 
Q 1056 3444 1603 3444 
Q 2156 3444 2536 3042 
Q 2916 2641 2916 1850 
L 2916 1528 
Q 2916 738 2536 337 
Q 2156 -63 1609 -63 
Q 1059 -63 679 337 
Q 300 738 300 1528 
L 300 1850 
z
M 853 1528 
Q 853 969 1068 689 
Q 1284 409 1609 409 
Q 2341 409 2363 1466 
L 2363 1850 
Q 2363 2403 2145 2686 
Q 1928 2969 1603 2969 
Q 1281 2969 1067 2686 
Q 853 2403 853 1850 
L 853 1528 
z
" transform="scale(0.015625)"/>
       <path id="RobotoCondensed-Regular-6d" d="M 1556 2956 
Q 1141 2956 969 2544 
L 969 0 
L 419 0 
L 419 3381 
L 938 3381 
L 953 3075 
Q 1256 3444 1766 3444 
Q 2325 3444 2553 2953 
Q 2872 3444 3441 3444 
Q 3903 3444 4151 3153 
Q 4400 2863 4400 2222 
L 4400 0 
L 3847 0 
L 3847 2228 
Q 3847 2653 3692 2804 
Q 3538 2956 3272 2956 
Q 3016 2956 2864 2757 
Q 2713 2559 2684 2272 
L 2684 0 
L 2131 0 
L 2131 2272 
Q 2116 2956 1556 2956 
z
" transform="scale(0.015625)"/>
       <path id="RobotoCondensed-Regular-65" d="M 2722 447 
Q 2584 253 2323 95 
Q 2063 -63 1625 -63 
Q 1019 -63 666 301 
Q 313 666 309 1431 
L 309 1828 
Q 309 2722 696 3083 
Q 1084 3444 1563 3444 
Q 2197 3444 2472 3034 
Q 2747 2625 2747 1850 
L 2747 1528 
L 863 1528 
L 863 1447 
Q 863 906 1067 657 
Q 1272 409 1656 409 
Q 1934 409 2114 517 
Q 2294 625 2431 794 
L 2722 447 
z
M 1563 2969 
Q 1275 2969 1084 2770 
Q 894 2572 866 2000 
L 2194 2000 
L 2194 2078 
Q 2172 2469 2048 2719 
Q 1925 2969 1563 2969 
z
" transform="scale(0.015625)"/>
       <path id="RobotoCondensed-Regular-20" transform="scale(0.015625)"/>
       <path id="RobotoCondensed-Regular-28" d="M 406 1850 
Q 406 2756 636 3434 
Q 866 4113 1177 4541 
Q 1488 4969 1728 5134 
L 1841 4753 
Q 1547 4475 1253 3761 
Q 959 3047 959 1813 
Q 959 625 1253 -97 
Q 1547 -819 1841 -1119 
L 1728 -1469 
Q 1488 -1306 1177 -878 
Q 866 -450 636 226 
Q 406 903 406 1850 
z
" transform="scale(0.015625)"/>
       <path id="RobotoCondensed-Regular-78" d="M 822 3381 
L 1391 2150 
L 1969 3381 
L 2609 3381 
L 1694 1713 
L 2634 0 
L 2000 0 
L 1403 1269 
L 803 0 
L 166 0 
L 1106 1713 
L 191 3381 
L 822 3381 
z
" transform="scale(0.015625)"/>
       <path id="RobotoCondensed-Regular-29" d="M 1603 1819 
Q 1603 906 1373 228 
Q 1144 -450 833 -878 
Q 522 -1306 281 -1469 
L 169 -1119 
Q 463 -841 758 -109 
Q 1053 622 1053 1856 
Q 1053 2647 904 3236 
Q 756 3825 550 4212 
Q 344 4600 169 4781 
L 281 5134 
Q 522 4969 833 4541 
Q 1144 4113 1373 3436 
Q 1603 2759 1603 1819 
z
" transform="scale(0.015625)"/>
      </defs>
      <use xlink:href="#RobotoCondensed-Regular-4f"/>
      <use xlink:href="#RobotoCondensed-Regular-75" transform="translate(60.107422 0)"/>
      <use xlink:href="#RobotoCondensed-Regular-74" transform="translate(108.447266 0)"/>
      <use xlink:href="#RobotoCondensed-Regular-63" transform="translate(138.037109 0)"/>
      <use xlink:href="#RobotoCondensed-Regular-6f" transform="translate(184.228516 0)"/>
      <use xlink:href="#RobotoCondensed-Regular-6d" transform="translate(234.423828 0)"/>
      <use xlink:href="#RobotoCondensed-Regular-65" transform="translate(309.716797 0)"/>
      <use xlink:href="#RobotoCondensed-Regular-20" transform="translate(356.591797 0)"/>
      <use xlink:href="#RobotoCondensed-Regular-28" transform="translate(379.541016 0)"/>
      <use xlink:href="#RobotoCondensed-Regular-78" transform="translate(410.9375 0)"/>
      <use xlink:href="#RobotoCondensed-Regular-29" transform="translate(454.833984 0)"/>
     </g>
    </g>
   </g>
   <g id="matplotlib.axis_2">
    <g id="ytick_1">
     <g id="line2d_6">
      <defs>
       <path id="mdc2773f420" d="M 0 0 
L -3.5 0 
" style="stroke: #000000; stroke-width: 0.8"/>
      </defs>
      <g>
       <use xlink:href="#mdc2773f420" x="44.13125" y="338.487557" style="stroke: #000000; stroke-width: 0.8"/>
      </g>
     </g>
     <g id="text_7">
      <!-- −4 -->
      <g transform="translate(27.195313 342.237557) scale(0.1 -0.1)">
       <use xlink:href="#RobotoCondensed-Regular-2212"/>
       <use xlink:href="#RobotoCondensed-Regular-34" transform="translate(50 0)"/>
      </g>
     </g>
    </g>
    <g id="ytick_2">
     <g id="line2d_7">
      <g>
       <use xlink:href="#mdc2773f420" x="44.13125" y="272.885966" style="stroke: #000000; stroke-width: 0.8"/>
      </g>
     </g>
     <g id="text_8">
      <!-- −2 -->
      <g transform="translate(27.195313 276.635966) scale(0.1 -0.1)">
       <use xlink:href="#RobotoCondensed-Regular-2212"/>
       <use xlink:href="#RobotoCondensed-Regular-32" transform="translate(50 0)"/>
      </g>
     </g>
    </g>
    <g id="ytick_3">
     <g id="line2d_8">
      <g>
       <use xlink:href="#mdc2773f420" x="44.13125" y="207.284375" style="stroke: #000000; stroke-width: 0.8"/>
      </g>
     </g>
     <g id="text_9">
      <!-- 0 -->
      <g transform="translate(32.195313 211.034375) scale(0.1 -0.1)">
       <use xlink:href="#RobotoCondensed-Regular-30"/>
      </g>
     </g>
    </g>
    <g id="ytick_4">
     <g id="line2d_9">
      <g>
       <use xlink:href="#mdc2773f420" x="44.13125" y="141.682784" style="stroke: #000000; stroke-width: 0.8"/>
      </g>
     </g>
     <g id="text_10">
      <!-- 2 -->
      <g transform="translate(32.195313 145.432784) scale(0.1 -0.1)">
       <use xlink:href="#RobotoCondensed-Regular-32"/>
      </g>
     </g>
    </g>
    <g id="ytick_5">
     <g id="line2d_10">
      <g>
       <use xlink:href="#mdc2773f420" x="44.13125" y="76.081193" style="stroke: #000000; stroke-width: 0.8"/>
      </g>
     </g>
     <g id="text_11">
      <!-- 4 -->
      <g transform="translate(32.195313 79.831193) scale(0.1 -0.1)">
       <use xlink:href="#RobotoCondensed-Regular-34"/>
      </g>
     </g>
    </g>
    <g id="text_12">
     <!-- Value (v(x)) -->
     <g transform="translate(20.440938 234.784062) rotate(-90) scale(0.12 -0.12)">
      <defs>
       <path id="RobotoCondensed-Regular-56" d="M 3459 4550 
L 2047 0 
L 1547 0 
L 134 4550 
L 759 4550 
L 1794 872 
L 2834 4550 
L 3459 4550 
z
" transform="scale(0.015625)"/>
       <path id="RobotoCondensed-Regular-61" d="M 2156 0 
Q 2103 122 2081 366 
Q 1966 194 1775 65 
Q 1584 -63 1334 -63 
Q 891 -63 623 187 
Q 356 438 356 922 
Q 356 1409 690 1729 
Q 1025 2050 1691 2050 
L 2072 2050 
L 2072 2413 
Q 2072 2713 1936 2841 
Q 1800 2969 1528 2969 
Q 1263 2969 1114 2812 
Q 966 2656 966 2444 
L 413 2444 
Q 413 2806 722 3125 
Q 1031 3444 1556 3444 
Q 2025 3444 2325 3209 
Q 2625 2975 2625 2406 
L 2625 794 
Q 2625 316 2728 50 
L 2728 0 
L 2156 0 
z
M 1419 441 
Q 1653 441 1825 562 
Q 1997 684 2072 834 
L 2072 1644 
L 1781 1644 
Q 1384 1644 1146 1475 
Q 909 1306 909 991 
Q 909 688 1036 564 
Q 1163 441 1419 441 
z
" transform="scale(0.015625)"/>
       <path id="RobotoCondensed-Regular-6c" d="M 1009 4800 
L 1009 0 
L 459 0 
L 459 4800 
L 1009 4800 
z
" transform="scale(0.015625)"/>
       <path id="RobotoCondensed-Regular-76" d="M 2578 3381 
L 1575 0 
L 1159 0 
L 144 3381 
L 706 3381 
L 1372 847 
L 2016 3381 
L 2578 3381 
z
" transform="scale(0.015625)"/>
      </defs>
      <use xlink:href="#RobotoCondensed-Regular-56"/>
      <use xlink:href="#RobotoCondensed-Regular-61" transform="translate(56.054688 0)"/>
      <use xlink:href="#RobotoCondensed-Regular-6c" transform="translate(103.955078 0)"/>
      <use xlink:href="#RobotoCondensed-Regular-75" transform="translate(126.904297 0)"/>
      <use xlink:href="#RobotoCondensed-Regular-65" transform="translate(175.244141 0)"/>
      <use xlink:href="#RobotoCondensed-Regular-20" transform="translate(222.119141 0)"/>
      <use xlink:href="#RobotoCondensed-Regular-28" transform="translate(245.068359 0)"/>
      <use xlink:href="#RobotoCondensed-Regular-76" transform="translate(276.464844 0)"/>
      <use xlink:href="#RobotoCondensed-Regular-28" transform="translate(319.238281 0)"/>
      <use xlink:href="#RobotoCondensed-Regular-78" transform="translate(350.634766 0)"/>
      <use xlink:href="#RobotoCondensed-Regular-29" transform="translate(394.53125 0)"/>
      <use xlink:href="#RobotoCondensed-Regular-29" transform="translate(426.416016 0)"/>
     </g>
    </g>
   </g>
   <g id="line2d_11">
    <path d="M 61.270739 372.310194 
L 74.322854 365.902235 
L 86.688016 359.583037 
L 98.366225 353.36412 
L 109.35748 347.25885 
L 119.661782 341.282763 
L 129.27913 335.453928 
L 138.209525 329.793368 
L 146.452967 324.325499 
L 154.696408 318.589344 
L 162.252896 313.058284 
L 169.122431 307.766194 
L 175.991965 302.179433 
L 182.174546 296.853904 
L 187.670174 291.838981 
L 193.165801 286.50724 
L 197.974476 281.528537 
L 202.096196 276.978573 
L 206.217917 272.110041 
L 209.652684 267.754244 
L 213.087452 263.059307 
L 216.522219 257.931005 
L 219.270033 253.419736 
L 222.017846 248.416625 
L 224.078707 244.222226 
L 226.139567 239.486047 
L 227.513474 235.896312 
L 228.887381 231.786174 
L 230.261288 226.830049 
L 230.948241 223.803484 
L 231.635195 220.080022 
L 232.322148 214.671945 
L 233.009102 204.00101 
L 233.696055 201.597421 
L 234.383009 199.942549 
L 235.756916 197.434281 
L 237.130822 195.446036 
L 239.191683 192.972521 
L 241.252543 190.867552 
L 244.000357 188.422882 
L 246.748171 186.260584 
L 250.182938 183.836462 
L 254.304659 181.223477 
L 259.113333 178.472968 
L 264.608961 175.620754 
L 270.791542 172.691983 
L 277.661076 169.70455 
L 285.217564 166.671398 
L 293.461006 163.602051 
L 303.078354 160.273749 
L 313.382656 156.95135 
L 325.060864 153.433192 
L 337.426026 149.942878 
L 351.165096 146.298585 
L 366.278071 142.526304 
L 382.764954 138.647133 
L 400.625744 134.678204 
L 404.060511 133.939567 
L 404.060511 133.939567 
" clip-path="url(#p22418f8a6c)" style="fill: none; stroke: #000000; stroke-width: 2; stroke-linecap: square"/>
   </g>
   <g id="line2d_12">
    <path d="M 61.270739 371.288352 
L 404.060511 43.280398 
L 404.060511 43.280398 
" clip-path="url(#p22418f8a6c)" style="fill: none; stroke-dasharray: 3.7,1.6; stroke-dashoffset: 0; stroke: #000000"/>
   </g>
   <g id="line2d_13">
    <path d="M 44.13125 207.284375 
L 421.2 207.284375 
" clip-path="url(#p22418f8a6c)" style="fill: none; stroke: #000000; stroke-width: 0.5; stroke-linecap: square"/>
   </g>
   <g id="line2d_14">
    <path d="M 232.665625 387.68875 
L 232.665625 26.88 
" clip-path="url(#p22418f8a6c)" style="fill: none; stroke: #000000; stroke-width: 0.5; stroke-linecap: square"/>
   </g>
   <g id="patch_3">
    <path d="M 44.13125 387.68875 
L 44.13125 26.88 
" style="fill: none; stroke: #000000; stroke-width: 0.8; stroke-linejoin: miter; stroke-linecap: square"/>
   </g>
   <g id="patch_4">
    <path d="M 421.2 387.68875 
L 421.2 26.88 
" style="fill: none; stroke: #000000; stroke-width: 0.8; stroke-linejoin: miter; stroke-linecap: square"/>
   </g>
   <g id="patch_5">
    <path d="M 44.13125 387.68875 
L 421.2 387.68875 
" style="fill: none; stroke: #000000; stroke-width: 0.8; stroke-linejoin: miter; stroke-linecap: square"/>
   </g>
   <g id="patch_6">
    <path d="M 44.13125 26.88 
L 421.2 26.88 
" style="fill: none; stroke: #000000; stroke-width: 0.8; stroke-linejoin: miter; stroke-linecap: square"/>
   </g>
   <g id="text_13">
    <!-- Prospect Theory: Value Function -->
    <g transform="translate(143.07875 20.88) scale(0.14 -0.14)">
     <defs>
      <path id="RobotoCondensed-Regular-50" d="M 1066 1784 
L 1066 0 
L 491 0 
L 491 4550 
L 1941 4550 
Q 2600 4550 2951 4159 
Q 3303 3769 3303 3163 
Q 3303 2506 2954 2147 
Q 2606 1788 1950 1784 
L 1066 1784 
z
M 1066 4056 
L 1066 2275 
L 1941 2275 
Q 2359 2275 2543 2522 
Q 2728 2769 2728 3156 
Q 2728 3506 2543 3781 
Q 2359 4056 1941 4056 
L 1066 4056 
z
" transform="scale(0.015625)"/>
      <path id="RobotoCondensed-Regular-72" d="M 1563 2888 
Q 1138 2888 969 2425 
L 969 0 
L 416 0 
L 416 3381 
L 950 3381 
L 963 3041 
Q 1184 3444 1591 3444 
Q 1738 3444 1809 3400 
L 1813 2863 
Q 1691 2888 1563 2888 
z
" transform="scale(0.015625)"/>
      <path id="RobotoCondensed-Regular-73" d="M 2056 866 
Q 2056 1059 1907 1190 
Q 1759 1322 1340 1500 
Q 922 1678 681 1863 
Q 409 2072 409 2484 
Q 409 2888 703 3166 
Q 997 3444 1481 3444 
Q 2000 3444 2287 3150 
Q 2575 2856 2575 2419 
L 2025 2419 
Q 2025 2628 1884 2798 
Q 1744 2969 1481 2969 
Q 1203 2969 1083 2828 
Q 963 2688 963 2503 
Q 963 2319 1081 2217 
Q 1200 2116 1553 1959 
Q 2066 1756 2337 1537 
Q 2609 1319 2609 909 
Q 2609 463 2303 200 
Q 1997 -63 1494 -63 
Q 919 -63 616 265 
Q 313 594 313 1013 
L 866 1013 
Q 881 653 1081 533 
Q 1281 413 1494 413 
Q 2056 413 2056 866 
z
" transform="scale(0.015625)"/>
      <path id="RobotoCondensed-Regular-70" d="M 1750 -63 
Q 1244 -63 969 325 
L 969 -1300 
L 416 -1300 
L 416 3381 
L 919 3381 
L 947 3013 
Q 1222 3444 1744 3444 
Q 2275 3444 2562 3073 
Q 2850 2703 2859 1897 
L 2859 1528 
Q 2859 725 2570 331 
Q 2281 -63 1750 -63 
z
M 1572 2956 
Q 1181 2956 969 2559 
L 969 797 
Q 1178 409 1578 409 
Q 2288 409 2306 1472 
L 2306 1844 
Q 2306 2956 1572 2956 
z
" transform="scale(0.015625)"/>
      <path id="RobotoCondensed-Regular-54" d="M 191 4056 
L 191 4550 
L 3150 4550 
L 3150 4056 
L 1953 4056 
L 1953 0 
L 1384 0 
L 1384 4056 
L 191 4056 
z
" transform="scale(0.015625)"/>
      <path id="RobotoCondensed-Regular-68" d="M 1603 2956 
Q 1400 2956 1236 2818 
Q 1072 2681 969 2459 
L 969 0 
L 416 0 
L 416 4800 
L 969 4800 
L 969 3041 
Q 1288 3444 1775 3444 
Q 2191 3444 2437 3162 
Q 2684 2881 2684 2216 
L 2684 0 
L 2131 0 
L 2131 2222 
Q 2131 2619 2000 2787 
Q 1869 2956 1603 2956 
z
" transform="scale(0.015625)"/>
      <path id="RobotoCondensed-Regular-79" d="M 1425 -522 
Q 1153 -1366 563 -1366 
Q 409 -1366 278 -1316 
L 278 -847 
Q 328 -859 397 -859 
Q 631 -859 770 -746 
Q 909 -634 997 -338 
L 1106 31 
L 109 3381 
L 713 3381 
L 1341 922 
L 1953 3381 
L 2541 3381 
L 1425 -522 
z
" transform="scale(0.015625)"/>
      <path id="RobotoCondensed-Regular-3a" d="M 434 306 
Q 434 453 526 554 
Q 618 656 793 656 
Q 968 656 1060 554 
Q 1153 453 1153 306 
Q 1153 163 1060 62 
Q 968 -38 793 -38 
Q 618 -38 526 62 
Q 434 163 434 306 
z
M 426 3058 
Q 426 3205 518 3306 
Q 610 3408 785 3408 
Q 960 3408 1052 3306 
Q 1145 3205 1145 3058 
Q 1145 2915 1052 2814 
Q 960 2714 785 2714 
Q 610 2714 518 2814 
Q 426 2915 426 3058 
z
" transform="scale(0.015625)"/>
      <path id="RobotoCondensed-Regular-46" d="M 491 0 
L 491 4550 
L 2859 4550 
L 2859 4056 
L 1066 4056 
L 1066 2503 
L 2600 2503 
L 2600 2009 
L 1066 2009 
L 1066 0 
L 491 0 
z
" transform="scale(0.015625)"/>
      <path id="RobotoCondensed-Regular-6e" d="M 1603 2956 
Q 1400 2956 1236 2818 
Q 1072 2681 969 2459 
L 969 0 
L 416 0 
L 416 3381 
L 938 3381 
L 953 3022 
Q 1275 3444 1775 3444 
Q 2191 3444 2437 3162 
Q 2684 2881 2684 2216 
L 2684 0 
L 2131 0 
L 2131 2222 
Q 2131 2619 2000 2787 
Q 1869 2956 1603 2956 
z
" transform="scale(0.015625)"/>
      <path id="RobotoCondensed-Regular-69" d="M 428 4278 
Q 428 4419 506 4516 
Q 584 4613 741 4613 
Q 894 4613 975 4516 
Q 1056 4419 1056 4278 
Q 1056 4144 975 4048 
Q 894 3953 741 3953 
Q 584 3953 506 4048 
Q 428 4144 428 4278 
z
M 1009 3381 
L 1009 0 
L 459 0 
L 459 3381 
L 1009 3381 
z
" transform="scale(0.015625)"/>
     </defs>
     <use xlink:href="#RobotoCondensed-Regular-50"/>
     <use xlink:href="#RobotoCondensed-Regular-72" transform="translate(55.419922 0)"/>
     <use xlink:href="#RobotoCondensed-Regular-6f" transform="translate(85.888672 0)"/>
     <use xlink:href="#RobotoCondensed-Regular-73" transform="translate(136.083984 0)"/>
     <use xlink:href="#RobotoCondensed-Regular-70" transform="translate(181.689453 0)"/>
     <use xlink:href="#RobotoCondensed-Regular-65" transform="translate(231.005859 0)"/>
     <use xlink:href="#RobotoCondensed-Regular-63" transform="translate(277.880859 0)"/>
     <use xlink:href="#RobotoCondensed-Regular-74" transform="translate(324.072266 0)"/>
     <use xlink:href="#RobotoCondensed-Regular-20" transform="translate(353.662109 0)"/>
     <use xlink:href="#RobotoCondensed-Regular-54" transform="translate(376.611328 0)"/>
     <use xlink:href="#RobotoCondensed-Regular-68" transform="translate(428.662109 0)"/>
     <use xlink:href="#RobotoCondensed-Regular-65" transform="translate(476.953125 0)"/>
     <use xlink:href="#RobotoCondensed-Regular-6f" transform="translate(523.828125 0)"/>
     <use xlink:href="#RobotoCondensed-Regular-72" transform="translate(574.023438 0)"/>
     <use xlink:href="#RobotoCondensed-Regular-79" transform="translate(604.492188 0)"/>
     <use xlink:href="#RobotoCondensed-Regular-3a" transform="translate(646.142578 0)"/>
     <use xlink:href="#RobotoCondensed-Regular-20" transform="translate(669.482422 0)"/>
     <use xlink:href="#RobotoCondensed-Regular-56" transform="translate(692.431641 0)"/>
     <use xlink:href="#RobotoCondensed-Regular-61" transform="translate(748.486328 0)"/>
     <use xlink:href="#RobotoCondensed-Regular-6c" transform="translate(796.386719 0)"/>
     <use xlink:href="#RobotoCondensed-Regular-75" transform="translate(819.335938 0)"/>
     <use xlink:href="#RobotoCondensed-Regular-65" transform="translate(867.675781 0)"/>
     <use xlink:href="#RobotoCondensed-Regular-20" transform="translate(914.550781 0)"/>
     <use xlink:href="#RobotoCondensed-Regular-46" transform="translate(937.5 0)"/>
     <use xlink:href="#RobotoCondensed-Regular-75" transform="translate(985.595703 0)"/>
     <use xlink:href="#RobotoCondensed-Regular-6e" transform="translate(1033.935547 0)"/>
     <use xlink:href="#RobotoCondensed-Regular-63" transform="translate(1082.373047 0)"/>
     <use xlink:href="#RobotoCondensed-Regular-74" transform="translate(1128.564453 0)"/>
     <use xlink:href="#RobotoCondensed-Regular-69" transform="translate(1158.154297 0)"/>
     <use xlink:href="#RobotoCondensed-Regular-6f" transform="translate(1181.103516 0)"/>
     <use xlink:href="#RobotoCondensed-Regular-6e" transform="translate(1231.298828 0)"/>
    </g>
   </g>
   <g id="legend_1">
    <g id="patch_7">
     <path d="M 51.13125 65.514375 
L 165.484375 65.514375 
Q 167.484375 65.514375 167.484375 63.514375 
L 167.484375 33.88 
Q 167.484375 31.88 165.484375 31.88 
L 51.13125 31.88 
Q 49.13125 31.88 49.13125 33.88 
L 49.13125 63.514375 
Q 49.13125 65.514375 51.13125 65.514375 
z
" style="fill: #ffffff; opacity: 0.8; stroke: #cccccc; stroke-linejoin: miter"/>
    </g>
    <g id="line2d_15">
     <path d="M 53.13125 40.401875 
L 63.13125 40.401875 
L 73.13125 40.401875 
" style="fill: none; stroke: #000000; stroke-width: 2; stroke-linecap: square"/>
    </g>
    <g id="text_14">
     <!-- Value Function (v(x)) -->
     <g transform="translate(81.13125 43.901875) scale(0.1 -0.1)">
      <use xlink:href="#RobotoCondensed-Regular-56"/>
      <use xlink:href="#RobotoCondensed-Regular-61" transform="translate(56.054688 0)"/>
      <use xlink:href="#RobotoCondensed-Regular-6c" transform="translate(103.955078 0)"/>
      <use xlink:href="#RobotoCondensed-Regular-75" transform="translate(126.904297 0)"/>
      <use xlink:href="#RobotoCondensed-Regular-65" transform="translate(175.244141 0)"/>
      <use xlink:href="#RobotoCondensed-Regular-20" transform="translate(222.119141 0)"/>
      <use xlink:href="#RobotoCondensed-Regular-46" transform="translate(245.068359 0)"/>
      <use xlink:href="#RobotoCondensed-Regular-75" transform="translate(293.164062 0)"/>
      <use xlink:href="#RobotoCondensed-Regular-6e" transform="translate(341.503906 0)"/>
      <use xlink:href="#RobotoCondensed-Regular-63" transform="translate(389.941406 0)"/>
      <use xlink:href="#RobotoCondensed-Regular-74" transform="translate(436.132812 0)"/>
      <use xlink:href="#RobotoCondensed-Regular-69" transform="translate(465.722656 0)"/>
      <use xlink:href="#RobotoCondensed-Regular-6f" transform="translate(488.671875 0)"/>
      <use xlink:href="#RobotoCondensed-Regular-6e" transform="translate(538.867188 0)"/>
      <use xlink:href="#RobotoCondensed-Regular-20" transform="translate(587.304688 0)"/>
      <use xlink:href="#RobotoCondensed-Regular-28" transform="translate(610.253906 0)"/>
      <use xlink:href="#RobotoCondensed-Regular-76" transform="translate(641.650391 0)"/>
      <use xlink:href="#RobotoCondensed-Regular-28" transform="translate(684.423828 0)"/>
      <use xlink:href="#RobotoCondensed-Regular-78" transform="translate(715.820312 0)"/>
      <use xlink:href="#RobotoCondensed-Regular-29" transform="translate(759.716797 0)"/>
      <use xlink:href="#RobotoCondensed-Regular-29" transform="translate(791.601562 0)"/>
     </g>
    </g>
    <g id="line2d_16">
     <path d="M 53.13125 55.719062 
L 63.13125 55.719062 
L 73.13125 55.719062 
" style="fill: none; stroke-dasharray: 3.7,1.6; stroke-dashoffset: 0; stroke: #000000"/>
    </g>
    <g id="text_15">
     <!-- Linear (y = x) -->
     <g transform="translate(81.13125 59.219062) scale(0.1 -0.1)">
      <defs>
       <path id="RobotoCondensed-Regular-4c" d="M 2850 491 
L 2850 0 
L 491 0 
L 491 4550 
L 1066 4550 
L 1066 491 
L 2850 491 
z
" transform="scale(0.015625)"/>
       <path id="RobotoCondensed-Regular-3d" d="M 2653 3047 
L 2653 2544 
L 466 2544 
L 466 3047 
L 2653 3047 
z
M 2653 1750 
L 2653 1247 
L 466 1247 
L 466 1750 
L 2653 1750 
z
" transform="scale(0.015625)"/>
      </defs>
      <use xlink:href="#RobotoCondensed-Regular-4c"/>
      <use xlink:href="#RobotoCondensed-Regular-69" transform="translate(47.558594 0)"/>
      <use xlink:href="#RobotoCondensed-Regular-6e" transform="translate(70.507812 0)"/>
      <use xlink:href="#RobotoCondensed-Regular-65" transform="translate(118.945312 0)"/>
      <use xlink:href="#RobotoCondensed-Regular-61" transform="translate(165.820312 0)"/>
      <use xlink:href="#RobotoCondensed-Regular-72" transform="translate(213.720703 0)"/>
      <use xlink:href="#RobotoCondensed-Regular-20" transform="translate(244.189453 0)"/>
      <use xlink:href="#RobotoCondensed-Regular-28" transform="translate(267.138672 0)"/>
      <use xlink:href="#RobotoCondensed-Regular-79" transform="translate(298.535156 0)"/>
      <use xlink:href="#RobotoCondensed-Regular-20" transform="translate(340.185547 0)"/>
      <use xlink:href="#RobotoCondensed-Regular-3d" transform="translate(363.134766 0)"/>
      <use xlink:href="#RobotoCondensed-Regular-20" transform="translate(411.035156 0)"/>
      <use xlink:href="#RobotoCondensed-Regular-78" transform="translate(433.984375 0)"/>
      <use xlink:href="#RobotoCondensed-Regular-29" transform="translate(477.880859 0)"/>
     </g>
    </g>
   </g>
  </g>
 </g>
 <defs>
  <clipPath id="p22418f8a6c">
   <rect x="44.13125" y="26.88" width="377.06875" height="360.80875"/>
  </clipPath>
 </defs>
</svg>
